G04 start of page 4 for group -3984 idx -3984 *
G04 Title: Outline, fab *
G04 Creator: pcb v4.0.0-g08c339ec *
G04 CreationDate: Sun Apr  2 19:31:37 2017 UTC *
G04 For: dan *
G04 Format: Gerber/RS-274X *
G04 PCB-Dimensions (mil): 2000.00 2000.00 *
G04 PCB-Coordinate-Origin: lower left *
%MOIN*%
%FSLAX25Y25*%
%LNFAB*%
%ADD15C,0.0100*%
%ADD14C,0.0075*%
%ADD13C,0.0060*%
G54D13*X3000Y273500D02*X3750Y272750D01*
X750Y273500D02*X3000D01*
X0Y272750D02*X750Y273500D01*
X0Y272750D02*Y271250D01*
X750Y270500D01*
X3000D01*
X3750Y269750D01*
Y268250D01*
X3000Y267500D02*X3750Y268250D01*
X750Y267500D02*X3000D01*
X0Y268250D02*X750Y267500D01*
X5550Y270500D02*Y268250D01*
X6300Y267500D01*
X8550Y270500D02*Y266000D01*
X7800Y265250D02*X8550Y266000D01*
X6300Y265250D02*X7800D01*
X5550Y266000D02*X6300Y265250D01*
Y267500D02*X7800D01*
X8550Y268250D01*
X11100Y269750D02*Y267500D01*
Y269750D02*X11850Y270500D01*
X12600D01*
X13350Y269750D01*
Y267500D01*
Y269750D02*X14100Y270500D01*
X14850D01*
X15600Y269750D01*
Y267500D01*
X10350Y270500D02*X11100Y269750D01*
X17400Y273500D02*Y267500D01*
Y268250D02*X18150Y267500D01*
X19650D01*
X20400Y268250D01*
Y269750D02*Y268250D01*
X19650Y270500D02*X20400Y269750D01*
X18150Y270500D02*X19650D01*
X17400Y269750D02*X18150Y270500D01*
X22200Y269750D02*Y268250D01*
Y269750D02*X22950Y270500D01*
X24450D01*
X25200Y269750D01*
Y268250D01*
X24450Y267500D02*X25200Y268250D01*
X22950Y267500D02*X24450D01*
X22200Y268250D02*X22950Y267500D01*
X27000Y273500D02*Y268250D01*
X27750Y267500D01*
X0Y264250D02*X29250D01*
X41750Y273500D02*Y267500D01*
X43700Y273500D02*X44750Y272450D01*
Y268550D01*
X43700Y267500D02*X44750Y268550D01*
X41000Y267500D02*X43700D01*
X41000Y273500D02*X43700D01*
G54D14*X46550Y272000D02*Y271850D01*
G54D13*Y269750D02*Y267500D01*
X50300Y270500D02*X51050Y269750D01*
X48800Y270500D02*X50300D01*
X48050Y269750D02*X48800Y270500D01*
X48050Y269750D02*Y268250D01*
X48800Y267500D01*
X51050Y270500D02*Y268250D01*
X51800Y267500D01*
X48800D02*X50300D01*
X51050Y268250D01*
X54350Y269750D02*Y267500D01*
Y269750D02*X55100Y270500D01*
X55850D01*
X56600Y269750D01*
Y267500D01*
Y269750D02*X57350Y270500D01*
X58100D01*
X58850Y269750D01*
Y267500D01*
X53600Y270500D02*X54350Y269750D01*
X60650Y267500D02*X61400D01*
X65900Y268250D02*X66650Y267500D01*
X65900Y272750D02*X66650Y273500D01*
X65900Y272750D02*Y268250D01*
X68450Y273500D02*X69950D01*
X69200D02*Y267500D01*
X68450D02*X69950D01*
X72500Y269750D02*Y267500D01*
Y269750D02*X73250Y270500D01*
X74000D01*
X74750Y269750D01*
Y267500D01*
X71750Y270500D02*X72500Y269750D01*
X77300Y270500D02*X79550D01*
X76550Y269750D02*X77300Y270500D01*
X76550Y269750D02*Y268250D01*
X77300Y267500D01*
X79550D01*
X81350Y273500D02*Y267500D01*
Y269750D02*X82100Y270500D01*
X83600D01*
X84350Y269750D01*
Y267500D01*
X86150Y273500D02*X86900Y272750D01*
Y268250D01*
X86150Y267500D02*X86900Y268250D01*
X41000Y264250D02*X88700D01*
X96050Y267500D02*X98000D01*
X95000Y268550D02*X96050Y267500D01*
X95000Y272450D02*Y268550D01*
Y272450D02*X96050Y273500D01*
X98000D01*
X99800Y269750D02*Y268250D01*
Y269750D02*X100550Y270500D01*
X102050D01*
X102800Y269750D01*
Y268250D01*
X102050Y267500D02*X102800Y268250D01*
X100550Y267500D02*X102050D01*
X99800Y268250D02*X100550Y267500D01*
X104600Y270500D02*Y268250D01*
X105350Y267500D01*
X106850D01*
X107600Y268250D01*
Y270500D02*Y268250D01*
X110150Y269750D02*Y267500D01*
Y269750D02*X110900Y270500D01*
X111650D01*
X112400Y269750D01*
Y267500D01*
X109400Y270500D02*X110150Y269750D01*
X114950Y273500D02*Y268250D01*
X115700Y267500D01*
X114200Y271250D02*X115700D01*
X95000Y264250D02*X117200D01*
X130750Y273500D02*Y267500D01*
X130000Y273500D02*X133000D01*
X133750Y272750D01*
Y271250D01*
X133000Y270500D02*X133750Y271250D01*
X130750Y270500D02*X133000D01*
X135550Y273500D02*Y268250D01*
X136300Y267500D01*
X140050Y270500D02*X140800Y269750D01*
X138550Y270500D02*X140050D01*
X137800Y269750D02*X138550Y270500D01*
X137800Y269750D02*Y268250D01*
X138550Y267500D01*
X140800Y270500D02*Y268250D01*
X141550Y267500D01*
X138550D02*X140050D01*
X140800Y268250D01*
X144100Y273500D02*Y268250D01*
X144850Y267500D01*
X143350Y271250D02*X144850D01*
X147100Y267500D02*X149350D01*
X146350Y268250D02*X147100Y267500D01*
X146350Y269750D02*Y268250D01*
Y269750D02*X147100Y270500D01*
X148600D01*
X149350Y269750D01*
X146350Y269000D02*X149350D01*
Y269750D02*Y269000D01*
X154150Y273500D02*Y267500D01*
X153400D02*X154150Y268250D01*
X151900Y267500D02*X153400D01*
X151150Y268250D02*X151900Y267500D01*
X151150Y269750D02*Y268250D01*
Y269750D02*X151900Y270500D01*
X153400D01*
X154150Y269750D01*
X157450Y270500D02*Y269750D01*
Y268250D02*Y267500D01*
X155950Y272750D02*Y272000D01*
Y272750D02*X156700Y273500D01*
X158200D01*
X158950Y272750D01*
Y272000D01*
X157450Y270500D02*X158950Y272000D01*
X130000Y264250D02*X160750D01*
X0Y288500D02*X3000D01*
X1500D02*Y282500D01*
X4800Y288500D02*Y282500D01*
Y284750D02*X5550Y285500D01*
X7050D01*
X7800Y284750D01*
Y282500D01*
X10350D02*X12600D01*
X9600Y283250D02*X10350Y282500D01*
X9600Y284750D02*Y283250D01*
Y284750D02*X10350Y285500D01*
X11850D01*
X12600Y284750D01*
X9600Y284000D02*X12600D01*
Y284750D02*Y284000D01*
X15150Y284750D02*Y282500D01*
Y284750D02*X15900Y285500D01*
X17400D01*
X14400D02*X15150Y284750D01*
X19950Y282500D02*X22200D01*
X19200Y283250D02*X19950Y282500D01*
X19200Y284750D02*Y283250D01*
Y284750D02*X19950Y285500D01*
X21450D01*
X22200Y284750D01*
X19200Y284000D02*X22200D01*
Y284750D02*Y284000D01*
X28950Y285500D02*X29700Y284750D01*
X27450Y285500D02*X28950D01*
X26700Y284750D02*X27450Y285500D01*
X26700Y284750D02*Y283250D01*
X27450Y282500D01*
X29700Y285500D02*Y283250D01*
X30450Y282500D01*
X27450D02*X28950D01*
X29700Y283250D01*
X33000Y284750D02*Y282500D01*
Y284750D02*X33750Y285500D01*
X35250D01*
X32250D02*X33000Y284750D01*
X37800Y282500D02*X40050D01*
X37050Y283250D02*X37800Y282500D01*
X37050Y284750D02*Y283250D01*
Y284750D02*X37800Y285500D01*
X39300D01*
X40050Y284750D01*
X37050Y284000D02*X40050D01*
Y284750D02*Y284000D01*
X44550Y283250D02*X45300Y282500D01*
X44550Y287750D02*Y283250D01*
Y287750D02*X45300Y288500D01*
X46800D01*
X47550Y287750D01*
Y283250D01*
X46800Y282500D02*X47550Y283250D01*
X45300Y282500D02*X46800D01*
X44550Y284000D02*X47550Y287000D01*
X55050Y288500D02*Y282500D01*
X54300D02*X55050Y283250D01*
X52800Y282500D02*X54300D01*
X52050Y283250D02*X52800Y282500D01*
X52050Y284750D02*Y283250D01*
Y284750D02*X52800Y285500D01*
X54300D01*
X55050Y284750D01*
G54D14*X56850Y287000D02*Y286850D01*
G54D13*Y284750D02*Y282500D01*
X59100Y287750D02*Y282500D01*
Y287750D02*X59850Y288500D01*
X60600D01*
X58350Y285500D02*X59850D01*
X62850Y287750D02*Y282500D01*
Y287750D02*X63600Y288500D01*
X64350D01*
X62100Y285500D02*X63600D01*
X66600Y282500D02*X68850D01*
X65850Y283250D02*X66600Y282500D01*
X65850Y284750D02*Y283250D01*
Y284750D02*X66600Y285500D01*
X68100D01*
X68850Y284750D01*
X65850Y284000D02*X68850D01*
Y284750D02*Y284000D01*
X71400Y284750D02*Y282500D01*
Y284750D02*X72150Y285500D01*
X73650D01*
X70650D02*X71400Y284750D01*
X76200Y282500D02*X78450D01*
X75450Y283250D02*X76200Y282500D01*
X75450Y284750D02*Y283250D01*
Y284750D02*X76200Y285500D01*
X77700D01*
X78450Y284750D01*
X75450Y284000D02*X78450D01*
Y284750D02*Y284000D01*
X81000Y284750D02*Y282500D01*
Y284750D02*X81750Y285500D01*
X82500D01*
X83250Y284750D01*
Y282500D01*
X80250Y285500D02*X81000Y284750D01*
X85800Y288500D02*Y283250D01*
X86550Y282500D01*
X85050Y286250D02*X86550D01*
X93750Y288500D02*Y282500D01*
X93000D02*X93750Y283250D01*
X91500Y282500D02*X93000D01*
X90750Y283250D02*X91500Y282500D01*
X90750Y284750D02*Y283250D01*
Y284750D02*X91500Y285500D01*
X93000D01*
X93750Y284750D01*
X96300D02*Y282500D01*
Y284750D02*X97050Y285500D01*
X98550D01*
X95550D02*X96300Y284750D01*
G54D14*X100350Y287000D02*Y286850D01*
G54D13*Y284750D02*Y282500D01*
X101850Y288500D02*Y283250D01*
X102600Y282500D01*
X104100Y288500D02*Y283250D01*
X104850Y282500D01*
X109800D02*X112050D01*
X112800Y283250D01*
X112050Y284000D02*X112800Y283250D01*
X109800Y284000D02*X112050D01*
X109050Y284750D02*X109800Y284000D01*
X109050Y284750D02*X109800Y285500D01*
X112050D01*
X112800Y284750D01*
X109050Y283250D02*X109800Y282500D01*
G54D14*X114600Y287000D02*Y286850D01*
G54D13*Y284750D02*Y282500D01*
X116100Y285500D02*X119100D01*
X116100Y282500D02*X119100Y285500D01*
X116100Y282500D02*X119100D01*
X121650D02*X123900D01*
X120900Y283250D02*X121650Y282500D01*
X120900Y284750D02*Y283250D01*
Y284750D02*X121650Y285500D01*
X123150D01*
X123900Y284750D01*
X120900Y284000D02*X123900D01*
Y284750D02*Y284000D01*
X126450Y282500D02*X128700D01*
X129450Y283250D01*
X128700Y284000D02*X129450Y283250D01*
X126450Y284000D02*X128700D01*
X125700Y284750D02*X126450Y284000D01*
X125700Y284750D02*X126450Y285500D01*
X128700D01*
X129450Y284750D01*
X125700Y283250D02*X126450Y282500D01*
X133950Y285500D02*Y283250D01*
X134700Y282500D01*
X136200D01*
X136950Y283250D01*
Y285500D02*Y283250D01*
X139500Y282500D02*X141750D01*
X142500Y283250D01*
X141750Y284000D02*X142500Y283250D01*
X139500Y284000D02*X141750D01*
X138750Y284750D02*X139500Y284000D01*
X138750Y284750D02*X139500Y285500D01*
X141750D01*
X142500Y284750D01*
X138750Y283250D02*X139500Y282500D01*
X145050D02*X147300D01*
X144300Y283250D02*X145050Y282500D01*
X144300Y284750D02*Y283250D01*
Y284750D02*X145050Y285500D01*
X146550D01*
X147300Y284750D01*
X144300Y284000D02*X147300D01*
Y284750D02*Y284000D01*
X152100Y288500D02*Y282500D01*
X151350D02*X152100Y283250D01*
X149850Y282500D02*X151350D01*
X149100Y283250D02*X149850Y282500D01*
X149100Y284750D02*Y283250D01*
Y284750D02*X149850Y285500D01*
X151350D01*
X152100Y284750D01*
G54D14*X156600Y287000D02*Y286850D01*
G54D13*Y284750D02*Y282500D01*
X158850Y284750D02*Y282500D01*
Y284750D02*X159600Y285500D01*
X160350D01*
X161100Y284750D01*
Y282500D01*
X158100Y285500D02*X158850Y284750D01*
X166350Y288500D02*Y283250D01*
X167100Y282500D01*
X165600Y286250D02*X167100D01*
X168600Y288500D02*Y282500D01*
Y284750D02*X169350Y285500D01*
X170850D01*
X171600Y284750D01*
Y282500D01*
G54D14*X173400Y287000D02*Y286850D01*
G54D13*Y284750D02*Y282500D01*
X175650D02*X177900D01*
X178650Y283250D01*
X177900Y284000D02*X178650Y283250D01*
X175650Y284000D02*X177900D01*
X174900Y284750D02*X175650Y284000D01*
X174900Y284750D02*X175650Y285500D01*
X177900D01*
X178650Y284750D01*
X174900Y283250D02*X175650Y282500D01*
X183150Y288500D02*Y283250D01*
X183900Y282500D01*
X187650Y285500D02*X188400Y284750D01*
X186150Y285500D02*X187650D01*
X185400Y284750D02*X186150Y285500D01*
X185400Y284750D02*Y283250D01*
X186150Y282500D01*
X188400Y285500D02*Y283250D01*
X189150Y282500D01*
X186150D02*X187650D01*
X188400Y283250D01*
X190950Y285500D02*Y283250D01*
X191700Y282500D01*
X193950Y285500D02*Y281000D01*
X193200Y280250D02*X193950Y281000D01*
X191700Y280250D02*X193200D01*
X190950Y281000D02*X191700Y280250D01*
Y282500D02*X193200D01*
X193950Y283250D01*
X195750Y284750D02*Y283250D01*
Y284750D02*X196500Y285500D01*
X198000D01*
X198750Y284750D01*
Y283250D01*
X198000Y282500D02*X198750Y283250D01*
X196500Y282500D02*X198000D01*
X195750Y283250D02*X196500Y282500D01*
X200550Y285500D02*Y283250D01*
X201300Y282500D01*
X202800D01*
X203550Y283250D01*
Y285500D02*Y283250D01*
X206100Y288500D02*Y283250D01*
X206850Y282500D01*
X205350Y286250D02*X206850D01*
X208350Y281000D02*X209850Y282500D01*
X214350Y283250D02*X215100Y282500D01*
X214350Y287750D02*Y283250D01*
Y287750D02*X215100Y288500D01*
X216600D01*
X217350Y287750D01*
Y283250D01*
X216600Y282500D02*X217350Y283250D01*
X215100Y282500D02*X216600D01*
X214350Y284000D02*X217350Y287000D01*
X221850Y288500D02*Y282500D01*
Y284750D02*X222600Y285500D01*
X224100D01*
X224850Y284750D01*
Y282500D01*
X226650Y284750D02*Y283250D01*
Y284750D02*X227400Y285500D01*
X228900D01*
X229650Y284750D01*
Y283250D01*
X228900Y282500D02*X229650Y283250D01*
X227400Y282500D02*X228900D01*
X226650Y283250D02*X227400Y282500D01*
X231450Y288500D02*Y283250D01*
X232200Y282500D01*
X234450D02*X236700D01*
X233700Y283250D02*X234450Y282500D01*
X233700Y284750D02*Y283250D01*
Y284750D02*X234450Y285500D01*
X235950D01*
X236700Y284750D01*
X233700Y284000D02*X236700D01*
Y284750D02*Y284000D01*
X239250Y282500D02*X241500D01*
X242250Y283250D01*
X241500Y284000D02*X242250Y283250D01*
X239250Y284000D02*X241500D01*
X238500Y284750D02*X239250Y284000D01*
X238500Y284750D02*X239250Y285500D01*
X241500D01*
X242250Y284750D01*
X238500Y283250D02*X239250Y282500D01*
X247500Y288500D02*Y283250D01*
X248250Y282500D01*
X246750Y286250D02*X248250D01*
X249750Y284750D02*Y283250D01*
Y284750D02*X250500Y285500D01*
X252000D01*
X252750Y284750D01*
Y283250D01*
X252000Y282500D02*X252750Y283250D01*
X250500Y282500D02*X252000D01*
X249750Y283250D02*X250500Y282500D01*
X255300Y288500D02*Y283250D01*
X256050Y282500D01*
X254550Y286250D02*X256050D01*
X259800Y285500D02*X260550Y284750D01*
X258300Y285500D02*X259800D01*
X257550Y284750D02*X258300Y285500D01*
X257550Y284750D02*Y283250D01*
X258300Y282500D01*
X260550Y285500D02*Y283250D01*
X261300Y282500D01*
X258300D02*X259800D01*
X260550Y283250D01*
X263100Y288500D02*Y283250D01*
X263850Y282500D01*
G54D15*X90000Y140000D02*X110000D01*
X120000Y150000D01*
X150000D01*
Y80000D02*Y150000D01*
X90000Y140000D02*X80000Y150000D01*
X50000D01*
Y80000D01*
X150000D01*
G54D13*X13675Y-9500D02*X16675D01*
X17425Y-8750D01*
Y-6950D02*Y-8750D01*
X16675Y-6200D02*X17425Y-6950D01*
X14425Y-6200D02*X16675D01*
X14425Y-3500D02*Y-9500D01*
X13675Y-3500D02*X16675D01*
X17425Y-4250D01*
Y-5450D01*
X16675Y-6200D02*X17425Y-5450D01*
X19225Y-7250D02*Y-8750D01*
Y-7250D02*X19975Y-6500D01*
X21475D01*
X22225Y-7250D01*
Y-8750D01*
X21475Y-9500D02*X22225Y-8750D01*
X19975Y-9500D02*X21475D01*
X19225Y-8750D02*X19975Y-9500D01*
X26275Y-6500D02*X27025Y-7250D01*
X24775Y-6500D02*X26275D01*
X24025Y-7250D02*X24775Y-6500D01*
X24025Y-7250D02*Y-8750D01*
X24775Y-9500D01*
X27025Y-6500D02*Y-8750D01*
X27775Y-9500D01*
X24775D02*X26275D01*
X27025Y-8750D01*
X30325Y-7250D02*Y-9500D01*
Y-7250D02*X31075Y-6500D01*
X32575D01*
X29575D02*X30325Y-7250D01*
X37375Y-3500D02*Y-9500D01*
X36625D02*X37375Y-8750D01*
X35125Y-9500D02*X36625D01*
X34375Y-8750D02*X35125Y-9500D01*
X34375Y-7250D02*Y-8750D01*
Y-7250D02*X35125Y-6500D01*
X36625D01*
X37375Y-7250D01*
X41875D02*Y-8750D01*
Y-7250D02*X42625Y-6500D01*
X44125D01*
X44875Y-7250D01*
Y-8750D01*
X44125Y-9500D02*X44875Y-8750D01*
X42625Y-9500D02*X44125D01*
X41875Y-8750D02*X42625Y-9500D01*
X46675Y-6500D02*Y-8750D01*
X47425Y-9500D01*
X48925D01*
X49675Y-8750D01*
Y-6500D02*Y-8750D01*
X52225Y-3500D02*Y-8750D01*
X52975Y-9500D01*
X51475Y-5750D02*X52975D01*
X54475Y-3500D02*Y-8750D01*
X55225Y-9500D01*
G54D14*X56725Y-5000D02*Y-5150D01*
G54D13*Y-7250D02*Y-9500D01*
X58975Y-7250D02*Y-9500D01*
Y-7250D02*X59725Y-6500D01*
X60475D01*
X61225Y-7250D01*
Y-9500D01*
X58225Y-6500D02*X58975Y-7250D01*
X63775Y-9500D02*X66025D01*
X63025Y-8750D02*X63775Y-9500D01*
X63025Y-7250D02*Y-8750D01*
Y-7250D02*X63775Y-6500D01*
X65275D01*
X66025Y-7250D01*
X63025Y-8000D02*X66025D01*
Y-7250D02*Y-8000D01*
G54D14*X70525Y-5000D02*Y-5150D01*
G54D13*Y-7250D02*Y-9500D01*
X72775D02*X75025D01*
X75775Y-8750D01*
X75025Y-8000D02*X75775Y-8750D01*
X72775Y-8000D02*X75025D01*
X72025Y-7250D02*X72775Y-8000D01*
X72025Y-7250D02*X72775Y-6500D01*
X75025D01*
X75775Y-7250D01*
X72025Y-8750D02*X72775Y-9500D01*
X81025Y-3500D02*Y-8750D01*
X81775Y-9500D01*
X80275Y-5750D02*X81775D01*
X83275Y-3500D02*Y-9500D01*
Y-7250D02*X84025Y-6500D01*
X85525D01*
X86275Y-7250D01*
Y-9500D01*
X88825D02*X91075D01*
X88075Y-8750D02*X88825Y-9500D01*
X88075Y-7250D02*Y-8750D01*
Y-7250D02*X88825Y-6500D01*
X90325D01*
X91075Y-7250D01*
X88075Y-8000D02*X91075D01*
Y-7250D02*Y-8000D01*
X96325Y-6500D02*X98575D01*
X95575Y-7250D02*X96325Y-6500D01*
X95575Y-7250D02*Y-8750D01*
X96325Y-9500D01*
X98575D01*
X101125D02*X103375D01*
X100375Y-8750D02*X101125Y-9500D01*
X100375Y-7250D02*Y-8750D01*
Y-7250D02*X101125Y-6500D01*
X102625D01*
X103375Y-7250D01*
X100375Y-8000D02*X103375D01*
Y-7250D02*Y-8000D01*
X105925Y-7250D02*Y-9500D01*
Y-7250D02*X106675Y-6500D01*
X107425D01*
X108175Y-7250D01*
Y-9500D01*
X105175Y-6500D02*X105925Y-7250D01*
X110725Y-3500D02*Y-8750D01*
X111475Y-9500D01*
X109975Y-5750D02*X111475D01*
X113725Y-9500D02*X115975D01*
X112975Y-8750D02*X113725Y-9500D01*
X112975Y-7250D02*Y-8750D01*
Y-7250D02*X113725Y-6500D01*
X115225D01*
X115975Y-7250D01*
X112975Y-8000D02*X115975D01*
Y-7250D02*Y-8000D01*
X118525Y-7250D02*Y-9500D01*
Y-7250D02*X119275Y-6500D01*
X120775D01*
X117775D02*X118525Y-7250D01*
X122575Y-3500D02*Y-8750D01*
X123325Y-9500D01*
G54D14*X124825Y-5000D02*Y-5150D01*
G54D13*Y-7250D02*Y-9500D01*
X127075Y-7250D02*Y-9500D01*
Y-7250D02*X127825Y-6500D01*
X128575D01*
X129325Y-7250D01*
Y-9500D01*
X126325Y-6500D02*X127075Y-7250D01*
X131875Y-9500D02*X134125D01*
X131125Y-8750D02*X131875Y-9500D01*
X131125Y-7250D02*Y-8750D01*
Y-7250D02*X131875Y-6500D01*
X133375D01*
X134125Y-7250D01*
X131125Y-8000D02*X134125D01*
Y-7250D02*Y-8000D01*
X138625Y-7250D02*Y-8750D01*
Y-7250D02*X139375Y-6500D01*
X140875D01*
X141625Y-7250D01*
Y-8750D01*
X140875Y-9500D02*X141625Y-8750D01*
X139375Y-9500D02*X140875D01*
X138625Y-8750D02*X139375Y-9500D01*
X144175Y-4250D02*Y-9500D01*
Y-4250D02*X144925Y-3500D01*
X145675D01*
X143425Y-6500D02*X144925D01*
X150625Y-3500D02*Y-8750D01*
X151375Y-9500D01*
X149875Y-5750D02*X151375D01*
X152875Y-3500D02*Y-9500D01*
Y-7250D02*X153625Y-6500D01*
X155125D01*
X155875Y-7250D01*
Y-9500D01*
G54D14*X157675Y-5000D02*Y-5150D01*
G54D13*Y-7250D02*Y-9500D01*
X159925D02*X162175D01*
X162925Y-8750D01*
X162175Y-8000D02*X162925Y-8750D01*
X159925Y-8000D02*X162175D01*
X159175Y-7250D02*X159925Y-8000D01*
X159175Y-7250D02*X159925Y-6500D01*
X162175D01*
X162925Y-7250D01*
X159175Y-8750D02*X159925Y-9500D01*
X168175Y-7250D02*Y-11750D01*
X167425Y-6500D02*X168175Y-7250D01*
X168925Y-6500D01*
X170425D01*
X171175Y-7250D01*
Y-8750D01*
X170425Y-9500D02*X171175Y-8750D01*
X168925Y-9500D02*X170425D01*
X168175Y-8750D02*X168925Y-9500D01*
X175225Y-6500D02*X175975Y-7250D01*
X173725Y-6500D02*X175225D01*
X172975Y-7250D02*X173725Y-6500D01*
X172975Y-7250D02*Y-8750D01*
X173725Y-9500D01*
X175975Y-6500D02*Y-8750D01*
X176725Y-9500D01*
X173725D02*X175225D01*
X175975Y-8750D01*
X179275Y-3500D02*Y-8750D01*
X180025Y-9500D01*
X178525Y-5750D02*X180025D01*
X181525Y-3500D02*Y-9500D01*
Y-7250D02*X182275Y-6500D01*
X183775D01*
X184525Y-7250D01*
Y-9500D01*
X200750Y228500D02*Y222500D01*
X202700Y228500D02*X203750Y227450D01*
Y223550D01*
X202700Y222500D02*X203750Y223550D01*
X200000Y222500D02*X202700D01*
X200000Y228500D02*X202700D01*
X207800Y225500D02*X208550Y224750D01*
X206300Y225500D02*X207800D01*
X205550Y224750D02*X206300Y225500D01*
X205550Y224750D02*Y223250D01*
X206300Y222500D01*
X208550Y225500D02*Y223250D01*
X209300Y222500D01*
X206300D02*X207800D01*
X208550Y223250D01*
X211850Y228500D02*Y223250D01*
X212600Y222500D01*
X211100Y226250D02*X212600D01*
X214850Y222500D02*X217100D01*
X214100Y223250D02*X214850Y222500D01*
X214100Y224750D02*Y223250D01*
Y224750D02*X214850Y225500D01*
X216350D01*
X217100Y224750D01*
X214100Y224000D02*X217100D01*
Y224750D02*Y224000D01*
X218900Y226250D02*X219650D01*
X218900Y224750D02*X219650D01*
X227150Y228500D02*X227900Y227750D01*
X224900Y228500D02*X227150D01*
X224150Y227750D02*X224900Y228500D01*
X224150Y227750D02*Y226250D01*
X224900Y225500D01*
X227150D01*
X227900Y224750D01*
Y223250D01*
X227150Y222500D02*X227900Y223250D01*
X224900Y222500D02*X227150D01*
X224150Y223250D02*X224900Y222500D01*
X229700Y225500D02*Y223250D01*
X230450Y222500D01*
X231950D01*
X232700Y223250D01*
Y225500D02*Y223250D01*
X235250Y224750D02*Y222500D01*
Y224750D02*X236000Y225500D01*
X236750D01*
X237500Y224750D01*
Y222500D01*
X234500Y225500D02*X235250Y224750D01*
X242000Y227000D02*Y222500D01*
Y227000D02*X243050Y228500D01*
X244700D01*
X245750Y227000D01*
Y222500D01*
X242000Y225500D02*X245750D01*
X248300Y224750D02*Y220250D01*
X247550Y225500D02*X248300Y224750D01*
X249050Y225500D01*
X250550D01*
X251300Y224750D01*
Y223250D01*
X250550Y222500D02*X251300Y223250D01*
X249050Y222500D02*X250550D01*
X248300Y223250D02*X249050Y222500D01*
X253850Y224750D02*Y222500D01*
Y224750D02*X254600Y225500D01*
X256100D01*
X253100D02*X253850Y224750D01*
X263300Y227750D02*X264050Y228500D01*
X266300D01*
X267050Y227750D01*
Y226250D01*
X263300Y222500D02*X267050Y226250D01*
X263300Y222500D02*X267050D01*
X271550Y227300D02*X272750Y228500D01*
Y222500D01*
X271550D02*X273800D01*
X276350D02*X278600Y225500D01*
Y227750D02*Y225500D01*
X277850Y228500D02*X278600Y227750D01*
X276350Y228500D02*X277850D01*
X275600Y227750D02*X276350Y228500D01*
X275600Y227750D02*Y226250D01*
X276350Y225500D01*
X278600D01*
X280400Y226250D02*X281150D01*
X280400Y224750D02*X281150D01*
X282950Y227750D02*X283700Y228500D01*
X285200D01*
X285950Y227750D01*
X285200Y222500D02*X285950Y223250D01*
X283700Y222500D02*X285200D01*
X282950Y223250D02*X283700Y222500D01*
Y225800D02*X285200D01*
X285950Y227750D02*Y226550D01*
Y225050D02*Y223250D01*
Y225050D02*X285200Y225800D01*
X285950Y226550D02*X285200Y225800D01*
X287750Y227300D02*X288950Y228500D01*
Y222500D01*
X287750D02*X290000D01*
X291800Y226250D02*X292550D01*
X291800Y224750D02*X292550D01*
X294350Y227750D02*X295100Y228500D01*
X296600D01*
X297350Y227750D01*
X296600Y222500D02*X297350Y223250D01*
X295100Y222500D02*X296600D01*
X294350Y223250D02*X295100Y222500D01*
Y225800D02*X296600D01*
X297350Y227750D02*Y226550D01*
Y225050D02*Y223250D01*
Y225050D02*X296600Y225800D01*
X297350Y226550D02*X296600Y225800D01*
X299900Y222500D02*X302900Y228500D01*
X299150D02*X302900D01*
X307400Y227750D02*X308150Y228500D01*
X310400D01*
X311150Y227750D01*
Y226250D01*
X307400Y222500D02*X311150Y226250D01*
X307400Y222500D02*X311150D01*
X312950Y223250D02*X313700Y222500D01*
X312950Y227750D02*Y223250D01*
Y227750D02*X313700Y228500D01*
X315200D01*
X315950Y227750D01*
Y223250D01*
X315200Y222500D02*X315950Y223250D01*
X313700Y222500D02*X315200D01*
X312950Y224000D02*X315950Y227000D01*
X317750Y227300D02*X318950Y228500D01*
Y222500D01*
X317750D02*X320000D01*
X322550D02*X325550Y228500D01*
X321800D02*X325550D01*
X330050D02*Y223250D01*
X330800Y222500D01*
X332300D01*
X333050Y223250D01*
Y228500D02*Y223250D01*
X334850Y228500D02*X337850D01*
X336350D02*Y222500D01*
X340700D02*X342650D01*
X339650Y223550D02*X340700Y222500D01*
X339650Y227450D02*Y223550D01*
Y227450D02*X340700Y228500D01*
X342650D01*
X200000Y242000D02*Y237500D01*
Y242000D02*X201050Y243500D01*
X202700D01*
X203750Y242000D01*
Y237500D01*
X200000Y240500D02*X203750D01*
X205550D02*Y238250D01*
X206300Y237500D01*
X207800D01*
X208550Y238250D01*
Y240500D02*Y238250D01*
X211100Y243500D02*Y238250D01*
X211850Y237500D01*
X210350Y241250D02*X211850D01*
X213350Y243500D02*Y237500D01*
Y239750D02*X214100Y240500D01*
X215600D01*
X216350Y239750D01*
Y237500D01*
X218150Y239750D02*Y238250D01*
Y239750D02*X218900Y240500D01*
X220400D01*
X221150Y239750D01*
Y238250D01*
X220400Y237500D02*X221150Y238250D01*
X218900Y237500D02*X220400D01*
X218150Y238250D02*X218900Y237500D01*
X223700Y239750D02*Y237500D01*
Y239750D02*X224450Y240500D01*
X225950D01*
X222950D02*X223700Y239750D01*
X227750Y241250D02*X228500D01*
X227750Y239750D02*X228500D01*
X233000Y243500D02*Y237500D01*
Y243500D02*X236000D01*
X233000Y240800D02*X235250D01*
X240050Y240500D02*X240800Y239750D01*
X238550Y240500D02*X240050D01*
X237800Y239750D02*X238550Y240500D01*
X237800Y239750D02*Y238250D01*
X238550Y237500D01*
X240800Y240500D02*Y238250D01*
X241550Y237500D01*
X238550D02*X240050D01*
X240800Y238250D01*
X243350Y243500D02*Y237500D01*
Y238250D02*X244100Y237500D01*
X245600D01*
X246350Y238250D01*
Y239750D02*Y238250D01*
X245600Y240500D02*X246350Y239750D01*
X244100Y240500D02*X245600D01*
X243350Y239750D02*X244100Y240500D01*
X248150Y237500D02*X251150D01*
X252950Y242000D02*Y237500D01*
Y242000D02*X254000Y243500D01*
X255650D01*
X256700Y242000D01*
Y237500D01*
X252950Y240500D02*X256700D01*
X258500D02*Y238250D01*
X259250Y237500D01*
X260750D01*
X261500Y238250D01*
Y240500D02*Y238250D01*
X264050Y243500D02*Y238250D01*
X264800Y237500D01*
X263300Y241250D02*X264800D01*
X266300Y243500D02*Y237500D01*
Y239750D02*X267050Y240500D01*
X268550D01*
X269300Y239750D01*
Y237500D01*
X271100Y239750D02*Y238250D01*
Y239750D02*X271850Y240500D01*
X273350D01*
X274100Y239750D01*
Y238250D01*
X273350Y237500D02*X274100Y238250D01*
X271850Y237500D02*X273350D01*
X271100Y238250D02*X271850Y237500D01*
X276650Y239750D02*Y237500D01*
Y239750D02*X277400Y240500D01*
X278900D01*
X275900D02*X276650Y239750D01*
X200000Y258500D02*X203000D01*
X201500D02*Y252500D01*
G54D14*X204800Y257000D02*Y256850D01*
G54D13*Y254750D02*Y252500D01*
X207050Y258500D02*Y253250D01*
X207800Y252500D01*
X206300Y256250D02*X207800D01*
X209300Y258500D02*Y253250D01*
X210050Y252500D01*
X212300D02*X214550D01*
X211550Y253250D02*X212300Y252500D01*
X211550Y254750D02*Y253250D01*
Y254750D02*X212300Y255500D01*
X213800D01*
X214550Y254750D01*
X211550Y254000D02*X214550D01*
Y254750D02*Y254000D01*
X216350Y256250D02*X217100D01*
X216350Y254750D02*X217100D01*
X221600Y257750D02*Y253250D01*
Y257750D02*X222350Y258500D01*
X223850D01*
X224600Y257750D01*
Y253250D01*
X223850Y252500D02*X224600Y253250D01*
X222350Y252500D02*X223850D01*
X221600Y253250D02*X222350Y252500D01*
X226400Y255500D02*Y253250D01*
X227150Y252500D01*
X228650D01*
X229400Y253250D01*
Y255500D02*Y253250D01*
X231950Y258500D02*Y253250D01*
X232700Y252500D01*
X231200Y256250D02*X232700D01*
X234200Y258500D02*Y253250D01*
X234950Y252500D01*
G54D14*X236450Y257000D02*Y256850D01*
G54D13*Y254750D02*Y252500D01*
X238700Y254750D02*Y252500D01*
Y254750D02*X239450Y255500D01*
X240200D01*
X240950Y254750D01*
Y252500D01*
X237950Y255500D02*X238700Y254750D01*
X243500Y252500D02*X245750D01*
X242750Y253250D02*X243500Y252500D01*
X242750Y254750D02*Y253250D01*
Y254750D02*X243500Y255500D01*
X245000D01*
X245750Y254750D01*
X242750Y254000D02*X245750D01*
Y254750D02*Y254000D01*
X250250Y255500D02*X253250D01*
X257750Y258500D02*Y252500D01*
Y258500D02*X260750D01*
X257750Y255800D02*X260000D01*
X264800Y255500D02*X265550Y254750D01*
X263300Y255500D02*X264800D01*
X262550Y254750D02*X263300Y255500D01*
X262550Y254750D02*Y253250D01*
X263300Y252500D01*
X265550Y255500D02*Y253250D01*
X266300Y252500D01*
X263300D02*X264800D01*
X265550Y253250D01*
X268100Y258500D02*Y252500D01*
Y253250D02*X268850Y252500D01*
X270350D01*
X271100Y253250D01*
Y254750D02*Y253250D01*
X270350Y255500D02*X271100Y254750D01*
X268850Y255500D02*X270350D01*
X268100Y254750D02*X268850Y255500D01*
X273650Y254750D02*Y252500D01*
Y254750D02*X274400Y255500D01*
X275900D01*
X272900D02*X273650Y254750D01*
G54D14*X277700Y257000D02*Y256850D01*
G54D13*Y254750D02*Y252500D01*
X279950Y255500D02*X282200D01*
X279200Y254750D02*X279950Y255500D01*
X279200Y254750D02*Y253250D01*
X279950Y252500D01*
X282200D01*
X286250Y255500D02*X287000Y254750D01*
X284750Y255500D02*X286250D01*
X284000Y254750D02*X284750Y255500D01*
X284000Y254750D02*Y253250D01*
X284750Y252500D01*
X287000Y255500D02*Y253250D01*
X287750Y252500D01*
X284750D02*X286250D01*
X287000Y253250D01*
X290300Y258500D02*Y253250D01*
X291050Y252500D01*
X289550Y256250D02*X291050D01*
G54D14*X292550Y257000D02*Y256850D01*
G54D13*Y254750D02*Y252500D01*
X294050Y254750D02*Y253250D01*
Y254750D02*X294800Y255500D01*
X296300D01*
X297050Y254750D01*
Y253250D01*
X296300Y252500D02*X297050Y253250D01*
X294800Y252500D02*X296300D01*
X294050Y253250D02*X294800Y252500D01*
X299600Y254750D02*Y252500D01*
Y254750D02*X300350Y255500D01*
X301100D01*
X301850Y254750D01*
Y252500D01*
X298850Y255500D02*X299600Y254750D01*
X307100Y258500D02*Y252500D01*
X309050Y258500D02*X310100Y257450D01*
Y253550D01*
X309050Y252500D02*X310100Y253550D01*
X306350Y252500D02*X309050D01*
X306350Y258500D02*X309050D01*
X312650Y254750D02*Y252500D01*
Y254750D02*X313400Y255500D01*
X314900D01*
X311900D02*X312650Y254750D01*
X318950Y255500D02*X319700Y254750D01*
X317450Y255500D02*X318950D01*
X316700Y254750D02*X317450Y255500D01*
X316700Y254750D02*Y253250D01*
X317450Y252500D01*
X319700Y255500D02*Y253250D01*
X320450Y252500D01*
X317450D02*X318950D01*
X319700Y253250D01*
X322250Y255500D02*Y253250D01*
X323000Y252500D01*
X323750D01*
X324500Y253250D01*
Y255500D02*Y253250D01*
X325250Y252500D01*
X326000D01*
X326750Y253250D01*
Y255500D02*Y253250D01*
G54D14*X328550Y257000D02*Y256850D01*
G54D13*Y254750D02*Y252500D01*
X330800Y254750D02*Y252500D01*
Y254750D02*X331550Y255500D01*
X332300D01*
X333050Y254750D01*
Y252500D01*
X330050Y255500D02*X330800Y254750D01*
X337100Y255500D02*X337850Y254750D01*
X335600Y255500D02*X337100D01*
X334850Y254750D02*X335600Y255500D01*
X334850Y254750D02*Y253250D01*
X335600Y252500D01*
X337100D01*
X337850Y253250D01*
X334850Y251000D02*X335600Y250250D01*
X337100D01*
X337850Y251000D01*
Y255500D02*Y251000D01*
M02*
