/* XPM */
static char * pcb_xpm[] = {
"32 32 322 2",
"  	c None",
". 	c #3B7305",
"+ 	c #3B7403",
"@ 	c #A0C081",
"# 	c #C5DEAD",
"$ 	c #C2D9AC",
"% 	c #C4DDAC",
"& 	c #C9DFB4",
"* 	c #3C7303",
"= 	c #C1D9AB",
"- 	c #4E9A06",
"; 	c #50A005",
"> 	c #57B103",
", 	c #55AC03",
"' 	c #4E9B06",
") 	c #54AA04",
"! 	c #4F9B06",
"~ 	c #54A804",
"{ 	c #B9D79C",
"] 	c #4C7E1A",
"^ 	c #D4680C",
"/ 	c #3A7206",
"( 	c #C0D7AB",
"_ 	c #489005",
": 	c #52A105",
"< 	c #4C9804",
"[ 	c #57B003",
"} 	c #53A803",
"| 	c #55AC04",
"1 	c #478E05",
"2 	c #5ABA02",
"3 	c #59B602",
"4 	c #A9CA8A",
"5 	c #5A8A2D",
"6 	c #DF8128",
"7 	c #FCC068",
"8 	c #E99943",
"9 	c #387103",
"0 	c #C3DBAC",
"a 	c #5AB902",
"b 	c #5DC101",
"c 	c #5EC201",
"d 	c #56AD04",
"e 	c #54A904",
"f 	c #5BBB02",
"g 	c #59B702",
"h 	c #9FC878",
"i 	c #8E842C",
"j 	c #E08229",
"k 	c #FCBD60",
"l 	c #F6A537",
"m 	c #EDA657",
"n 	c #D06309",
"o 	c #397007",
"p 	c #C3DAAE",
"q 	c #59B901",
"r 	c #5FC500",
"s 	c #5DC100",
"t 	c #4C9904",
"u 	c #59B802",
"v 	c #478F05",
"w 	c #5AB702",
"x 	c #A49F48",
"y 	c #D8842C",
"z 	c #FCBC5F",
"A 	c #EC9D47",
"B 	c #D67420",
"C 	c #40720F",
"D 	c #C0DBA6",
"E 	c #5CBD01",
"F 	c #5FC300",
"G 	c #52A604",
"H 	c #59B502",
"I 	c #509E05",
"J 	c #58B203",
"K 	c #788906",
"L 	c #D9872E",
"M 	c #D67520",
"N 	c #527E25",
"O 	c #B0CE93",
"P 	c #5BBE01",
"Q 	c #4C9A04",
"R 	c #4A9305",
"S 	c #58B303",
"T 	c #4A9604",
"U 	c #56AE03",
"V 	c #738105",
"W 	c #D48427",
"X 	c #FCBC5E",
"Y 	c #EC9D46",
"Z 	c #D77521",
"` 	c #618939",
" .	c #A6CC82",
"..	c #62C10A",
"+.	c #A5CB80",
"@.	c #BAD99C",
"#.	c #B9D49D",
"$.	c #BCD99E",
"%.	c #BAD69E",
"&.	c #BCD89E",
"*.	c #BBD79E",
"=.	c #66A727",
"-.	c #F6A538",
";.	c #EC9C46",
">.	c #D57521",
",.	c #71954E",
"'.	c #96BF71",
").	c #5CC000",
"!.	c #AEDA83",
"~.	c #6BAA2F",
"{.	c #58AD07",
"].	c #529F0A",
"^.	c #56AA08",
"/.	c #54A30C",
"(.	c #55A706",
"_.	c #57A70F",
":.	c #61AD1A",
"<.	c #AFC995",
"[.	c #D48528",
"}.	c #D47B2A",
"|.	c #AA5D04",
"1.	c #7F9F5F",
"2.	c #8DBE5F",
"3.	c #51A205",
"4.	c #BEDF9E",
"5.	c #74A844",
"6.	c #72A93E",
"7.	c #78AA4A",
"8.	c #6CA635",
"9.	c #7FAC54",
"0.	c #65A42C",
"a.	c #88AE62",
"b.	c #66A42B",
"c.	c #B1CE94",
"d.	c #CD7921",
"e.	c #C2A364",
"f.	c #8CA971",
"g.	c #7AAD4B",
"h.	c #53A704",
"i.	c #5FC400",
"j.	c #BFDF9F",
"k.	c #539317",
"l.	c #559D12",
"m.	c #55941B",
"n.	c #549C10",
"o.	c #549319",
"p.	c #509A0A",
"q.	c #57951E",
"r.	c #67A62C",
"s.	c #AFA357",
"t.	c #CD7920",
"u.	c #7C7A03",
"v.	c #C1D6AC",
"w.	c #9CB682",
"x.	c #73AF3B",
"y.	c #60C502",
"z.	c #BDDD9C",
"A.	c #93972D",
"B.	c #D98830",
"C.	c #818204",
"D.	c #C2D8AD",
"E.	c #A8C191",
"F.	c #619E28",
"G.	c #6BC815",
"H.	c #AFD789",
"I.	c #8D8F1F",
"J.	c #DA8833",
"K.	c #EC9C45",
"L.	c #7B7A03",
"M.	c #4C9506",
"N.	c #448905",
"O.	c #C1D7AC",
"P.	c #375E13",
"Q.	c #B7CCA2",
"R.	c #5AA118",
"S.	c #5BB802",
"T.	c #7BCD2E",
"U.	c #9FCF73",
"V.	c #79A84E",
"W.	c #7EA953",
"X.	c #81AB59",
"Y.	c #DCAA5C",
"Z.	c #FDF4E6",
"`.	c #F9BD6E",
" +	c #CC7821",
".+	c #7B7403",
"++	c #448505",
"@+	c #468A05",
"#+	c #499006",
"$+	c #C0D7AA",
"%+	c #395E14",
"&+	c #C1D5AE",
"*+	c #5BBB01",
"=+	c #87D043",
"-+	c #8FC65C",
";+	c #81B056",
">+	c #82B256",
",+	c #81B154",
"'+	c #629E13",
")+	c #E8BC7E",
"!+	c #F7E6CD",
"~+	c #EFC78E",
"{+	c #CF7E28",
"]+	c #726503",
"^+	c #3D7A05",
"/+	c #3A7604",
"(+	c #448605",
"_+	c #418205",
":+	c #B9D29F",
"<+	c #355716",
"[+	c #BBD2A5",
"}+	c #71C81F",
"|+	c #BFD7A7",
"1+	c #8AC850",
"2+	c #83B653",
"3+	c #8AC950",
"4+	c #86B956",
"5+	c #94CC5F",
"6+	c #6F6439",
"7+	c #A27D49",
"8+	c #E1AA5F",
"9+	c #CF9E4A",
"0+	c #88791B",
"a+	c #3B7405",
"b+	c #407F05",
"c+	c #458806",
"d+	c #488E06",
"e+	c #4A9206",
"f+	c #ABCD8B",
"g+	c #3E5F1F",
"h+	c #375919",
"i+	c #B3CE98",
"j+	c #5DC001",
"k+	c #5BBC01",
"l+	c #53A703",
"m+	c #69B028",
"n+	c #88C450",
"o+	c #84B852",
"p+	c #87C350",
"q+	c #7EB54A",
"r+	c #80C640",
"s+	c #58642D",
"t+	c #647A32",
"u+	c #468708",
"v+	c #418105",
"w+	c #458905",
"x+	c #4B9506",
"y+	c #9BC473",
"z+	c #4D6A31",
"A+	c #375718",
"B+	c #ACCC8E",
"C+	c #56AF03",
"D+	c #5BB902",
"E+	c #55AD03",
"F+	c #53A604",
"G+	c #4E9906",
"H+	c #8CBE5E",
"I+	c #58743E",
"J+	c #37551B",
"K+	c #A4C981",
"L+	c #4FA103",
"M+	c #4F9F03",
"N+	c #499105",
"O+	c #499404",
"P+	c #7EB549",
"Q+	c #5E7944",
"R+	c #334E1A",
"S+	c #93B770",
"T+	c #418005",
"U+	c #428105",
"V+	c #438107",
"W+	c #448309",
"X+	c #47830B",
"Y+	c #48840E",
"Z+	c #4A8610",
"`+	c #4C8711",
" @	c #4C8813",
".@	c #4D8915",
"+@	c #508A17",
"@@	c #518A18",
"#@	c #528C1A",
"$@	c #528D1B",
"%@	c #558D1D",
"&@	c #558E1F",
"*@	c #568E20",
"=@	c #578F20",
"-@	c #589022",
";@	c #589122",
">@	c #7CA851",
",@	c #627D4A",
"'@	c #283C15",
")@	c #A3C087",
"!@	c #659535",
"~@	c #669637",
"{@	c #67963A",
"]@	c #6A973C",
"^@	c #6A983F",
"/@	c #6C9941",
"(@	c #6E9A43",
"_@	c #6F9A45",
":@	c #6F9B47",
"<@	c #719B4A",
"[@	c #729B4A",
"}@	c #749C4C",
"|@	c #749D4E",
"1@	c #769D50",
"2@	c #779D51",
"3@	c #789D52",
"4@	c #789E53",
"5@	c #789E54",
"6@	c #96B37A",
"7@	c #5F744A",
"8@	c #705914",
"9@	c #A07A1E",
"0@	c #9E791D",
"a@	c #9E791E",
"b@	c #9E791F",
"c@	c #A0791F",
"d@	c #A0781F",
"e@	c #A07821",
"f@	c #A07721",
"g@	c #946A19",
"                                                                ",
"                                                                ",
"                                                                ",
"                                                                ",
"                                                                ",
"                                                                ",
"                                                                ",
"            . . . . . . . . . . . . . . . . . . . +             ",
"          @ # $ % $ % $ % $ % $ % $ % $ % $ % $ % & *           ",
"          = - ; > > , - ' ) - ! ) - ~ - - - - - - { ]     ^     ",
"        / ( - _ : < [ } - } | 1 2 1 3 1 - 1 - 1 - 4 5   6 7 8   ",
"        9 0 - a b c d > e - f - g - g - - - - - - h i j k l m n ",
"        o p - q r r s t f 1 g 1 u v w 1 - 1 - 1 - x y z l A B   ",
"        C D - E r r F G w ' w ! H I J - - - - - K L z l A M     ",
"        N O - P r r c Q H R S T > t U 1 - 1 - V W X l Y Z       ",
"        `  .' b r r ..+.@.#.$.%.&.*.{ =.- - K W X -.;.>.        ",
"        ,.'.I ).r r !.~.{.].^./.(._.:.<.- V [.X -.;.}.|.        ",
"        1.2.3.b r r 4.5.6.7.8.9.0.a.b.c.K [.X -.;.d.e.          ",
"        f.g.h.i.r r j.k.l.m.n.o.p.q.r.s.[.X -.;.t.u.v.          ",
"        w.x.| r r y.z.- - - - - - - A.B.X -.;.t.C.- D.          ",
"        E.F.S r r G.H.1 - 1 - 1 - I.J.X l K.d.L.M.N.O.P.        ",
"        Q.R.S.r r T.U.V.- W.- X.- Y.Z.`.K. +.+++@+#+$+%+        ",
"        &+1 *+r r =+-+;+- >+- ,+'+)+!+~+{+]+^+/+(+_+:+<+        ",
"        [+- E r r }+|+1+2+3+4+5+6+7+8+9+0+a+b+c+d+e+f+g+        ",
"      h+i+1 j+k+j+l+m+n+o+p+q+r+s+t+u+v+e+w+x+N.x+N.y+z+        ",
"      A+B+- G e e U 3 ! 3.C+- h.D+E+U F+- - G+G+G+- H+I+        ",
"      J+K+1 h.L+e M+- 1 - N+- 1 3.t 3.O+- 1 - 1 - 1 P+Q+        ",
"      R+S+T+T+U+V+W+X+Y+Z+`+ @.@+@@@#@$@%@&@*@=@-@;@>@,@        ",
"      '@)@!@!@!@~@{@]@^@/@(@_@:@<@[@}@|@1@1@2@3@4@5@6@7@        ",
"      8@9@0@0@0@0@a@a@a@a@b@c@c@d@c@d@e@e@e@e@e@e@e@f@g@        ",
"                                                                ",
"                                                                "};
