G04 start of page 7 for group -3984 idx -3984 *
G04 Title: (unknown), fab *
G04 Creator: pcb 1.99z *
G04 CreationDate: Fri Jun 17 03:18:51 2011 UTC *
G04 For: apoelstra *
G04 Format: Gerber/RS-274X *
G04 PCB-Dimensions: 3000000 2000000 *
G04 PCB-Coordinate-Origin: lower left *
%MOIN*%
%FSLAX25Y25*%
%LNFAB*%
%ADD37C,0.0100*%
%ADD36C,0.0060*%
%ADD35C,0.0080*%
G54D35*X600000Y451600D02*Y448400D01*
X598400Y450000D02*X601600D01*
X450000Y601600D02*Y598400D01*
X448400Y600000D02*X451600D01*
X600000Y601600D02*Y598400D01*
X598400Y600000D02*X601600D01*
X450000Y451600D02*Y448400D01*
X448400Y450000D02*X451600D01*
X15000Y2042850D02*Y2039650D01*
X13400Y2041250D02*X16600D01*
G54D36*X135000Y2043500D02*Y2042750D01*
X136500Y2041250D01*
X138000Y2042750D01*
Y2043500D02*Y2042750D01*
X136500Y2041250D02*Y2037500D01*
X139801Y2040500D02*X142051D01*
X139801Y2037500D02*X142801D01*
X139801Y2043500D02*Y2037500D01*
Y2043500D02*X142801D01*
X147603D02*X148353Y2042750D01*
X145353Y2043500D02*X147603D01*
X144603Y2042750D02*X145353Y2043500D01*
X144603Y2042750D02*Y2041250D01*
X145353Y2040500D01*
X147603D01*
X148353Y2039750D01*
Y2038250D01*
X147603Y2037500D02*X148353Y2038250D01*
X145353Y2037500D02*X147603D01*
X144603Y2038250D02*X145353Y2037500D01*
X135000Y2034249D02*X150154D01*
X98000Y2040500D02*X101000Y2043500D01*
X98000Y2040500D02*X101750D01*
X101000Y2043500D02*Y2037500D01*
X98000Y2034249D02*X103551D01*
X45000Y2038250D02*X45750Y2037500D01*
X45000Y2042750D02*Y2038250D01*
Y2042750D02*X45750Y2043500D01*
X47250D01*
X48000Y2042750D01*
Y2038250D01*
X47250Y2037500D02*X48000Y2038250D01*
X45750Y2037500D02*X47250D01*
X45000Y2039000D02*X48000Y2042000D01*
X49801Y2037500D02*X50551D01*
X52353Y2043500D02*X55353D01*
X52353D02*Y2040500D01*
X53103Y2041250D01*
X54603D01*
X55353Y2040500D01*
Y2038250D01*
X54603Y2037500D02*X55353Y2038250D01*
X53103Y2037500D02*X54603D01*
X52353Y2038250D02*X53103Y2037500D01*
X57154Y2038250D02*X57904Y2037500D01*
X57154Y2042750D02*Y2038250D01*
Y2042750D02*X57904Y2043500D01*
X59404D01*
X60154Y2042750D01*
Y2038250D01*
X59404Y2037500D02*X60154Y2038250D01*
X57904Y2037500D02*X59404D01*
X57154Y2039000D02*X60154Y2042000D01*
X61956Y2038250D02*X62706Y2037500D01*
X61956Y2042750D02*Y2038250D01*
Y2042750D02*X62706Y2043500D01*
X64206D01*
X64956Y2042750D01*
Y2038250D01*
X64206Y2037500D02*X64956Y2038250D01*
X62706Y2037500D02*X64206D01*
X61956Y2039000D02*X64956Y2042000D01*
X45000Y2034249D02*X66757D01*
X600000Y290000D02*Y288400D01*
Y290000D02*X601386Y290800D01*
X600000Y290000D02*X598614Y290800D01*
X450000Y290000D02*Y288400D01*
Y290000D02*X451386Y290800D01*
X450000Y290000D02*X448614Y290800D01*
X15000Y2056250D02*Y2054650D01*
Y2056250D02*X16386Y2057050D01*
X15000Y2056250D02*X13614Y2057050D01*
X135000Y2058500D02*Y2057750D01*
X136500Y2056250D01*
X138000Y2057750D01*
Y2058500D02*Y2057750D01*
X136500Y2056250D02*Y2052500D01*
X139801Y2055500D02*X142051D01*
X139801Y2052500D02*X142801D01*
X139801Y2058500D02*Y2052500D01*
Y2058500D02*X142801D01*
X147603D02*X148353Y2057750D01*
X145353Y2058500D02*X147603D01*
X144603Y2057750D02*X145353Y2058500D01*
X144603Y2057750D02*Y2056250D01*
X145353Y2055500D01*
X147603D01*
X148353Y2054750D01*
Y2053250D01*
X147603Y2052500D02*X148353Y2053250D01*
X145353Y2052500D02*X147603D01*
X144603Y2053250D02*X145353Y2052500D01*
X135000Y2049249D02*X150154D01*
X98000Y2057750D02*X98750Y2058500D01*
X101000D01*
X101750Y2057750D01*
Y2056250D01*
X98000Y2052500D02*X101750Y2056250D01*
X98000Y2052500D02*X101750D01*
X98000Y2049249D02*X103551D01*
X45000Y2053250D02*X45750Y2052500D01*
X45000Y2057750D02*Y2053250D01*
Y2057750D02*X45750Y2058500D01*
X47250D01*
X48000Y2057750D01*
Y2053250D01*
X47250Y2052500D02*X48000Y2053250D01*
X45750Y2052500D02*X47250D01*
X45000Y2054000D02*X48000Y2057000D01*
X49801Y2052500D02*X50551D01*
X52353Y2057750D02*X53103Y2058500D01*
X55353D01*
X56103Y2057750D01*
Y2056250D01*
X52353Y2052500D02*X56103Y2056250D01*
X52353Y2052500D02*X56103D01*
X57904Y2058500D02*X60904D01*
X57904D02*Y2055500D01*
X58654Y2056250D01*
X60154D01*
X60904Y2055500D01*
Y2053250D01*
X60154Y2052500D02*X60904Y2053250D01*
X58654Y2052500D02*X60154D01*
X57904Y2053250D02*X58654Y2052500D01*
X62706Y2053250D02*X63456Y2052500D01*
X62706Y2057750D02*Y2053250D01*
Y2057750D02*X63456Y2058500D01*
X64956D01*
X65706Y2057750D01*
Y2053250D01*
X64956Y2052500D02*X65706Y2053250D01*
X63456Y2052500D02*X64956D01*
X62706Y2054000D02*X65706Y2057000D01*
X45000Y2049249D02*X67507D01*
X3000Y2073500D02*X3750Y2072750D01*
X750Y2073500D02*X3000D01*
X0Y2072750D02*X750Y2073500D01*
X0Y2072750D02*Y2071250D01*
X750Y2070500D01*
X3000D01*
X3750Y2069750D01*
Y2068250D01*
X3000Y2067500D02*X3750Y2068250D01*
X750Y2067500D02*X3000D01*
X0Y2068250D02*X750Y2067500D01*
X5551Y2070500D02*Y2068250D01*
X6301Y2067500D01*
X8551Y2070500D02*Y2066000D01*
X7801Y2065250D02*X8551Y2066000D01*
X6301Y2065250D02*X7801D01*
X5551Y2066000D02*X6301Y2065250D01*
Y2067500D02*X7801D01*
X8551Y2068250D01*
X11103Y2069750D02*Y2067500D01*
Y2069750D02*X11853Y2070500D01*
X12603D01*
X13353Y2069750D01*
Y2067500D01*
Y2069750D02*X14103Y2070500D01*
X14853D01*
X15603Y2069750D01*
Y2067500D01*
X10353Y2070500D02*X11103Y2069750D01*
X17404Y2073500D02*Y2067500D01*
Y2068250D02*X18154Y2067500D01*
X19654D01*
X20404Y2068250D01*
Y2069750D02*Y2068250D01*
X19654Y2070500D02*X20404Y2069750D01*
X18154Y2070500D02*X19654D01*
X17404Y2069750D02*X18154Y2070500D01*
X22206Y2069750D02*Y2068250D01*
Y2069750D02*X22956Y2070500D01*
X24456D01*
X25206Y2069750D01*
Y2068250D01*
X24456Y2067500D02*X25206Y2068250D01*
X22956Y2067500D02*X24456D01*
X22206Y2068250D02*X22956Y2067500D01*
X27007Y2073500D02*Y2068250D01*
X27757Y2067500D01*
X41750Y2073500D02*Y2067500D01*
X44000Y2073500D02*X44750Y2072750D01*
Y2068250D01*
X44000Y2067500D02*X44750Y2068250D01*
X41000Y2067500D02*X44000D01*
X41000Y2073500D02*X44000D01*
X46551Y2072000D02*Y2071250D01*
Y2069750D02*Y2067500D01*
X50303Y2070500D02*X51053Y2069750D01*
X48803Y2070500D02*X50303D01*
X48053Y2069750D02*X48803Y2070500D01*
X48053Y2069750D02*Y2068250D01*
X48803Y2067500D01*
X51053Y2070500D02*Y2068250D01*
X51803Y2067500D01*
X48803D02*X50303D01*
X51053Y2068250D01*
X54354Y2069750D02*Y2067500D01*
Y2069750D02*X55104Y2070500D01*
X55854D01*
X56604Y2069750D01*
Y2067500D01*
Y2069750D02*X57354Y2070500D01*
X58104D01*
X58854Y2069750D01*
Y2067500D01*
X53604Y2070500D02*X54354Y2069750D01*
X60656Y2067500D02*X61406D01*
X65907Y2068250D02*X66657Y2067500D01*
X65907Y2072750D02*X66657Y2073500D01*
X65907Y2072750D02*Y2068250D01*
X68459Y2073500D02*X69959D01*
X69209D02*Y2067500D01*
X68459D02*X69959D01*
X72510Y2069750D02*Y2067500D01*
Y2069750D02*X73260Y2070500D01*
X74010D01*
X74760Y2069750D01*
Y2067500D01*
X71760Y2070500D02*X72510Y2069750D01*
X77312Y2070500D02*X79562D01*
X76562Y2069750D02*X77312Y2070500D01*
X76562Y2069750D02*Y2068250D01*
X77312Y2067500D01*
X79562D01*
X81363Y2073500D02*Y2067500D01*
Y2069750D02*X82113Y2070500D01*
X83613D01*
X84363Y2069750D01*
Y2067500D01*
X86165Y2073500D02*X86915Y2072750D01*
Y2068250D01*
X86165Y2067500D02*X86915Y2068250D01*
X95750Y2067500D02*X98000D01*
X95000Y2068250D02*X95750Y2067500D01*
X95000Y2072750D02*Y2068250D01*
Y2072750D02*X95750Y2073500D01*
X98000D01*
X99801Y2069750D02*Y2068250D01*
Y2069750D02*X100551Y2070500D01*
X102051D01*
X102801Y2069750D01*
Y2068250D01*
X102051Y2067500D02*X102801Y2068250D01*
X100551Y2067500D02*X102051D01*
X99801Y2068250D02*X100551Y2067500D01*
X104603Y2070500D02*Y2068250D01*
X105353Y2067500D01*
X106853D01*
X107603Y2068250D01*
Y2070500D02*Y2068250D01*
X110154Y2069750D02*Y2067500D01*
Y2069750D02*X110904Y2070500D01*
X111654D01*
X112404Y2069750D01*
Y2067500D01*
X109404Y2070500D02*X110154Y2069750D01*
X114956Y2073500D02*Y2068250D01*
X115706Y2067500D01*
X114206Y2071250D02*X115706D01*
X130750Y2073500D02*Y2067500D01*
X130000Y2073500D02*X133000D01*
X133750Y2072750D01*
Y2071250D01*
X133000Y2070500D02*X133750Y2071250D01*
X130750Y2070500D02*X133000D01*
X135551Y2073500D02*Y2068250D01*
X136301Y2067500D01*
X140053Y2070500D02*X140803Y2069750D01*
X138553Y2070500D02*X140053D01*
X137803Y2069750D02*X138553Y2070500D01*
X137803Y2069750D02*Y2068250D01*
X138553Y2067500D01*
X140803Y2070500D02*Y2068250D01*
X141553Y2067500D01*
X138553D02*X140053D01*
X140803Y2068250D01*
X144104Y2073500D02*Y2068250D01*
X144854Y2067500D01*
X143354Y2071250D02*X144854D01*
X147106Y2067500D02*X149356D01*
X146356Y2068250D02*X147106Y2067500D01*
X146356Y2069750D02*Y2068250D01*
Y2069750D02*X147106Y2070500D01*
X148606D01*
X149356Y2069750D01*
X146356Y2069000D02*X149356D01*
Y2069750D02*Y2069000D01*
X154157Y2073500D02*Y2067500D01*
X153407D02*X154157Y2068250D01*
X151907Y2067500D02*X153407D01*
X151157Y2068250D02*X151907Y2067500D01*
X151157Y2069750D02*Y2068250D01*
Y2069750D02*X151907Y2070500D01*
X153407D01*
X154157Y2069750D01*
X157459Y2070500D02*Y2069750D01*
Y2068250D02*Y2067500D01*
X155959Y2072750D02*Y2072000D01*
Y2072750D02*X156709Y2073500D01*
X158209D01*
X158959Y2072750D01*
Y2072000D01*
X157459Y2070500D02*X158959Y2072000D01*
X0Y2088500D02*X3000D01*
X1500D02*Y2082500D01*
X4801Y2088500D02*Y2082500D01*
Y2084750D02*X5551Y2085500D01*
X7051D01*
X7801Y2084750D01*
Y2082500D01*
X10353D02*X12603D01*
X9603Y2083250D02*X10353Y2082500D01*
X9603Y2084750D02*Y2083250D01*
Y2084750D02*X10353Y2085500D01*
X11853D01*
X12603Y2084750D01*
X9603Y2084000D02*X12603D01*
Y2084750D02*Y2084000D01*
X15154Y2084750D02*Y2082500D01*
Y2084750D02*X15904Y2085500D01*
X17404D01*
X14404D02*X15154Y2084750D01*
X19956Y2082500D02*X22206D01*
X19206Y2083250D02*X19956Y2082500D01*
X19206Y2084750D02*Y2083250D01*
Y2084750D02*X19956Y2085500D01*
X21456D01*
X22206Y2084750D01*
X19206Y2084000D02*X22206D01*
Y2084750D02*Y2084000D01*
X28957Y2085500D02*X29707Y2084750D01*
X27457Y2085500D02*X28957D01*
X26707Y2084750D02*X27457Y2085500D01*
X26707Y2084750D02*Y2083250D01*
X27457Y2082500D01*
X29707Y2085500D02*Y2083250D01*
X30457Y2082500D01*
X27457D02*X28957D01*
X29707Y2083250D01*
X33009Y2084750D02*Y2082500D01*
Y2084750D02*X33759Y2085500D01*
X35259D01*
X32259D02*X33009Y2084750D01*
X37810Y2082500D02*X40060D01*
X37060Y2083250D02*X37810Y2082500D01*
X37060Y2084750D02*Y2083250D01*
Y2084750D02*X37810Y2085500D01*
X39310D01*
X40060Y2084750D01*
X37060Y2084000D02*X40060D01*
Y2084750D02*Y2084000D01*
X44562Y2087750D02*X45312Y2088500D01*
X47562D01*
X48312Y2087750D01*
Y2086250D01*
X44562Y2082500D02*X48312Y2086250D01*
X44562Y2082500D02*X48312D01*
X55813Y2088500D02*Y2082500D01*
X55063D02*X55813Y2083250D01*
X53563Y2082500D02*X55063D01*
X52813Y2083250D02*X53563Y2082500D01*
X52813Y2084750D02*Y2083250D01*
Y2084750D02*X53563Y2085500D01*
X55063D01*
X55813Y2084750D01*
X57615Y2087000D02*Y2086250D01*
Y2084750D02*Y2082500D01*
X59866Y2087750D02*Y2082500D01*
Y2087750D02*X60616Y2088500D01*
X61366D01*
X59116Y2085500D02*X60616D01*
X63618Y2087750D02*Y2082500D01*
Y2087750D02*X64368Y2088500D01*
X65118D01*
X62868Y2085500D02*X64368D01*
X67369Y2082500D02*X69619D01*
X66619Y2083250D02*X67369Y2082500D01*
X66619Y2084750D02*Y2083250D01*
Y2084750D02*X67369Y2085500D01*
X68869D01*
X69619Y2084750D01*
X66619Y2084000D02*X69619D01*
Y2084750D02*Y2084000D01*
X72171Y2084750D02*Y2082500D01*
Y2084750D02*X72921Y2085500D01*
X74421D01*
X71421D02*X72171Y2084750D01*
X76972Y2082500D02*X79222D01*
X76222Y2083250D02*X76972Y2082500D01*
X76222Y2084750D02*Y2083250D01*
Y2084750D02*X76972Y2085500D01*
X78472D01*
X79222Y2084750D01*
X76222Y2084000D02*X79222D01*
Y2084750D02*Y2084000D01*
X81774Y2084750D02*Y2082500D01*
Y2084750D02*X82524Y2085500D01*
X83274D01*
X84024Y2084750D01*
Y2082500D01*
X81024Y2085500D02*X81774Y2084750D01*
X86575Y2088500D02*Y2083250D01*
X87325Y2082500D01*
X85825Y2086250D02*X87325D01*
X94527Y2088500D02*Y2082500D01*
X93777D02*X94527Y2083250D01*
X92277Y2082500D02*X93777D01*
X91527Y2083250D02*X92277Y2082500D01*
X91527Y2084750D02*Y2083250D01*
Y2084750D02*X92277Y2085500D01*
X93777D01*
X94527Y2084750D01*
X97078D02*Y2082500D01*
Y2084750D02*X97828Y2085500D01*
X99328D01*
X96328D02*X97078Y2084750D01*
X101130Y2087000D02*Y2086250D01*
Y2084750D02*Y2082500D01*
X102631Y2088500D02*Y2083250D01*
X103381Y2082500D01*
X104883Y2088500D02*Y2083250D01*
X105633Y2082500D01*
X110584D02*X112834D01*
X113584Y2083250D01*
X112834Y2084000D02*X113584Y2083250D01*
X110584Y2084000D02*X112834D01*
X109834Y2084750D02*X110584Y2084000D01*
X109834Y2084750D02*X110584Y2085500D01*
X112834D01*
X113584Y2084750D01*
X109834Y2083250D02*X110584Y2082500D01*
X115386Y2087000D02*Y2086250D01*
Y2084750D02*Y2082500D01*
X116887Y2085500D02*X119887D01*
X116887Y2082500D02*X119887Y2085500D01*
X116887Y2082500D02*X119887D01*
X122439D02*X124689D01*
X121689Y2083250D02*X122439Y2082500D01*
X121689Y2084750D02*Y2083250D01*
Y2084750D02*X122439Y2085500D01*
X123939D01*
X124689Y2084750D01*
X121689Y2084000D02*X124689D01*
Y2084750D02*Y2084000D01*
X127240Y2082500D02*X129490D01*
X130240Y2083250D01*
X129490Y2084000D02*X130240Y2083250D01*
X127240Y2084000D02*X129490D01*
X126490Y2084750D02*X127240Y2084000D01*
X126490Y2084750D02*X127240Y2085500D01*
X129490D01*
X130240Y2084750D01*
X126490Y2083250D02*X127240Y2082500D01*
X134742Y2085500D02*Y2083250D01*
X135492Y2082500D01*
X136992D01*
X137742Y2083250D01*
Y2085500D02*Y2083250D01*
X140293Y2082500D02*X142543D01*
X143293Y2083250D01*
X142543Y2084000D02*X143293Y2083250D01*
X140293Y2084000D02*X142543D01*
X139543Y2084750D02*X140293Y2084000D01*
X139543Y2084750D02*X140293Y2085500D01*
X142543D01*
X143293Y2084750D01*
X139543Y2083250D02*X140293Y2082500D01*
X145845D02*X148095D01*
X145095Y2083250D02*X145845Y2082500D01*
X145095Y2084750D02*Y2083250D01*
Y2084750D02*X145845Y2085500D01*
X147345D01*
X148095Y2084750D01*
X145095Y2084000D02*X148095D01*
Y2084750D02*Y2084000D01*
X152896Y2088500D02*Y2082500D01*
X152146D02*X152896Y2083250D01*
X150646Y2082500D02*X152146D01*
X149896Y2083250D02*X150646Y2082500D01*
X149896Y2084750D02*Y2083250D01*
Y2084750D02*X150646Y2085500D01*
X152146D01*
X152896Y2084750D01*
X157398Y2087000D02*Y2086250D01*
Y2084750D02*Y2082500D01*
X159649Y2084750D02*Y2082500D01*
Y2084750D02*X160399Y2085500D01*
X161149D01*
X161899Y2084750D01*
Y2082500D01*
X158899Y2085500D02*X159649Y2084750D01*
X167151Y2088500D02*Y2083250D01*
X167901Y2082500D01*
X166401Y2086250D02*X167901D01*
X169402Y2088500D02*Y2082500D01*
Y2084750D02*X170152Y2085500D01*
X171652D01*
X172402Y2084750D01*
Y2082500D01*
X174204Y2087000D02*Y2086250D01*
Y2084750D02*Y2082500D01*
X176455D02*X178705D01*
X179455Y2083250D01*
X178705Y2084000D02*X179455Y2083250D01*
X176455Y2084000D02*X178705D01*
X175705Y2084750D02*X176455Y2084000D01*
X175705Y2084750D02*X176455Y2085500D01*
X178705D01*
X179455Y2084750D01*
X175705Y2083250D02*X176455Y2082500D01*
X183957Y2088500D02*Y2083250D01*
X184707Y2082500D01*
X188458Y2085500D02*X189208Y2084750D01*
X186958Y2085500D02*X188458D01*
X186208Y2084750D02*X186958Y2085500D01*
X186208Y2084750D02*Y2083250D01*
X186958Y2082500D01*
X189208Y2085500D02*Y2083250D01*
X189958Y2082500D01*
X186958D02*X188458D01*
X189208Y2083250D01*
X191760Y2085500D02*Y2083250D01*
X192510Y2082500D01*
X194760Y2085500D02*Y2081000D01*
X194010Y2080250D02*X194760Y2081000D01*
X192510Y2080250D02*X194010D01*
X191760Y2081000D02*X192510Y2080250D01*
Y2082500D02*X194010D01*
X194760Y2083250D01*
X196561Y2084750D02*Y2083250D01*
Y2084750D02*X197311Y2085500D01*
X198811D01*
X199561Y2084750D01*
Y2083250D01*
X198811Y2082500D02*X199561Y2083250D01*
X197311Y2082500D02*X198811D01*
X196561Y2083250D02*X197311Y2082500D01*
X201363Y2085500D02*Y2083250D01*
X202113Y2082500D01*
X203613D01*
X204363Y2083250D01*
Y2085500D02*Y2083250D01*
X206914Y2088500D02*Y2083250D01*
X207664Y2082500D01*
X206164Y2086250D02*X207664D01*
X209166Y2081000D02*X210666Y2082500D01*
X217417Y2088500D02*X218167Y2087750D01*
X215917Y2088500D02*X217417D01*
X215167Y2087750D02*X215917Y2088500D01*
X215167Y2087750D02*Y2083250D01*
X215917Y2082500D01*
X217417Y2085500D02*X218167Y2084750D01*
X215167Y2085500D02*X217417D01*
X215917Y2082500D02*X217417D01*
X218167Y2083250D01*
Y2084750D02*Y2083250D01*
X222669Y2088500D02*Y2082500D01*
Y2084750D02*X223419Y2085500D01*
X224919D01*
X225669Y2084750D01*
Y2082500D01*
X227470Y2084750D02*Y2083250D01*
Y2084750D02*X228220Y2085500D01*
X229720D01*
X230470Y2084750D01*
Y2083250D01*
X229720Y2082500D02*X230470Y2083250D01*
X228220Y2082500D02*X229720D01*
X227470Y2083250D02*X228220Y2082500D01*
X232272Y2088500D02*Y2083250D01*
X233022Y2082500D01*
X235273D02*X237523D01*
X234523Y2083250D02*X235273Y2082500D01*
X234523Y2084750D02*Y2083250D01*
Y2084750D02*X235273Y2085500D01*
X236773D01*
X237523Y2084750D01*
X234523Y2084000D02*X237523D01*
Y2084750D02*Y2084000D01*
X240075Y2082500D02*X242325D01*
X243075Y2083250D01*
X242325Y2084000D02*X243075Y2083250D01*
X240075Y2084000D02*X242325D01*
X239325Y2084750D02*X240075Y2084000D01*
X239325Y2084750D02*X240075Y2085500D01*
X242325D01*
X243075Y2084750D01*
X239325Y2083250D02*X240075Y2082500D01*
X248326Y2088500D02*Y2083250D01*
X249076Y2082500D01*
X247576Y2086250D02*X249076D01*
X250578Y2084750D02*Y2083250D01*
Y2084750D02*X251328Y2085500D01*
X252828D01*
X253578Y2084750D01*
Y2083250D01*
X252828Y2082500D02*X253578Y2083250D01*
X251328Y2082500D02*X252828D01*
X250578Y2083250D02*X251328Y2082500D01*
X256129Y2088500D02*Y2083250D01*
X256879Y2082500D01*
X255379Y2086250D02*X256879D01*
X260631Y2085500D02*X261381Y2084750D01*
X259131Y2085500D02*X260631D01*
X258381Y2084750D02*X259131Y2085500D01*
X258381Y2084750D02*Y2083250D01*
X259131Y2082500D01*
X261381Y2085500D02*Y2083250D01*
X262131Y2082500D01*
X259131D02*X260631D01*
X261381Y2083250D01*
X263932Y2088500D02*Y2083250D01*
X264682Y2082500D01*
G54D37*X0Y2000000D02*X3000000D01*
X0D02*Y0D01*
X3000000Y2000000D02*Y0D01*
X0D02*X3000000D01*
G54D36*X200000Y2013500D02*Y2007500D01*
Y2013500D02*X202250Y2011250D01*
X204500Y2013500D01*
Y2007500D01*
X208551Y2010500D02*X209301Y2009750D01*
X207051Y2010500D02*X208551D01*
X206301Y2009750D02*X207051Y2010500D01*
X206301Y2009750D02*Y2008250D01*
X207051Y2007500D01*
X209301Y2010500D02*Y2008250D01*
X210051Y2007500D01*
X207051D02*X208551D01*
X209301Y2008250D01*
X211853Y2010500D02*X214853Y2007500D01*
X211853D02*X214853Y2010500D01*
X216654Y2012000D02*Y2011250D01*
Y2009750D02*Y2007500D01*
X218906Y2009750D02*Y2007500D01*
Y2009750D02*X219656Y2010500D01*
X220406D01*
X221156Y2009750D01*
Y2007500D01*
Y2009750D02*X221906Y2010500D01*
X222656D01*
X223406Y2009750D01*
Y2007500D01*
X218156Y2010500D02*X218906Y2009750D01*
X225207Y2010500D02*Y2008250D01*
X225957Y2007500D01*
X227457D01*
X228207Y2008250D01*
Y2010500D02*Y2008250D01*
X230759Y2009750D02*Y2007500D01*
Y2009750D02*X231509Y2010500D01*
X232259D01*
X233009Y2009750D01*
Y2007500D01*
Y2009750D02*X233759Y2010500D01*
X234509D01*
X235259Y2009750D01*
Y2007500D01*
X230009Y2010500D02*X230759Y2009750D01*
X240510Y2013500D02*Y2007500D01*
X242760Y2013500D02*X243510Y2012750D01*
Y2008250D01*
X242760Y2007500D02*X243510Y2008250D01*
X239760Y2007500D02*X242760D01*
X239760Y2013500D02*X242760D01*
X245312Y2012000D02*Y2011250D01*
Y2009750D02*Y2007500D01*
X247563Y2009750D02*Y2007500D01*
Y2009750D02*X248313Y2010500D01*
X249063D01*
X249813Y2009750D01*
Y2007500D01*
Y2009750D02*X250563Y2010500D01*
X251313D01*
X252063Y2009750D01*
Y2007500D01*
X246813Y2010500D02*X247563Y2009750D01*
X254615Y2007500D02*X256865D01*
X253865Y2008250D02*X254615Y2007500D01*
X253865Y2009750D02*Y2008250D01*
Y2009750D02*X254615Y2010500D01*
X256115D01*
X256865Y2009750D01*
X253865Y2009000D02*X256865D01*
Y2009750D02*Y2009000D01*
X259416Y2009750D02*Y2007500D01*
Y2009750D02*X260166Y2010500D01*
X260916D01*
X261666Y2009750D01*
Y2007500D01*
X258666Y2010500D02*X259416Y2009750D01*
X264218Y2007500D02*X266468D01*
X267218Y2008250D01*
X266468Y2009000D02*X267218Y2008250D01*
X264218Y2009000D02*X266468D01*
X263468Y2009750D02*X264218Y2009000D01*
X263468Y2009750D02*X264218Y2010500D01*
X266468D01*
X267218Y2009750D01*
X263468Y2008250D02*X264218Y2007500D01*
X269019Y2012000D02*Y2011250D01*
Y2009750D02*Y2007500D01*
X270521Y2009750D02*Y2008250D01*
Y2009750D02*X271271Y2010500D01*
X272771D01*
X273521Y2009750D01*
Y2008250D01*
X272771Y2007500D02*X273521Y2008250D01*
X271271Y2007500D02*X272771D01*
X270521Y2008250D02*X271271Y2007500D01*
X276072Y2009750D02*Y2007500D01*
Y2009750D02*X276822Y2010500D01*
X277572D01*
X278322Y2009750D01*
Y2007500D01*
X275322Y2010500D02*X276072Y2009750D01*
X280874Y2007500D02*X283124D01*
X283874Y2008250D01*
X283124Y2009000D02*X283874Y2008250D01*
X280874Y2009000D02*X283124D01*
X280124Y2009750D02*X280874Y2009000D01*
X280124Y2009750D02*X280874Y2010500D01*
X283124D01*
X283874Y2009750D01*
X280124Y2008250D02*X280874Y2007500D01*
X285675Y2011250D02*X286425D01*
X285675Y2009750D02*X286425D01*
X290927Y2012750D02*X291677Y2013500D01*
X293177D01*
X293927Y2012750D01*
Y2008250D01*
X293177Y2007500D02*X293927Y2008250D01*
X291677Y2007500D02*X293177D01*
X290927Y2008250D02*X291677Y2007500D01*
Y2010500D02*X293927D01*
X295728Y2008250D02*X296478Y2007500D01*
X295728Y2012750D02*Y2008250D01*
Y2012750D02*X296478Y2013500D01*
X297978D01*
X298728Y2012750D01*
Y2008250D01*
X297978Y2007500D02*X298728Y2008250D01*
X296478Y2007500D02*X297978D01*
X295728Y2009000D02*X298728Y2012000D01*
X300530Y2008250D02*X301280Y2007500D01*
X300530Y2012750D02*Y2008250D01*
Y2012750D02*X301280Y2013500D01*
X302780D01*
X303530Y2012750D01*
Y2008250D01*
X302780Y2007500D02*X303530Y2008250D01*
X301280Y2007500D02*X302780D01*
X300530Y2009000D02*X303530Y2012000D01*
X305331Y2008250D02*X306081Y2007500D01*
X305331Y2012750D02*Y2008250D01*
Y2012750D02*X306081Y2013500D01*
X307581D01*
X308331Y2012750D01*
Y2008250D01*
X307581Y2007500D02*X308331Y2008250D01*
X306081Y2007500D02*X307581D01*
X305331Y2009000D02*X308331Y2012000D01*
X310133Y2008250D02*X310883Y2007500D01*
X310133Y2012750D02*Y2008250D01*
Y2012750D02*X310883Y2013500D01*
X312383D01*
X313133Y2012750D01*
Y2008250D01*
X312383Y2007500D02*X313133Y2008250D01*
X310883Y2007500D02*X312383D01*
X310133Y2009000D02*X313133Y2012000D01*
X314934Y2007500D02*X315684D01*
X317486Y2008250D02*X318236Y2007500D01*
X317486Y2012750D02*Y2008250D01*
Y2012750D02*X318236Y2013500D01*
X319736D01*
X320486Y2012750D01*
Y2008250D01*
X319736Y2007500D02*X320486Y2008250D01*
X318236Y2007500D02*X319736D01*
X317486Y2009000D02*X320486Y2012000D01*
X322287Y2008250D02*X323037Y2007500D01*
X322287Y2012750D02*Y2008250D01*
Y2012750D02*X323037Y2013500D01*
X324537D01*
X325287Y2012750D01*
Y2008250D01*
X324537Y2007500D02*X325287Y2008250D01*
X323037Y2007500D02*X324537D01*
X322287Y2009000D02*X325287Y2012000D01*
X327089Y2008250D02*X327839Y2007500D01*
X327089Y2012750D02*Y2008250D01*
Y2012750D02*X327839Y2013500D01*
X329339D01*
X330089Y2012750D01*
Y2008250D01*
X329339Y2007500D02*X330089Y2008250D01*
X327839Y2007500D02*X329339D01*
X327089Y2009000D02*X330089Y2012000D01*
X331890Y2008250D02*X332640Y2007500D01*
X331890Y2012750D02*Y2008250D01*
Y2012750D02*X332640Y2013500D01*
X334140D01*
X334890Y2012750D01*
Y2008250D01*
X334140Y2007500D02*X334890Y2008250D01*
X332640Y2007500D02*X334140D01*
X331890Y2009000D02*X334890Y2012000D01*
X336692Y2008250D02*X337442Y2007500D01*
X336692Y2012750D02*Y2008250D01*
Y2012750D02*X337442Y2013500D01*
X338942D01*
X339692Y2012750D01*
Y2008250D01*
X338942Y2007500D02*X339692Y2008250D01*
X337442Y2007500D02*X338942D01*
X336692Y2009000D02*X339692Y2012000D01*
X341493Y2008250D02*X342243Y2007500D01*
X341493Y2012750D02*Y2008250D01*
Y2012750D02*X342243Y2013500D01*
X343743D01*
X344493Y2012750D01*
Y2008250D01*
X343743Y2007500D02*X344493Y2008250D01*
X342243Y2007500D02*X343743D01*
X341493Y2009000D02*X344493Y2012000D01*
X349745Y2009750D02*Y2007500D01*
Y2009750D02*X350495Y2010500D01*
X351245D01*
X351995Y2009750D01*
Y2007500D01*
Y2009750D02*X352745Y2010500D01*
X353495D01*
X354245Y2009750D01*
Y2007500D01*
X348995Y2010500D02*X349745Y2009750D01*
X356046Y2012000D02*Y2011250D01*
Y2009750D02*Y2007500D01*
X357548Y2013500D02*Y2008250D01*
X358298Y2007500D01*
X360549D02*X362799D01*
X363549Y2008250D01*
X362799Y2009000D02*X363549Y2008250D01*
X360549Y2009000D02*X362799D01*
X359799Y2009750D02*X360549Y2009000D01*
X359799Y2009750D02*X360549Y2010500D01*
X362799D01*
X363549Y2009750D01*
X359799Y2008250D02*X360549Y2007500D01*
X368051Y2010500D02*Y2008250D01*
X368801Y2007500D01*
X369551D01*
X370301Y2008250D01*
Y2010500D02*Y2008250D01*
X371051Y2007500D01*
X371801D01*
X372551Y2008250D01*
Y2010500D02*Y2008250D01*
X374352Y2012000D02*Y2011250D01*
Y2009750D02*Y2007500D01*
X378854Y2013500D02*Y2007500D01*
X378104D02*X378854Y2008250D01*
X376604Y2007500D02*X378104D01*
X375854Y2008250D02*X376604Y2007500D01*
X375854Y2009750D02*Y2008250D01*
Y2009750D02*X376604Y2010500D01*
X378104D01*
X378854Y2009750D01*
X381405Y2007500D02*X383655D01*
X380655Y2008250D02*X381405Y2007500D01*
X380655Y2009750D02*Y2008250D01*
Y2009750D02*X381405Y2010500D01*
X382905D01*
X383655Y2009750D01*
X380655Y2009000D02*X383655D01*
Y2009750D02*Y2009000D01*
X385457Y2006000D02*X386957Y2007500D01*
X391458Y2012750D02*X392208Y2013500D01*
X394458D01*
X395208Y2012750D01*
Y2011250D01*
X391458Y2007500D02*X395208Y2011250D01*
X391458Y2007500D02*X395208D01*
X397010Y2008250D02*X397760Y2007500D01*
X397010Y2012750D02*Y2008250D01*
Y2012750D02*X397760Y2013500D01*
X399260D01*
X400010Y2012750D01*
Y2008250D01*
X399260Y2007500D02*X400010Y2008250D01*
X397760Y2007500D02*X399260D01*
X397010Y2009000D02*X400010Y2012000D01*
X401811Y2008250D02*X402561Y2007500D01*
X401811Y2012750D02*Y2008250D01*
Y2012750D02*X402561Y2013500D01*
X404061D01*
X404811Y2012750D01*
Y2008250D01*
X404061Y2007500D02*X404811Y2008250D01*
X402561Y2007500D02*X404061D01*
X401811Y2009000D02*X404811Y2012000D01*
X406613Y2008250D02*X407363Y2007500D01*
X406613Y2012750D02*Y2008250D01*
Y2012750D02*X407363Y2013500D01*
X408863D01*
X409613Y2012750D01*
Y2008250D01*
X408863Y2007500D02*X409613Y2008250D01*
X407363Y2007500D02*X408863D01*
X406613Y2009000D02*X409613Y2012000D01*
X411414Y2008250D02*X412164Y2007500D01*
X411414Y2012750D02*Y2008250D01*
Y2012750D02*X412164Y2013500D01*
X413664D01*
X414414Y2012750D01*
Y2008250D01*
X413664Y2007500D02*X414414Y2008250D01*
X412164Y2007500D02*X413664D01*
X411414Y2009000D02*X414414Y2012000D01*
X416216Y2007500D02*X416966D01*
X418767Y2008250D02*X419517Y2007500D01*
X418767Y2012750D02*Y2008250D01*
Y2012750D02*X419517Y2013500D01*
X421017D01*
X421767Y2012750D01*
Y2008250D01*
X421017Y2007500D02*X421767Y2008250D01*
X419517Y2007500D02*X421017D01*
X418767Y2009000D02*X421767Y2012000D01*
X423569Y2008250D02*X424319Y2007500D01*
X423569Y2012750D02*Y2008250D01*
Y2012750D02*X424319Y2013500D01*
X425819D01*
X426569Y2012750D01*
Y2008250D01*
X425819Y2007500D02*X426569Y2008250D01*
X424319Y2007500D02*X425819D01*
X423569Y2009000D02*X426569Y2012000D01*
X428370Y2008250D02*X429120Y2007500D01*
X428370Y2012750D02*Y2008250D01*
Y2012750D02*X429120Y2013500D01*
X430620D01*
X431370Y2012750D01*
Y2008250D01*
X430620Y2007500D02*X431370Y2008250D01*
X429120Y2007500D02*X430620D01*
X428370Y2009000D02*X431370Y2012000D01*
X433172Y2008250D02*X433922Y2007500D01*
X433172Y2012750D02*Y2008250D01*
Y2012750D02*X433922Y2013500D01*
X435422D01*
X436172Y2012750D01*
Y2008250D01*
X435422Y2007500D02*X436172Y2008250D01*
X433922Y2007500D02*X435422D01*
X433172Y2009000D02*X436172Y2012000D01*
X437973Y2008250D02*X438723Y2007500D01*
X437973Y2012750D02*Y2008250D01*
Y2012750D02*X438723Y2013500D01*
X440223D01*
X440973Y2012750D01*
Y2008250D01*
X440223Y2007500D02*X440973Y2008250D01*
X438723Y2007500D02*X440223D01*
X437973Y2009000D02*X440973Y2012000D01*
X442775Y2008250D02*X443525Y2007500D01*
X442775Y2012750D02*Y2008250D01*
Y2012750D02*X443525Y2013500D01*
X445025D01*
X445775Y2012750D01*
Y2008250D01*
X445025Y2007500D02*X445775Y2008250D01*
X443525Y2007500D02*X445025D01*
X442775Y2009000D02*X445775Y2012000D01*
X451026Y2009750D02*Y2007500D01*
Y2009750D02*X451776Y2010500D01*
X452526D01*
X453276Y2009750D01*
Y2007500D01*
Y2009750D02*X454026Y2010500D01*
X454776D01*
X455526Y2009750D01*
Y2007500D01*
X450276Y2010500D02*X451026Y2009750D01*
X457328Y2012000D02*Y2011250D01*
Y2009750D02*Y2007500D01*
X458829Y2013500D02*Y2008250D01*
X459579Y2007500D01*
X461831D02*X464081D01*
X464831Y2008250D01*
X464081Y2009000D02*X464831Y2008250D01*
X461831Y2009000D02*X464081D01*
X461081Y2009750D02*X461831Y2009000D01*
X461081Y2009750D02*X461831Y2010500D01*
X464081D01*
X464831Y2009750D01*
X461081Y2008250D02*X461831Y2007500D01*
X469332Y2013500D02*Y2007500D01*
Y2009750D02*X470082Y2010500D01*
X471582D01*
X472332Y2009750D01*
Y2007500D01*
X474134Y2012000D02*Y2011250D01*
Y2009750D02*Y2007500D01*
X477885Y2010500D02*X478635Y2009750D01*
X476385Y2010500D02*X477885D01*
X475635Y2009750D02*X476385Y2010500D01*
X475635Y2009750D02*Y2008250D01*
X476385Y2007500D01*
X477885D01*
X478635Y2008250D01*
X475635Y2006000D02*X476385Y2005250D01*
X477885D01*
X478635Y2006000D01*
Y2010500D02*Y2006000D01*
X480437Y2013500D02*Y2007500D01*
Y2009750D02*X481187Y2010500D01*
X482687D01*
X483437Y2009750D01*
Y2007500D01*
X1292034Y-9500D02*X1295034D01*
X1295784Y-8750D01*
Y-7250D02*Y-8750D01*
X1295034Y-6500D02*X1295784Y-7250D01*
X1292784Y-6500D02*X1295034D01*
X1292784Y-3500D02*Y-9500D01*
X1292034Y-3500D02*X1295034D01*
X1295784Y-4250D01*
Y-5750D01*
X1295034Y-6500D02*X1295784Y-5750D01*
X1297585Y-7250D02*Y-8750D01*
Y-7250D02*X1298335Y-6500D01*
X1299835D01*
X1300585Y-7250D01*
Y-8750D01*
X1299835Y-9500D02*X1300585Y-8750D01*
X1298335Y-9500D02*X1299835D01*
X1297585Y-8750D02*X1298335Y-9500D01*
X1304637Y-6500D02*X1305387Y-7250D01*
X1303137Y-6500D02*X1304637D01*
X1302387Y-7250D02*X1303137Y-6500D01*
X1302387Y-7250D02*Y-8750D01*
X1303137Y-9500D01*
X1305387Y-6500D02*Y-8750D01*
X1306137Y-9500D01*
X1303137D02*X1304637D01*
X1305387Y-8750D01*
X1308688Y-7250D02*Y-9500D01*
Y-7250D02*X1309438Y-6500D01*
X1310938D01*
X1307938D02*X1308688Y-7250D01*
X1315740Y-3500D02*Y-9500D01*
X1314990D02*X1315740Y-8750D01*
X1313490Y-9500D02*X1314990D01*
X1312740Y-8750D02*X1313490Y-9500D01*
X1312740Y-7250D02*Y-8750D01*
Y-7250D02*X1313490Y-6500D01*
X1314990D01*
X1315740Y-7250D01*
X1320241D02*Y-8750D01*
Y-7250D02*X1320991Y-6500D01*
X1322491D01*
X1323241Y-7250D01*
Y-8750D01*
X1322491Y-9500D02*X1323241Y-8750D01*
X1320991Y-9500D02*X1322491D01*
X1320241Y-8750D02*X1320991Y-9500D01*
X1325043Y-6500D02*Y-8750D01*
X1325793Y-9500D01*
X1327293D01*
X1328043Y-8750D01*
Y-6500D02*Y-8750D01*
X1330594Y-3500D02*Y-8750D01*
X1331344Y-9500D01*
X1329844Y-5750D02*X1331344D01*
X1332846Y-3500D02*Y-8750D01*
X1333596Y-9500D01*
X1335097Y-5000D02*Y-5750D01*
Y-7250D02*Y-9500D01*
X1337349Y-7250D02*Y-9500D01*
Y-7250D02*X1338099Y-6500D01*
X1338849D01*
X1339599Y-7250D01*
Y-9500D01*
X1336599Y-6500D02*X1337349Y-7250D01*
X1342150Y-9500D02*X1344400D01*
X1341400Y-8750D02*X1342150Y-9500D01*
X1341400Y-7250D02*Y-8750D01*
Y-7250D02*X1342150Y-6500D01*
X1343650D01*
X1344400Y-7250D01*
X1341400Y-8000D02*X1344400D01*
Y-7250D02*Y-8000D01*
X1348902Y-5000D02*Y-5750D01*
Y-7250D02*Y-9500D01*
X1351153D02*X1353403D01*
X1354153Y-8750D01*
X1353403Y-8000D02*X1354153Y-8750D01*
X1351153Y-8000D02*X1353403D01*
X1350403Y-7250D02*X1351153Y-8000D01*
X1350403Y-7250D02*X1351153Y-6500D01*
X1353403D01*
X1354153Y-7250D01*
X1350403Y-8750D02*X1351153Y-9500D01*
X1359405Y-3500D02*Y-8750D01*
X1360155Y-9500D01*
X1358655Y-5750D02*X1360155D01*
X1361656Y-3500D02*Y-9500D01*
Y-7250D02*X1362406Y-6500D01*
X1363906D01*
X1364656Y-7250D01*
Y-9500D01*
X1367208D02*X1369458D01*
X1366458Y-8750D02*X1367208Y-9500D01*
X1366458Y-7250D02*Y-8750D01*
Y-7250D02*X1367208Y-6500D01*
X1368708D01*
X1369458Y-7250D01*
X1366458Y-8000D02*X1369458D01*
Y-7250D02*Y-8000D01*
X1374709Y-6500D02*X1376959D01*
X1373959Y-7250D02*X1374709Y-6500D01*
X1373959Y-7250D02*Y-8750D01*
X1374709Y-9500D01*
X1376959D01*
X1379511D02*X1381761D01*
X1378761Y-8750D02*X1379511Y-9500D01*
X1378761Y-7250D02*Y-8750D01*
Y-7250D02*X1379511Y-6500D01*
X1381011D01*
X1381761Y-7250D01*
X1378761Y-8000D02*X1381761D01*
Y-7250D02*Y-8000D01*
X1384312Y-7250D02*Y-9500D01*
Y-7250D02*X1385062Y-6500D01*
X1385812D01*
X1386562Y-7250D01*
Y-9500D01*
X1383562Y-6500D02*X1384312Y-7250D01*
X1389114Y-3500D02*Y-8750D01*
X1389864Y-9500D01*
X1388364Y-5750D02*X1389864D01*
X1392115Y-9500D02*X1394365D01*
X1391365Y-8750D02*X1392115Y-9500D01*
X1391365Y-7250D02*Y-8750D01*
Y-7250D02*X1392115Y-6500D01*
X1393615D01*
X1394365Y-7250D01*
X1391365Y-8000D02*X1394365D01*
Y-7250D02*Y-8000D01*
X1396917Y-7250D02*Y-9500D01*
Y-7250D02*X1397667Y-6500D01*
X1399167D01*
X1396167D02*X1396917Y-7250D01*
X1400968Y-3500D02*Y-8750D01*
X1401718Y-9500D01*
X1403220Y-5000D02*Y-5750D01*
Y-7250D02*Y-9500D01*
X1405471Y-7250D02*Y-9500D01*
Y-7250D02*X1406221Y-6500D01*
X1406971D01*
X1407721Y-7250D01*
Y-9500D01*
X1404721Y-6500D02*X1405471Y-7250D01*
X1410273Y-9500D02*X1412523D01*
X1409523Y-8750D02*X1410273Y-9500D01*
X1409523Y-7250D02*Y-8750D01*
Y-7250D02*X1410273Y-6500D01*
X1411773D01*
X1412523Y-7250D01*
X1409523Y-8000D02*X1412523D01*
Y-7250D02*Y-8000D01*
X1417024Y-7250D02*Y-8750D01*
Y-7250D02*X1417774Y-6500D01*
X1419274D01*
X1420024Y-7250D01*
Y-8750D01*
X1419274Y-9500D02*X1420024Y-8750D01*
X1417774Y-9500D02*X1419274D01*
X1417024Y-8750D02*X1417774Y-9500D01*
X1422576Y-4250D02*Y-9500D01*
Y-4250D02*X1423326Y-3500D01*
X1424076D01*
X1421826Y-6500D02*X1423326D01*
X1429027Y-3500D02*Y-8750D01*
X1429777Y-9500D01*
X1428277Y-5750D02*X1429777D01*
X1431279Y-3500D02*Y-9500D01*
Y-7250D02*X1432029Y-6500D01*
X1433529D01*
X1434279Y-7250D01*
Y-9500D01*
X1436080Y-5000D02*Y-5750D01*
Y-7250D02*Y-9500D01*
X1438332D02*X1440582D01*
X1441332Y-8750D01*
X1440582Y-8000D02*X1441332Y-8750D01*
X1438332Y-8000D02*X1440582D01*
X1437582Y-7250D02*X1438332Y-8000D01*
X1437582Y-7250D02*X1438332Y-6500D01*
X1440582D01*
X1441332Y-7250D01*
X1437582Y-8750D02*X1438332Y-9500D01*
X1445833Y-8750D02*X1446583Y-9500D01*
X1445833Y-7250D02*Y-8750D01*
Y-7250D02*X1446583Y-6500D01*
X1448083D01*
X1448833Y-7250D01*
Y-8750D01*
X1448083Y-9500D02*X1448833Y-8750D01*
X1446583Y-9500D02*X1448083D01*
X1445833Y-5750D02*X1446583Y-6500D01*
X1445833Y-4250D02*Y-5750D01*
Y-4250D02*X1446583Y-3500D01*
X1448083D01*
X1448833Y-4250D01*
Y-5750D01*
X1448083Y-6500D02*X1448833Y-5750D01*
X1450635Y-9500D02*X1451385D01*
X1453186Y-8750D02*X1453936Y-9500D01*
X1453186Y-4250D02*Y-8750D01*
Y-4250D02*X1453936Y-3500D01*
X1455436D01*
X1456186Y-4250D01*
Y-8750D01*
X1455436Y-9500D02*X1456186Y-8750D01*
X1453936Y-9500D02*X1455436D01*
X1453186Y-8000D02*X1456186Y-5000D01*
X1457988Y-8750D02*X1458738Y-9500D01*
X1457988Y-4250D02*Y-8750D01*
Y-4250D02*X1458738Y-3500D01*
X1460238D01*
X1460988Y-4250D01*
Y-8750D01*
X1460238Y-9500D02*X1460988Y-8750D01*
X1458738Y-9500D02*X1460238D01*
X1457988Y-8000D02*X1460988Y-5000D01*
X1462789Y-8750D02*X1463539Y-9500D01*
X1462789Y-4250D02*Y-8750D01*
Y-4250D02*X1463539Y-3500D01*
X1465039D01*
X1465789Y-4250D01*
Y-8750D01*
X1465039Y-9500D02*X1465789Y-8750D01*
X1463539Y-9500D02*X1465039D01*
X1462789Y-8000D02*X1465789Y-5000D01*
X1467591Y-8750D02*X1468341Y-9500D01*
X1467591Y-4250D02*Y-8750D01*
Y-4250D02*X1468341Y-3500D01*
X1469841D01*
X1470591Y-4250D01*
Y-8750D01*
X1469841Y-9500D02*X1470591Y-8750D01*
X1468341Y-9500D02*X1469841D01*
X1467591Y-8000D02*X1470591Y-5000D01*
X1472392Y-8750D02*X1473142Y-9500D01*
X1472392Y-4250D02*Y-8750D01*
Y-4250D02*X1473142Y-3500D01*
X1474642D01*
X1475392Y-4250D01*
Y-8750D01*
X1474642Y-9500D02*X1475392Y-8750D01*
X1473142Y-9500D02*X1474642D01*
X1472392Y-8000D02*X1475392Y-5000D01*
X1477194Y-8750D02*X1477944Y-9500D01*
X1477194Y-4250D02*Y-8750D01*
Y-4250D02*X1477944Y-3500D01*
X1479444D01*
X1480194Y-4250D01*
Y-8750D01*
X1479444Y-9500D02*X1480194Y-8750D01*
X1477944Y-9500D02*X1479444D01*
X1477194Y-8000D02*X1480194Y-5000D01*
X1485445Y-7250D02*Y-9500D01*
Y-7250D02*X1486195Y-6500D01*
X1486945D01*
X1487695Y-7250D01*
Y-9500D01*
Y-7250D02*X1488445Y-6500D01*
X1489195D01*
X1489945Y-7250D01*
Y-9500D01*
X1484695Y-6500D02*X1485445Y-7250D01*
X1491747Y-5000D02*Y-5750D01*
Y-7250D02*Y-9500D01*
X1493248Y-3500D02*Y-8750D01*
X1493998Y-9500D01*
X1498950Y-7250D02*Y-9500D01*
Y-7250D02*X1499700Y-6500D01*
X1501200D01*
X1498200D02*X1498950Y-7250D01*
X1503751Y-9500D02*X1506001D01*
X1503001Y-8750D02*X1503751Y-9500D01*
X1503001Y-7250D02*Y-8750D01*
Y-7250D02*X1503751Y-6500D01*
X1505251D01*
X1506001Y-7250D01*
X1503001Y-8000D02*X1506001D01*
Y-7250D02*Y-8000D01*
X1508553Y-6500D02*X1510803D01*
X1507803Y-7250D02*X1508553Y-6500D01*
X1507803Y-7250D02*Y-8750D01*
X1508553Y-9500D01*
X1510803D01*
X1513354Y-3500D02*Y-8750D01*
X1514104Y-9500D01*
X1512604Y-5750D02*X1514104D01*
X1517856Y-6500D02*X1518606Y-7250D01*
X1516356Y-6500D02*X1517856D01*
X1515606Y-7250D02*X1516356Y-6500D01*
X1515606Y-7250D02*Y-8750D01*
X1516356Y-9500D01*
X1518606Y-6500D02*Y-8750D01*
X1519356Y-9500D01*
X1516356D02*X1517856D01*
X1518606Y-8750D01*
X1521907Y-7250D02*Y-9500D01*
Y-7250D02*X1522657Y-6500D01*
X1523407D01*
X1524157Y-7250D01*
Y-9500D01*
X1521157Y-6500D02*X1521907Y-7250D01*
X1528209Y-6500D02*X1528959Y-7250D01*
X1526709Y-6500D02*X1528209D01*
X1525959Y-7250D02*X1526709Y-6500D01*
X1525959Y-7250D02*Y-8750D01*
X1526709Y-9500D01*
X1528209D01*
X1528959Y-8750D01*
X1525959Y-11000D02*X1526709Y-11750D01*
X1528209D01*
X1528959Y-11000D01*
Y-6500D02*Y-11000D01*
X1530760Y-3500D02*Y-8750D01*
X1531510Y-9500D01*
X1533762D02*X1536012D01*
X1533012Y-8750D02*X1533762Y-9500D01*
X1533012Y-7250D02*Y-8750D01*
Y-7250D02*X1533762Y-6500D01*
X1535262D01*
X1536012Y-7250D01*
X1533012Y-8000D02*X1536012D01*
Y-7250D02*Y-8000D01*
X1540513Y-6500D02*X1543513D01*
X1548015Y-8750D02*X1548765Y-9500D01*
X1548015Y-4250D02*Y-8750D01*
Y-4250D02*X1548765Y-3500D01*
X1550265D01*
X1551015Y-4250D01*
Y-8750D01*
X1550265Y-9500D02*X1551015Y-8750D01*
X1548765Y-9500D02*X1550265D01*
X1548015Y-8000D02*X1551015Y-5000D01*
X1552816Y-11000D02*X1554316Y-9500D01*
X1556118Y-8750D02*X1556868Y-9500D01*
X1556118Y-4250D02*Y-8750D01*
Y-4250D02*X1556868Y-3500D01*
X1558368D01*
X1559118Y-4250D01*
Y-8750D01*
X1558368Y-9500D02*X1559118Y-8750D01*
X1556868Y-9500D02*X1558368D01*
X1556118Y-8000D02*X1559118Y-5000D01*
X1564369Y-3500D02*Y-8750D01*
X1565119Y-9500D01*
X1563619Y-5750D02*X1565119D01*
X1566621Y-7250D02*Y-8750D01*
Y-7250D02*X1567371Y-6500D01*
X1568871D01*
X1569621Y-7250D01*
Y-8750D01*
X1568871Y-9500D02*X1569621Y-8750D01*
X1567371Y-9500D02*X1568871D01*
X1566621Y-8750D02*X1567371Y-9500D01*
X1574122Y-4250D02*X1574872Y-3500D01*
X1576372D01*
X1577122Y-4250D01*
Y-8750D01*
X1576372Y-9500D02*X1577122Y-8750D01*
X1574872Y-9500D02*X1576372D01*
X1574122Y-8750D02*X1574872Y-9500D01*
Y-6500D02*X1577122D01*
X1578924Y-8750D02*X1579674Y-9500D01*
X1578924Y-4250D02*Y-8750D01*
Y-4250D02*X1579674Y-3500D01*
X1581174D01*
X1581924Y-4250D01*
Y-8750D01*
X1581174Y-9500D02*X1581924Y-8750D01*
X1579674Y-9500D02*X1581174D01*
X1578924Y-8000D02*X1581924Y-5000D01*
X1583725Y-8750D02*X1584475Y-9500D01*
X1583725Y-4250D02*Y-8750D01*
Y-4250D02*X1584475Y-3500D01*
X1585975D01*
X1586725Y-4250D01*
Y-8750D01*
X1585975Y-9500D02*X1586725Y-8750D01*
X1584475Y-9500D02*X1585975D01*
X1583725Y-8000D02*X1586725Y-5000D01*
X1588527Y-8750D02*X1589277Y-9500D01*
X1588527Y-4250D02*Y-8750D01*
Y-4250D02*X1589277Y-3500D01*
X1590777D01*
X1591527Y-4250D01*
Y-8750D01*
X1590777Y-9500D02*X1591527Y-8750D01*
X1589277Y-9500D02*X1590777D01*
X1588527Y-8000D02*X1591527Y-5000D01*
X1593328Y-8750D02*X1594078Y-9500D01*
X1593328Y-4250D02*Y-8750D01*
Y-4250D02*X1594078Y-3500D01*
X1595578D01*
X1596328Y-4250D01*
Y-8750D01*
X1595578Y-9500D02*X1596328Y-8750D01*
X1594078Y-9500D02*X1595578D01*
X1593328Y-8000D02*X1596328Y-5000D01*
X1598130Y-9500D02*X1598880D01*
X1600681Y-8750D02*X1601431Y-9500D01*
X1600681Y-4250D02*Y-8750D01*
Y-4250D02*X1601431Y-3500D01*
X1602931D01*
X1603681Y-4250D01*
Y-8750D01*
X1602931Y-9500D02*X1603681Y-8750D01*
X1601431Y-9500D02*X1602931D01*
X1600681Y-8000D02*X1603681Y-5000D01*
X1605483Y-8750D02*X1606233Y-9500D01*
X1605483Y-4250D02*Y-8750D01*
Y-4250D02*X1606233Y-3500D01*
X1607733D01*
X1608483Y-4250D01*
Y-8750D01*
X1607733Y-9500D02*X1608483Y-8750D01*
X1606233Y-9500D02*X1607733D01*
X1605483Y-8000D02*X1608483Y-5000D01*
X1610284Y-8750D02*X1611034Y-9500D01*
X1610284Y-4250D02*Y-8750D01*
Y-4250D02*X1611034Y-3500D01*
X1612534D01*
X1613284Y-4250D01*
Y-8750D01*
X1612534Y-9500D02*X1613284Y-8750D01*
X1611034Y-9500D02*X1612534D01*
X1610284Y-8000D02*X1613284Y-5000D01*
X1615086Y-8750D02*X1615836Y-9500D01*
X1615086Y-4250D02*Y-8750D01*
Y-4250D02*X1615836Y-3500D01*
X1617336D01*
X1618086Y-4250D01*
Y-8750D01*
X1617336Y-9500D02*X1618086Y-8750D01*
X1615836Y-9500D02*X1617336D01*
X1615086Y-8000D02*X1618086Y-5000D01*
X1619887Y-8750D02*X1620637Y-9500D01*
X1619887Y-4250D02*Y-8750D01*
Y-4250D02*X1620637Y-3500D01*
X1622137D01*
X1622887Y-4250D01*
Y-8750D01*
X1622137Y-9500D02*X1622887Y-8750D01*
X1620637Y-9500D02*X1622137D01*
X1619887Y-8000D02*X1622887Y-5000D01*
X1624689Y-8750D02*X1625439Y-9500D01*
X1624689Y-4250D02*Y-8750D01*
Y-4250D02*X1625439Y-3500D01*
X1626939D01*
X1627689Y-4250D01*
Y-8750D01*
X1626939Y-9500D02*X1627689Y-8750D01*
X1625439Y-9500D02*X1626939D01*
X1624689Y-8000D02*X1627689Y-5000D01*
X1629490Y-11000D02*X1630990Y-9500D01*
X1632792Y-4250D02*X1633542Y-3500D01*
X1635792D01*
X1636542Y-4250D01*
Y-5750D01*
X1632792Y-9500D02*X1636542Y-5750D01*
X1632792Y-9500D02*X1636542D01*
X1638343Y-8750D02*X1639093Y-9500D01*
X1638343Y-4250D02*Y-8750D01*
Y-4250D02*X1639093Y-3500D01*
X1640593D01*
X1641343Y-4250D01*
Y-8750D01*
X1640593Y-9500D02*X1641343Y-8750D01*
X1639093Y-9500D02*X1640593D01*
X1638343Y-8000D02*X1641343Y-5000D01*
X1643145Y-8750D02*X1643895Y-9500D01*
X1643145Y-4250D02*Y-8750D01*
Y-4250D02*X1643895Y-3500D01*
X1645395D01*
X1646145Y-4250D01*
Y-8750D01*
X1645395Y-9500D02*X1646145Y-8750D01*
X1643895Y-9500D02*X1645395D01*
X1643145Y-8000D02*X1646145Y-5000D01*
X1647946Y-8750D02*X1648696Y-9500D01*
X1647946Y-4250D02*Y-8750D01*
Y-4250D02*X1648696Y-3500D01*
X1650196D01*
X1650946Y-4250D01*
Y-8750D01*
X1650196Y-9500D02*X1650946Y-8750D01*
X1648696Y-9500D02*X1650196D01*
X1647946Y-8000D02*X1650946Y-5000D01*
X1652748Y-8750D02*X1653498Y-9500D01*
X1652748Y-4250D02*Y-8750D01*
Y-4250D02*X1653498Y-3500D01*
X1654998D01*
X1655748Y-4250D01*
Y-8750D01*
X1654998Y-9500D02*X1655748Y-8750D01*
X1653498Y-9500D02*X1654998D01*
X1652748Y-8000D02*X1655748Y-5000D01*
X1657549Y-9500D02*X1658299D01*
X1660101Y-8750D02*X1660851Y-9500D01*
X1660101Y-4250D02*Y-8750D01*
Y-4250D02*X1660851Y-3500D01*
X1662351D01*
X1663101Y-4250D01*
Y-8750D01*
X1662351Y-9500D02*X1663101Y-8750D01*
X1660851Y-9500D02*X1662351D01*
X1660101Y-8000D02*X1663101Y-5000D01*
X1664902Y-8750D02*X1665652Y-9500D01*
X1664902Y-4250D02*Y-8750D01*
Y-4250D02*X1665652Y-3500D01*
X1667152D01*
X1667902Y-4250D01*
Y-8750D01*
X1667152Y-9500D02*X1667902Y-8750D01*
X1665652Y-9500D02*X1667152D01*
X1664902Y-8000D02*X1667902Y-5000D01*
X1669704Y-8750D02*X1670454Y-9500D01*
X1669704Y-4250D02*Y-8750D01*
Y-4250D02*X1670454Y-3500D01*
X1671954D01*
X1672704Y-4250D01*
Y-8750D01*
X1671954Y-9500D02*X1672704Y-8750D01*
X1670454Y-9500D02*X1671954D01*
X1669704Y-8000D02*X1672704Y-5000D01*
X1674505Y-8750D02*X1675255Y-9500D01*
X1674505Y-4250D02*Y-8750D01*
Y-4250D02*X1675255Y-3500D01*
X1676755D01*
X1677505Y-4250D01*
Y-8750D01*
X1676755Y-9500D02*X1677505Y-8750D01*
X1675255Y-9500D02*X1676755D01*
X1674505Y-8000D02*X1677505Y-5000D01*
X1679307Y-8750D02*X1680057Y-9500D01*
X1679307Y-4250D02*Y-8750D01*
Y-4250D02*X1680057Y-3500D01*
X1681557D01*
X1682307Y-4250D01*
Y-8750D01*
X1681557Y-9500D02*X1682307Y-8750D01*
X1680057Y-9500D02*X1681557D01*
X1679307Y-8000D02*X1682307Y-5000D01*
X1684108Y-8750D02*X1684858Y-9500D01*
X1684108Y-4250D02*Y-8750D01*
Y-4250D02*X1684858Y-3500D01*
X1686358D01*
X1687108Y-4250D01*
Y-8750D01*
X1686358Y-9500D02*X1687108Y-8750D01*
X1684858Y-9500D02*X1686358D01*
X1684108Y-8000D02*X1687108Y-5000D01*
X1692360Y-7250D02*Y-9500D01*
Y-7250D02*X1693110Y-6500D01*
X1693860D01*
X1694610Y-7250D01*
Y-9500D01*
Y-7250D02*X1695360Y-6500D01*
X1696110D01*
X1696860Y-7250D01*
Y-9500D01*
X1691610Y-6500D02*X1692360Y-7250D01*
X1698661Y-5000D02*Y-5750D01*
Y-7250D02*Y-9500D01*
X1700163Y-3500D02*Y-8750D01*
X1700913Y-9500D01*
X1703164D02*X1705414D01*
X1706164Y-8750D01*
X1705414Y-8000D02*X1706164Y-8750D01*
X1703164Y-8000D02*X1705414D01*
X1702414Y-7250D02*X1703164Y-8000D01*
X1702414Y-7250D02*X1703164Y-6500D01*
X1705414D01*
X1706164Y-7250D01*
X1702414Y-8750D02*X1703164Y-9500D01*
X200750Y2028500D02*Y2022500D01*
X203000Y2028500D02*X203750Y2027750D01*
Y2023250D01*
X203000Y2022500D02*X203750Y2023250D01*
X200000Y2022500D02*X203000D01*
X200000Y2028500D02*X203000D01*
X207801Y2025500D02*X208551Y2024750D01*
X206301Y2025500D02*X207801D01*
X205551Y2024750D02*X206301Y2025500D01*
X205551Y2024750D02*Y2023250D01*
X206301Y2022500D01*
X208551Y2025500D02*Y2023250D01*
X209301Y2022500D01*
X206301D02*X207801D01*
X208551Y2023250D01*
X211853Y2028500D02*Y2023250D01*
X212603Y2022500D01*
X211103Y2026250D02*X212603D01*
X214854Y2022500D02*X217104D01*
X214104Y2023250D02*X214854Y2022500D01*
X214104Y2024750D02*Y2023250D01*
Y2024750D02*X214854Y2025500D01*
X216354D01*
X217104Y2024750D01*
X214104Y2024000D02*X217104D01*
Y2024750D02*Y2024000D01*
X218906Y2026250D02*X219656D01*
X218906Y2024750D02*X219656D01*
X224157Y2028500D02*Y2022500D01*
Y2028500D02*X227157D01*
X224157Y2025500D02*X226407D01*
X229709Y2024750D02*Y2022500D01*
Y2024750D02*X230459Y2025500D01*
X231959D01*
X228959D02*X229709Y2024750D01*
X233760Y2027000D02*Y2026250D01*
Y2024750D02*Y2022500D01*
X237962Y2028500D02*X240212D01*
Y2023250D01*
X239462Y2022500D02*X240212Y2023250D01*
X238712Y2022500D02*X239462D01*
X237962Y2023250D02*X238712Y2022500D01*
X242013Y2025500D02*Y2023250D01*
X242763Y2022500D01*
X244263D01*
X245013Y2023250D01*
Y2025500D02*Y2023250D01*
X247565Y2024750D02*Y2022500D01*
Y2024750D02*X248315Y2025500D01*
X249065D01*
X249815Y2024750D01*
Y2022500D01*
X246815Y2025500D02*X247565Y2024750D01*
X255066Y2022500D02*X256566D01*
X255816Y2028500D02*Y2022500D01*
X254316Y2027000D02*X255816Y2028500D01*
X258368Y2022500D02*X262118Y2026250D01*
Y2028500D02*Y2026250D01*
X258368Y2028500D02*X262118D01*
X266619Y2023250D02*X267369Y2022500D01*
X266619Y2027750D02*Y2023250D01*
Y2027750D02*X267369Y2028500D01*
X268869D01*
X269619Y2027750D01*
Y2023250D01*
X268869Y2022500D02*X269619Y2023250D01*
X267369Y2022500D02*X268869D01*
X266619Y2024000D02*X269619Y2027000D01*
X271421Y2027750D02*X272171Y2028500D01*
X273671D01*
X274421Y2027750D01*
Y2023250D01*
X273671Y2022500D02*X274421Y2023250D01*
X272171Y2022500D02*X273671D01*
X271421Y2023250D02*X272171Y2022500D01*
Y2025500D02*X274421D01*
X276222Y2026250D02*X276972D01*
X276222Y2024750D02*X276972D01*
X279524Y2022500D02*X281024D01*
X280274Y2028500D02*Y2022500D01*
X278774Y2027000D02*X280274Y2028500D01*
X282825Y2023250D02*X283575Y2022500D01*
X282825Y2024750D02*Y2023250D01*
Y2024750D02*X283575Y2025500D01*
X285075D01*
X285825Y2024750D01*
Y2023250D01*
X285075Y2022500D02*X285825Y2023250D01*
X283575Y2022500D02*X285075D01*
X282825Y2026250D02*X283575Y2025500D01*
X282825Y2027750D02*Y2026250D01*
Y2027750D02*X283575Y2028500D01*
X285075D01*
X285825Y2027750D01*
Y2026250D01*
X285075Y2025500D02*X285825Y2026250D01*
X287627D02*X288377D01*
X287627Y2024750D02*X288377D01*
X290178Y2028500D02*X293178D01*
X290178D02*Y2025500D01*
X290928Y2026250D01*
X292428D01*
X293178Y2025500D01*
Y2023250D01*
X292428Y2022500D02*X293178Y2023250D01*
X290928Y2022500D02*X292428D01*
X290178Y2023250D02*X290928Y2022500D01*
X295730D02*X297230D01*
X296480Y2028500D02*Y2022500D01*
X294980Y2027000D02*X296480Y2028500D01*
X301731Y2027750D02*X302481Y2028500D01*
X304731D01*
X305481Y2027750D01*
Y2026250D01*
X301731Y2022500D02*X305481Y2026250D01*
X301731Y2022500D02*X305481D01*
X307283Y2023250D02*X308033Y2022500D01*
X307283Y2027750D02*Y2023250D01*
Y2027750D02*X308033Y2028500D01*
X309533D01*
X310283Y2027750D01*
Y2023250D01*
X309533Y2022500D02*X310283Y2023250D01*
X308033Y2022500D02*X309533D01*
X307283Y2024000D02*X310283Y2027000D01*
X312834Y2022500D02*X314334D01*
X313584Y2028500D02*Y2022500D01*
X312084Y2027000D02*X313584Y2028500D01*
X316886Y2022500D02*X318386D01*
X317636Y2028500D02*Y2022500D01*
X316136Y2027000D02*X317636Y2028500D01*
X322887D02*Y2023250D01*
X323637Y2022500D01*
X325137D01*
X325887Y2023250D01*
Y2028500D02*Y2023250D01*
X327689Y2028500D02*X330689D01*
X329189D02*Y2022500D01*
X333240D02*X335490D01*
X332490Y2023250D02*X333240Y2022500D01*
X332490Y2027750D02*Y2023250D01*
Y2027750D02*X333240Y2028500D01*
X335490D01*
X200000Y2042750D02*Y2037500D01*
Y2042750D02*X200750Y2043500D01*
X203000D01*
X203750Y2042750D01*
Y2037500D01*
X200000Y2040500D02*X203750D01*
X205551D02*Y2038250D01*
X206301Y2037500D01*
X207801D01*
X208551Y2038250D01*
Y2040500D02*Y2038250D01*
X211103Y2043500D02*Y2038250D01*
X211853Y2037500D01*
X210353Y2041250D02*X211853D01*
X213354Y2043500D02*Y2037500D01*
Y2039750D02*X214104Y2040500D01*
X215604D01*
X216354Y2039750D01*
Y2037500D01*
X218156Y2039750D02*Y2038250D01*
Y2039750D02*X218906Y2040500D01*
X220406D01*
X221156Y2039750D01*
Y2038250D01*
X220406Y2037500D02*X221156Y2038250D01*
X218906Y2037500D02*X220406D01*
X218156Y2038250D02*X218906Y2037500D01*
X223707Y2039750D02*Y2037500D01*
Y2039750D02*X224457Y2040500D01*
X225957D01*
X222957D02*X223707Y2039750D01*
X227759Y2041250D02*X228509D01*
X227759Y2039750D02*X228509D01*
X233010Y2043500D02*Y2037500D01*
Y2043500D02*X236010D01*
X233010Y2040500D02*X235260D01*
X240062D02*X240812Y2039750D01*
X238562Y2040500D02*X240062D01*
X237812Y2039750D02*X238562Y2040500D01*
X237812Y2039750D02*Y2038250D01*
X238562Y2037500D01*
X240812Y2040500D02*Y2038250D01*
X241562Y2037500D01*
X238562D02*X240062D01*
X240812Y2038250D01*
X243363Y2043500D02*Y2037500D01*
Y2038250D02*X244113Y2037500D01*
X245613D01*
X246363Y2038250D01*
Y2039750D02*Y2038250D01*
X245613Y2040500D02*X246363Y2039750D01*
X244113Y2040500D02*X245613D01*
X243363Y2039750D02*X244113Y2040500D01*
X248165Y2037500D02*X251165D01*
X252966Y2042750D02*Y2037500D01*
Y2042750D02*X253716Y2043500D01*
X255966D01*
X256716Y2042750D01*
Y2037500D01*
X252966Y2040500D02*X256716D01*
X258518D02*Y2038250D01*
X259268Y2037500D01*
X260768D01*
X261518Y2038250D01*
Y2040500D02*Y2038250D01*
X264069Y2043500D02*Y2038250D01*
X264819Y2037500D01*
X263319Y2041250D02*X264819D01*
X266321Y2043500D02*Y2037500D01*
Y2039750D02*X267071Y2040500D01*
X268571D01*
X269321Y2039750D01*
Y2037500D01*
X271122Y2039750D02*Y2038250D01*
Y2039750D02*X271872Y2040500D01*
X273372D01*
X274122Y2039750D01*
Y2038250D01*
X273372Y2037500D02*X274122Y2038250D01*
X271872Y2037500D02*X273372D01*
X271122Y2038250D02*X271872Y2037500D01*
X276674Y2039750D02*Y2037500D01*
Y2039750D02*X277424Y2040500D01*
X278924D01*
X275924D02*X276674Y2039750D01*
X200000Y2058500D02*X203000D01*
X201500D02*Y2052500D01*
X204801Y2057000D02*Y2056250D01*
Y2054750D02*Y2052500D01*
X207053Y2058500D02*Y2053250D01*
X207803Y2052500D01*
X206303Y2056250D02*X207803D01*
X209304Y2058500D02*Y2053250D01*
X210054Y2052500D01*
X212306D02*X214556D01*
X211556Y2053250D02*X212306Y2052500D01*
X211556Y2054750D02*Y2053250D01*
Y2054750D02*X212306Y2055500D01*
X213806D01*
X214556Y2054750D01*
X211556Y2054000D02*X214556D01*
Y2054750D02*Y2054000D01*
X216357Y2056250D02*X217107D01*
X216357Y2054750D02*X217107D01*
X221609Y2053250D02*X222359Y2052500D01*
X221609Y2057750D02*X222359Y2058500D01*
X221609Y2057750D02*Y2053250D01*
X224160Y2055500D02*Y2053250D01*
X224910Y2052500D01*
X226410D01*
X227160Y2053250D01*
Y2055500D02*Y2053250D01*
X229712Y2054750D02*Y2052500D01*
Y2054750D02*X230462Y2055500D01*
X231212D01*
X231962Y2054750D01*
Y2052500D01*
X228962Y2055500D02*X229712Y2054750D01*
X233763Y2058500D02*Y2052500D01*
Y2054750D02*X236013Y2052500D01*
X233763Y2054750D02*X235263Y2056250D01*
X238565Y2054750D02*Y2052500D01*
Y2054750D02*X239315Y2055500D01*
X240065D01*
X240815Y2054750D01*
Y2052500D01*
X237815Y2055500D02*X238565Y2054750D01*
X242616D02*Y2053250D01*
Y2054750D02*X243366Y2055500D01*
X244866D01*
X245616Y2054750D01*
Y2053250D01*
X244866Y2052500D02*X245616Y2053250D01*
X243366Y2052500D02*X244866D01*
X242616Y2053250D02*X243366Y2052500D01*
X247418Y2055500D02*Y2053250D01*
X248168Y2052500D01*
X248918D01*
X249668Y2053250D01*
Y2055500D02*Y2053250D01*
X250418Y2052500D01*
X251168D01*
X251918Y2053250D01*
Y2055500D02*Y2053250D01*
X254469Y2054750D02*Y2052500D01*
Y2054750D02*X255219Y2055500D01*
X255969D01*
X256719Y2054750D01*
Y2052500D01*
X253719Y2055500D02*X254469Y2054750D01*
X258521Y2058500D02*X259271Y2057750D01*
Y2053250D01*
X258521Y2052500D02*X259271Y2053250D01*
X263772Y2055500D02*X266772D01*
X271274Y2058500D02*Y2052500D01*
Y2058500D02*X274274D01*
X271274Y2055500D02*X273524D01*
X278325D02*X279075Y2054750D01*
X276825Y2055500D02*X278325D01*
X276075Y2054750D02*X276825Y2055500D01*
X276075Y2054750D02*Y2053250D01*
X276825Y2052500D01*
X279075Y2055500D02*Y2053250D01*
X279825Y2052500D01*
X276825D02*X278325D01*
X279075Y2053250D01*
X281627Y2058500D02*Y2052500D01*
Y2053250D02*X282377Y2052500D01*
X283877D01*
X284627Y2053250D01*
Y2054750D02*Y2053250D01*
X283877Y2055500D02*X284627Y2054750D01*
X282377Y2055500D02*X283877D01*
X281627Y2054750D02*X282377Y2055500D01*
X287178Y2054750D02*Y2052500D01*
Y2054750D02*X287928Y2055500D01*
X289428D01*
X286428D02*X287178Y2054750D01*
X291230Y2057000D02*Y2056250D01*
Y2054750D02*Y2052500D01*
X293481Y2055500D02*X295731D01*
X292731Y2054750D02*X293481Y2055500D01*
X292731Y2054750D02*Y2053250D01*
X293481Y2052500D01*
X295731D01*
X299783Y2055500D02*X300533Y2054750D01*
X298283Y2055500D02*X299783D01*
X297533Y2054750D02*X298283Y2055500D01*
X297533Y2054750D02*Y2053250D01*
X298283Y2052500D01*
X300533Y2055500D02*Y2053250D01*
X301283Y2052500D01*
X298283D02*X299783D01*
X300533Y2053250D01*
X303834Y2058500D02*Y2053250D01*
X304584Y2052500D01*
X303084Y2056250D02*X304584D01*
X306086Y2057000D02*Y2056250D01*
Y2054750D02*Y2052500D01*
X307587Y2054750D02*Y2053250D01*
Y2054750D02*X308337Y2055500D01*
X309837D01*
X310587Y2054750D01*
Y2053250D01*
X309837Y2052500D02*X310587Y2053250D01*
X308337Y2052500D02*X309837D01*
X307587Y2053250D02*X308337Y2052500D01*
X313139Y2054750D02*Y2052500D01*
Y2054750D02*X313889Y2055500D01*
X314639D01*
X315389Y2054750D01*
Y2052500D01*
X312389Y2055500D02*X313139Y2054750D01*
X320640Y2058500D02*Y2052500D01*
X322890Y2058500D02*X323640Y2057750D01*
Y2053250D01*
X322890Y2052500D02*X323640Y2053250D01*
X319890Y2052500D02*X322890D01*
X319890Y2058500D02*X322890D01*
X326192Y2054750D02*Y2052500D01*
Y2054750D02*X326942Y2055500D01*
X328442D01*
X325442D02*X326192Y2054750D01*
X332493Y2055500D02*X333243Y2054750D01*
X330993Y2055500D02*X332493D01*
X330243Y2054750D02*X330993Y2055500D01*
X330243Y2054750D02*Y2053250D01*
X330993Y2052500D01*
X333243Y2055500D02*Y2053250D01*
X333993Y2052500D01*
X330993D02*X332493D01*
X333243Y2053250D01*
X335795Y2055500D02*Y2053250D01*
X336545Y2052500D01*
X337295D01*
X338045Y2053250D01*
Y2055500D02*Y2053250D01*
X338795Y2052500D01*
X339545D01*
X340295Y2053250D01*
Y2055500D02*Y2053250D01*
X342096Y2057000D02*Y2056250D01*
Y2054750D02*Y2052500D01*
X344348Y2054750D02*Y2052500D01*
Y2054750D02*X345098Y2055500D01*
X345848D01*
X346598Y2054750D01*
Y2052500D01*
X343598Y2055500D02*X344348Y2054750D01*
X350649Y2055500D02*X351399Y2054750D01*
X349149Y2055500D02*X350649D01*
X348399Y2054750D02*X349149Y2055500D01*
X348399Y2054750D02*Y2053250D01*
X349149Y2052500D01*
X350649D01*
X351399Y2053250D01*
X348399Y2051000D02*X349149Y2050250D01*
X350649D01*
X351399Y2051000D01*
Y2055500D02*Y2051000D01*
M02*
