G04 start of page 13 for group -4079 idx -4079 *
G04 Title: ChangeClearSize Action Test, topsilk *
G04 Creator: pcb v4.1.0-g2256aec2 *
G04 CreationDate: Sun May 13 23:37:25 2018 UTC *
G04 For: parkecw1 *
G04 Format: Gerber/RS-274X *
G04 PCB-Dimensions (mil): 1400.00 1500.00 *
G04 PCB-Coordinate-Origin: lower left *
%MOIN*%
%FSLAX25Y25*%
%LNTOPSILK*%
%ADD36C,0.0100*%
G54D36*X2385Y133230D02*Y130150D01*
X2000Y133230D02*X3540D01*
X3925Y132845D01*
Y132075D01*
X3540Y131690D02*X3925Y132075D01*
X2385Y131690D02*X3540D01*
X4849Y131305D02*Y130535D01*
Y131305D02*X5234Y131690D01*
X6004D01*
X6389Y131305D01*
Y130535D01*
X6004Y130150D02*X6389Y130535D01*
X5234Y130150D02*X6004D01*
X4849Y130535D02*X5234Y130150D01*
X7313Y133230D02*Y130535D01*
X7698Y130150D01*
X8468Y131690D02*Y130535D01*
X8853Y130150D01*
X10008Y131690D02*Y129380D01*
X9623Y128995D02*X10008Y129380D01*
X8853Y128995D02*X9623D01*
X8468Y129380D02*X8853Y128995D01*
Y130150D02*X9623D01*
X10008Y130535D01*
X12703Y131690D02*X13858D01*
X12318Y131305D02*X12703Y131690D01*
X12318Y131305D02*Y130535D01*
X12703Y130150D01*
X13858D01*
X14782Y133230D02*Y130535D01*
X15167Y130150D01*
X16322D02*X17477D01*
X15937Y130535D02*X16322Y130150D01*
X15937Y131305D02*Y130535D01*
Y131305D02*X16322Y131690D01*
X17092D01*
X17477Y131305D01*
X15937Y130920D02*X17477D01*
Y131305D02*Y130920D01*
X19556Y131690D02*X19941Y131305D01*
X18786Y131690D02*X19556D01*
X18401Y131305D02*X18786Y131690D01*
X18401Y131305D02*Y130535D01*
X18786Y130150D01*
X19941Y131690D02*Y130535D01*
X20326Y130150D01*
X18786D02*X19556D01*
X19941Y130535D01*
X21635Y131305D02*Y130150D01*
Y131305D02*X22020Y131690D01*
X22790D01*
X21250D02*X21635Y131305D01*
X24869Y131690D02*X25254Y131305D01*
X24099Y131690D02*X24869D01*
X23714Y131305D02*X24099Y131690D01*
X23714Y131305D02*Y130535D01*
X24099Y130150D01*
X25254Y131690D02*Y130535D01*
X25639Y130150D01*
X24099D02*X24869D01*
X25254Y130535D01*
X26948Y131305D02*Y130150D01*
Y131305D02*X27333Y131690D01*
X27718D01*
X28103Y131305D01*
Y130150D01*
X26563Y131690D02*X26948Y131305D01*
X29412Y131690D02*X30567D01*
X29027Y131305D02*X29412Y131690D01*
X29027Y131305D02*Y130535D01*
X29412Y130150D01*
X30567D01*
X31876D02*X33031D01*
X31491Y130535D02*X31876Y130150D01*
X31491Y131305D02*Y130535D01*
Y131305D02*X31876Y131690D01*
X32646D01*
X33031Y131305D01*
X31491Y130920D02*X33031D01*
Y131305D02*Y130920D01*
X15000Y124535D02*X15385Y124150D01*
X15000Y126845D02*Y124535D01*
Y126845D02*X15385Y127230D01*
X16155D01*
X16540Y126845D01*
Y124535D01*
X16155Y124150D02*X16540Y124535D01*
X15385Y124150D02*X16155D01*
X15000Y124920D02*X16540Y126460D01*
X17464Y124150D02*X17849D01*
X18773Y126845D02*X19158Y127230D01*
X20313D01*
X20698Y126845D01*
Y126075D01*
X18773Y124150D02*X20698Y126075D01*
X18773Y124150D02*X20698D01*
X21622Y127230D02*X23162D01*
X21622D02*Y125690D01*
X22007Y126075D01*
X22777D01*
X23162Y125690D01*
Y124535D01*
X22777Y124150D02*X23162Y124535D01*
X22007Y124150D02*X22777D01*
X21622Y124535D02*X22007Y124150D01*
X25857Y125305D02*Y124150D01*
Y125305D02*X26242Y125690D01*
X26627D01*
X27012Y125305D01*
Y124150D01*
Y125305D02*X27397Y125690D01*
X27782D01*
X28167Y125305D01*
Y124150D01*
X25472Y125690D02*X25857Y125305D01*
X29476D02*Y124150D01*
Y125305D02*X29861Y125690D01*
X30246D01*
X30631Y125305D01*
Y124150D01*
Y125305D02*X31016Y125690D01*
X31401D01*
X31786Y125305D01*
Y124150D01*
X29091Y125690D02*X29476Y125305D01*
X23385Y115305D02*Y114150D01*
Y115305D02*X23770Y115690D01*
X24155D01*
X24540Y115305D01*
Y114150D01*
X23000Y115690D02*X23385Y115305D01*
X25464D02*Y114535D01*
Y115305D02*X25849Y115690D01*
X26619D01*
X27004Y115305D01*
Y114535D01*
X26619Y114150D02*X27004Y114535D01*
X25849Y114150D02*X26619D01*
X25464Y114535D02*X25849Y114150D01*
X28313Y115305D02*Y114150D01*
Y115305D02*X28698Y115690D01*
X29083D01*
X29468Y115305D01*
Y114150D01*
X27928Y115690D02*X28313Y115305D01*
X30777Y114150D02*X31932D01*
X30392Y114535D02*X30777Y114150D01*
X30392Y115305D02*Y114535D01*
Y115305D02*X30777Y115690D01*
X31547D01*
X31932Y115305D01*
X30392Y114920D02*X31932D01*
Y115305D02*Y114920D01*
X35390Y134270D02*Y133100D01*
Y134270D02*X35780Y134660D01*
X36170D01*
X36560Y134270D01*
Y133100D01*
X35000Y134660D02*X35390Y134270D01*
X37496D02*Y133490D01*
Y134270D02*X37886Y134660D01*
X38666D01*
X39056Y134270D01*
Y133490D01*
X38666Y133100D02*X39056Y133490D01*
X37886Y133100D02*X38666D01*
X37496Y133490D02*X37886Y133100D01*
X40382Y134270D02*Y133100D01*
Y134270D02*X40772Y134660D01*
X41162D01*
X41552Y134270D01*
Y133100D01*
X39992Y134660D02*X40382Y134270D01*
X42878Y133100D02*X44048D01*
X42488Y133490D02*X42878Y133100D01*
X42488Y134270D02*Y133490D01*
Y134270D02*X42878Y134660D01*
X43658D01*
X44048Y134270D01*
X42488Y133880D02*X44048D01*
Y134270D02*Y133880D01*
X4000Y146220D02*X4780D01*
X4390D02*Y143100D01*
X4000D02*X4780D01*
X6106Y144270D02*Y143100D01*
Y144270D02*X6496Y144660D01*
X6886D01*
X7276Y144270D01*
Y143100D01*
X5716Y144660D02*X6106Y144270D01*
X8602D02*Y141930D01*
X8212Y144660D02*X8602Y144270D01*
X8992Y144660D01*
X9772D01*
X10162Y144270D01*
Y143490D01*
X9772Y143100D02*X10162Y143490D01*
X8992Y143100D02*X9772D01*
X8602Y143490D02*X8992Y143100D01*
X11098Y144660D02*Y143490D01*
X11488Y143100D01*
X12268D01*
X12658Y143490D01*
Y144660D02*Y143490D01*
X13984Y146220D02*Y143490D01*
X14374Y143100D01*
X13594Y145050D02*X14374D01*
X16558Y144660D02*X17338Y143100D01*
X18118Y144660D02*X17338Y143100D01*
X20224Y144660D02*X20614Y144270D01*
X19444Y144660D02*X20224D01*
X19054Y144270D02*X19444Y144660D01*
X19054Y144270D02*Y143490D01*
X19444Y143100D01*
X20614Y144660D02*Y143490D01*
X21004Y143100D01*
X19444D02*X20224D01*
X20614Y143490D01*
X21940Y146220D02*Y143490D01*
X22330Y143100D01*
X23110Y144660D02*Y143490D01*
X23500Y143100D01*
X24280D01*
X24670Y143490D01*
Y144660D02*Y143490D01*
X25996Y143100D02*X27166D01*
X25606Y143490D02*X25996Y143100D01*
X25606Y144270D02*Y143490D01*
Y144270D02*X25996Y144660D01*
X26776D01*
X27166Y144270D01*
X25606Y143880D02*X27166D01*
Y144270D02*Y143880D01*
X28492Y143100D02*X29662D01*
X30052Y143490D01*
X29662Y143880D02*X30052Y143490D01*
X28492Y143880D02*X29662D01*
X28102Y144270D02*X28492Y143880D01*
X28102Y144270D02*X28492Y144660D01*
X29662D01*
X30052Y144270D01*
X28102Y143490D02*X28492Y143100D01*
X15000Y104535D02*X15385Y104150D01*
X15000Y106845D02*Y104535D01*
Y106845D02*X15385Y107230D01*
X16155D01*
X16540Y106845D01*
Y104535D01*
X16155Y104150D02*X16540Y104535D01*
X15385Y104150D02*X16155D01*
X15000Y104920D02*X16540Y106460D01*
X17464Y104150D02*X17849D01*
X18773Y106845D02*X19158Y107230D01*
X20313D01*
X20698Y106845D01*
Y106075D01*
X18773Y104150D02*X20698Y106075D01*
X18773Y104150D02*X20698D01*
X21622Y107230D02*X23162D01*
X21622D02*Y105690D01*
X22007Y106075D01*
X22777D01*
X23162Y105690D01*
Y104535D01*
X22777Y104150D02*X23162Y104535D01*
X22007Y104150D02*X22777D01*
X21622Y104535D02*X22007Y104150D01*
X25857Y105305D02*Y104150D01*
Y105305D02*X26242Y105690D01*
X26627D01*
X27012Y105305D01*
Y104150D01*
Y105305D02*X27397Y105690D01*
X27782D01*
X28167Y105305D01*
Y104150D01*
X25472Y105690D02*X25857Y105305D01*
X29476D02*Y104150D01*
Y105305D02*X29861Y105690D01*
X30246D01*
X30631Y105305D01*
Y104150D01*
Y105305D02*X31016Y105690D01*
X31401D01*
X31786Y105305D01*
Y104150D01*
X29091Y105690D02*X29476Y105305D01*
X23385Y95305D02*Y94150D01*
Y95305D02*X23770Y95690D01*
X24155D01*
X24540Y95305D01*
Y94150D01*
X23000Y95690D02*X23385Y95305D01*
X25464D02*Y94535D01*
Y95305D02*X25849Y95690D01*
X26619D01*
X27004Y95305D01*
Y94535D01*
X26619Y94150D02*X27004Y94535D01*
X25849Y94150D02*X26619D01*
X25464Y94535D02*X25849Y94150D01*
X28313Y95305D02*Y94150D01*
Y95305D02*X28698Y95690D01*
X29083D01*
X29468Y95305D01*
Y94150D01*
X27928Y95690D02*X28313Y95305D01*
X30777Y94150D02*X31932D01*
X30392Y94535D02*X30777Y94150D01*
X30392Y95305D02*Y94535D01*
Y95305D02*X30777Y95690D01*
X31547D01*
X31932Y95305D01*
X30392Y94920D02*X31932D01*
Y95305D02*Y94920D01*
X15000Y84535D02*X15385Y84150D01*
X15000Y86845D02*Y84535D01*
Y86845D02*X15385Y87230D01*
X16155D01*
X16540Y86845D01*
Y84535D01*
X16155Y84150D02*X16540Y84535D01*
X15385Y84150D02*X16155D01*
X15000Y84920D02*X16540Y86460D01*
X17464Y84150D02*X17849D01*
X18773Y86845D02*X19158Y87230D01*
X20313D01*
X20698Y86845D01*
Y86075D01*
X18773Y84150D02*X20698Y86075D01*
X18773Y84150D02*X20698D01*
X21622Y87230D02*X23162D01*
X21622D02*Y85690D01*
X22007Y86075D01*
X22777D01*
X23162Y85690D01*
Y84535D01*
X22777Y84150D02*X23162Y84535D01*
X22007Y84150D02*X22777D01*
X21622Y84535D02*X22007Y84150D01*
X25857Y85305D02*Y84150D01*
Y85305D02*X26242Y85690D01*
X26627D01*
X27012Y85305D01*
Y84150D01*
Y85305D02*X27397Y85690D01*
X27782D01*
X28167Y85305D01*
Y84150D01*
X25472Y85690D02*X25857Y85305D01*
X29476D02*Y84150D01*
Y85305D02*X29861Y85690D01*
X30246D01*
X30631Y85305D01*
Y84150D01*
Y85305D02*X31016Y85690D01*
X31401D01*
X31786Y85305D01*
Y84150D01*
X29091Y85690D02*X29476Y85305D01*
X23385Y75305D02*Y74150D01*
Y75305D02*X23770Y75690D01*
X24155D01*
X24540Y75305D01*
Y74150D01*
X23000Y75690D02*X23385Y75305D01*
X25464D02*Y74535D01*
Y75305D02*X25849Y75690D01*
X26619D01*
X27004Y75305D01*
Y74535D01*
X26619Y74150D02*X27004Y74535D01*
X25849Y74150D02*X26619D01*
X25464Y74535D02*X25849Y74150D01*
X28313Y75305D02*Y74150D01*
Y75305D02*X28698Y75690D01*
X29083D01*
X29468Y75305D01*
Y74150D01*
X27928Y75690D02*X28313Y75305D01*
X30777Y74150D02*X31932D01*
X30392Y74535D02*X30777Y74150D01*
X30392Y75305D02*Y74535D01*
Y75305D02*X30777Y75690D01*
X31547D01*
X31932Y75305D01*
X30392Y74920D02*X31932D01*
Y75305D02*Y74920D01*
X15000Y64535D02*X15385Y64150D01*
X15000Y66845D02*Y64535D01*
Y66845D02*X15385Y67230D01*
X16155D01*
X16540Y66845D01*
Y64535D01*
X16155Y64150D02*X16540Y64535D01*
X15385Y64150D02*X16155D01*
X15000Y64920D02*X16540Y66460D01*
X17464Y64150D02*X17849D01*
X18773Y66845D02*X19158Y67230D01*
X20313D01*
X20698Y66845D01*
Y66075D01*
X18773Y64150D02*X20698Y66075D01*
X18773Y64150D02*X20698D01*
X21622Y67230D02*X23162D01*
X21622D02*Y65690D01*
X22007Y66075D01*
X22777D01*
X23162Y65690D01*
Y64535D01*
X22777Y64150D02*X23162Y64535D01*
X22007Y64150D02*X22777D01*
X21622Y64535D02*X22007Y64150D01*
X25857Y65305D02*Y64150D01*
Y65305D02*X26242Y65690D01*
X26627D01*
X27012Y65305D01*
Y64150D01*
Y65305D02*X27397Y65690D01*
X27782D01*
X28167Y65305D01*
Y64150D01*
X25472Y65690D02*X25857Y65305D01*
X29476D02*Y64150D01*
Y65305D02*X29861Y65690D01*
X30246D01*
X30631Y65305D01*
Y64150D01*
Y65305D02*X31016Y65690D01*
X31401D01*
X31786Y65305D01*
Y64150D01*
X29091Y65690D02*X29476Y65305D01*
X23385Y15305D02*Y14150D01*
Y15305D02*X23770Y15690D01*
X24155D01*
X24540Y15305D01*
Y14150D01*
X23000Y15690D02*X23385Y15305D01*
X25464D02*Y14535D01*
Y15305D02*X25849Y15690D01*
X26619D01*
X27004Y15305D01*
Y14535D01*
X26619Y14150D02*X27004Y14535D01*
X25849Y14150D02*X26619D01*
X25464Y14535D02*X25849Y14150D01*
X28313Y15305D02*Y14150D01*
Y15305D02*X28698Y15690D01*
X29083D01*
X29468Y15305D01*
Y14150D01*
X27928Y15690D02*X28313Y15305D01*
X30777Y14150D02*X31932D01*
X30392Y14535D02*X30777Y14150D01*
X30392Y15305D02*Y14535D01*
Y15305D02*X30777Y15690D01*
X31547D01*
X31932Y15305D01*
X30392Y14920D02*X31932D01*
Y15305D02*Y14920D01*
X15000Y24535D02*X15385Y24150D01*
X15000Y26845D02*Y24535D01*
Y26845D02*X15385Y27230D01*
X16155D01*
X16540Y26845D01*
Y24535D01*
X16155Y24150D02*X16540Y24535D01*
X15385Y24150D02*X16155D01*
X15000Y24920D02*X16540Y26460D01*
X17464Y24150D02*X17849D01*
X18773Y26845D02*X19158Y27230D01*
X20313D01*
X20698Y26845D01*
Y26075D01*
X18773Y24150D02*X20698Y26075D01*
X18773Y24150D02*X20698D01*
X21622Y27230D02*X23162D01*
X21622D02*Y25690D01*
X22007Y26075D01*
X22777D01*
X23162Y25690D01*
Y24535D01*
X22777Y24150D02*X23162Y24535D01*
X22007Y24150D02*X22777D01*
X21622Y24535D02*X22007Y24150D01*
X25857Y25305D02*Y24150D01*
Y25305D02*X26242Y25690D01*
X26627D01*
X27012Y25305D01*
Y24150D01*
Y25305D02*X27397Y25690D01*
X27782D01*
X28167Y25305D01*
Y24150D01*
X25472Y25690D02*X25857Y25305D01*
X29476D02*Y24150D01*
Y25305D02*X29861Y25690D01*
X30246D01*
X30631Y25305D01*
Y24150D01*
Y25305D02*X31016Y25690D01*
X31401D01*
X31786Y25305D01*
Y24150D01*
X29091Y25690D02*X29476Y25305D01*
X23385Y35305D02*Y34150D01*
Y35305D02*X23770Y35690D01*
X24155D01*
X24540Y35305D01*
Y34150D01*
X23000Y35690D02*X23385Y35305D01*
X25464D02*Y34535D01*
Y35305D02*X25849Y35690D01*
X26619D01*
X27004Y35305D01*
Y34535D01*
X26619Y34150D02*X27004Y34535D01*
X25849Y34150D02*X26619D01*
X25464Y34535D02*X25849Y34150D01*
X28313Y35305D02*Y34150D01*
Y35305D02*X28698Y35690D01*
X29083D01*
X29468Y35305D01*
Y34150D01*
X27928Y35690D02*X28313Y35305D01*
X30777Y34150D02*X31932D01*
X30392Y34535D02*X30777Y34150D01*
X30392Y35305D02*Y34535D01*
Y35305D02*X30777Y35690D01*
X31547D01*
X31932Y35305D01*
X30392Y34920D02*X31932D01*
Y35305D02*Y34920D01*
X15000Y44535D02*X15385Y44150D01*
X15000Y46845D02*Y44535D01*
Y46845D02*X15385Y47230D01*
X16155D01*
X16540Y46845D01*
Y44535D01*
X16155Y44150D02*X16540Y44535D01*
X15385Y44150D02*X16155D01*
X15000Y44920D02*X16540Y46460D01*
X17464Y44150D02*X17849D01*
X18773Y46845D02*X19158Y47230D01*
X20313D01*
X20698Y46845D01*
Y46075D01*
X18773Y44150D02*X20698Y46075D01*
X18773Y44150D02*X20698D01*
X21622Y47230D02*X23162D01*
X21622D02*Y45690D01*
X22007Y46075D01*
X22777D01*
X23162Y45690D01*
Y44535D01*
X22777Y44150D02*X23162Y44535D01*
X22007Y44150D02*X22777D01*
X21622Y44535D02*X22007Y44150D01*
X25857Y45305D02*Y44150D01*
Y45305D02*X26242Y45690D01*
X26627D01*
X27012Y45305D01*
Y44150D01*
Y45305D02*X27397Y45690D01*
X27782D01*
X28167Y45305D01*
Y44150D01*
X25472Y45690D02*X25857Y45305D01*
X29476D02*Y44150D01*
Y45305D02*X29861Y45690D01*
X30246D01*
X30631Y45305D01*
Y44150D01*
Y45305D02*X31016Y45690D01*
X31401D01*
X31786Y45305D01*
Y44150D01*
X29091Y45690D02*X29476Y45305D01*
X23385Y55305D02*Y54150D01*
Y55305D02*X23770Y55690D01*
X24155D01*
X24540Y55305D01*
Y54150D01*
X23000Y55690D02*X23385Y55305D01*
X25464D02*Y54535D01*
Y55305D02*X25849Y55690D01*
X26619D01*
X27004Y55305D01*
Y54535D01*
X26619Y54150D02*X27004Y54535D01*
X25849Y54150D02*X26619D01*
X25464Y54535D02*X25849Y54150D01*
X28313Y55305D02*Y54150D01*
Y55305D02*X28698Y55690D01*
X29083D01*
X29468Y55305D01*
Y54150D01*
X27928Y55690D02*X28313Y55305D01*
X30777Y54150D02*X31932D01*
X30392Y54535D02*X30777Y54150D01*
X30392Y55305D02*Y54535D01*
Y55305D02*X30777Y55690D01*
X31547D01*
X31932Y55305D01*
X30392Y54920D02*X31932D01*
Y55305D02*Y54920D01*
X95000Y122230D02*X96540D01*
X95770D02*Y119150D01*
X97464Y122230D02*Y119150D01*
Y120305D02*X97849Y120690D01*
X98619D01*
X99004Y120305D01*
Y119150D01*
X100313Y120305D02*Y119150D01*
Y120305D02*X100698Y120690D01*
X101468D01*
X99928D02*X100313Y120305D01*
X102392D02*Y119535D01*
Y120305D02*X102777Y120690D01*
X103547D01*
X103932Y120305D01*
Y119535D01*
X103547Y119150D02*X103932Y119535D01*
X102777Y119150D02*X103547D01*
X102392Y119535D02*X102777Y119150D01*
X104856Y120690D02*Y119535D01*
X105241Y119150D01*
X106011D01*
X106396Y119535D01*
Y120690D02*Y119535D01*
X108475Y120690D02*X108860Y120305D01*
X107705Y120690D02*X108475D01*
X107320Y120305D02*X107705Y120690D01*
X107320Y120305D02*Y119535D01*
X107705Y119150D01*
X108475D01*
X108860Y119535D01*
X107320Y118380D02*X107705Y117995D01*
X108475D01*
X108860Y118380D01*
Y120690D02*Y118380D01*
X109784Y122230D02*Y119150D01*
Y120305D02*X110169Y120690D01*
X110939D01*
X111324Y120305D01*
Y119150D01*
X113634Y120690D02*X114404Y119150D01*
X115174Y120690D02*X114404Y119150D01*
X116098Y121460D02*Y121383D01*
Y120305D02*Y119150D01*
X118023Y120690D02*X118408Y120305D01*
X117253Y120690D02*X118023D01*
X116868Y120305D02*X117253Y120690D01*
X116868Y120305D02*Y119535D01*
X117253Y119150D01*
X118408Y120690D02*Y119535D01*
X118793Y119150D01*
X117253D02*X118023D01*
X118408Y119535D01*
X120102Y119150D02*X121257D01*
X121642Y119535D01*
X121257Y119920D02*X121642Y119535D01*
X120102Y119920D02*X121257D01*
X119717Y120305D02*X120102Y119920D01*
X119717Y120305D02*X120102Y120690D01*
X121257D01*
X121642Y120305D01*
X119717Y119535D02*X120102Y119150D01*
X40560Y141220D02*X40950Y140830D01*
X39390Y141220D02*X40560D01*
X39000Y140830D02*X39390Y141220D01*
X39000Y140830D02*Y140050D01*
X39390Y139660D01*
X40560D01*
X40950Y139270D01*
Y138490D01*
X40560Y138100D02*X40950Y138490D01*
X39390Y138100D02*X40560D01*
X39000Y138490D02*X39390Y138100D01*
X42276D02*X43446D01*
X41886Y138490D02*X42276Y138100D01*
X41886Y139270D02*Y138490D01*
Y139270D02*X42276Y139660D01*
X43056D01*
X43446Y139270D01*
X41886Y138880D02*X43446D01*
Y139270D02*Y138880D01*
X44382Y141220D02*Y138490D01*
X44772Y138100D01*
X45942D02*X47112D01*
X45552Y138490D02*X45942Y138100D01*
X45552Y139270D02*Y138490D01*
Y139270D02*X45942Y139660D01*
X46722D01*
X47112Y139270D01*
X45552Y138880D02*X47112D01*
Y139270D02*Y138880D01*
X48438Y139660D02*X49608D01*
X48048Y139270D02*X48438Y139660D01*
X48048Y139270D02*Y138490D01*
X48438Y138100D01*
X49608D01*
X50934Y141220D02*Y138490D01*
X51324Y138100D01*
X50544Y140050D02*X51324D01*
X52494Y138100D02*X53664D01*
X52104Y138490D02*X52494Y138100D01*
X52104Y139270D02*Y138490D01*
Y139270D02*X52494Y139660D01*
X53274D01*
X53664Y139270D01*
X52104Y138880D02*X53664D01*
Y139270D02*Y138880D01*
X56160Y141220D02*Y138100D01*
X55770D02*X56160Y138490D01*
X54990Y138100D02*X55770D01*
X54600Y138490D02*X54990Y138100D01*
X54600Y139270D02*Y138490D01*
Y139270D02*X54990Y139660D01*
X55770D01*
X56160Y139270D01*
X66000Y141220D02*Y138490D01*
X66390Y138100D01*
X67170D01*
X67560Y138490D01*
Y141220D02*Y138490D01*
X68886Y139270D02*Y138100D01*
Y139270D02*X69276Y139660D01*
X69666D01*
X70056Y139270D01*
Y138100D01*
X68496Y139660D02*X68886Y139270D01*
X71382Y138100D02*X72552D01*
X72942Y138490D01*
X72552Y138880D02*X72942Y138490D01*
X71382Y138880D02*X72552D01*
X70992Y139270D02*X71382Y138880D01*
X70992Y139270D02*X71382Y139660D01*
X72552D01*
X72942Y139270D01*
X70992Y138490D02*X71382Y138100D01*
X74268D02*X75438D01*
X73878Y138490D02*X74268Y138100D01*
X73878Y139270D02*Y138490D01*
Y139270D02*X74268Y139660D01*
X75048D01*
X75438Y139270D01*
X73878Y138880D02*X75438D01*
Y139270D02*Y138880D01*
X76374Y141220D02*Y138490D01*
X76764Y138100D01*
X77934D02*X79104D01*
X77544Y138490D02*X77934Y138100D01*
X77544Y139270D02*Y138490D01*
Y139270D02*X77934Y139660D01*
X78714D01*
X79104Y139270D01*
X77544Y138880D02*X79104D01*
Y139270D02*Y138880D01*
X80430Y139660D02*X81600D01*
X80040Y139270D02*X80430Y139660D01*
X80040Y139270D02*Y138490D01*
X80430Y138100D01*
X81600D01*
X82926Y141220D02*Y138490D01*
X83316Y138100D01*
X82536Y140050D02*X83316D01*
X84486Y138100D02*X85656D01*
X84096Y138490D02*X84486Y138100D01*
X84096Y139270D02*Y138490D01*
Y139270D02*X84486Y139660D01*
X85266D01*
X85656Y139270D01*
X84096Y138880D02*X85656D01*
Y139270D02*Y138880D01*
X88152Y141220D02*Y138100D01*
X87762D02*X88152Y138490D01*
X86982Y138100D02*X87762D01*
X86592Y138490D02*X86982Y138100D01*
X86592Y139270D02*Y138490D01*
Y139270D02*X86982Y139660D01*
X87762D01*
X88152Y139270D01*
X65390Y134270D02*Y133100D01*
Y134270D02*X65780Y134660D01*
X66170D01*
X66560Y134270D01*
Y133100D01*
X65000Y134660D02*X65390Y134270D01*
X67496D02*Y133490D01*
Y134270D02*X67886Y134660D01*
X68666D01*
X69056Y134270D01*
Y133490D01*
X68666Y133100D02*X69056Y133490D01*
X67886Y133100D02*X68666D01*
X67496Y133490D02*X67886Y133100D01*
X70382Y134270D02*Y133100D01*
Y134270D02*X70772Y134660D01*
X71162D01*
X71552Y134270D01*
Y133100D01*
X69992Y134660D02*X70382Y134270D01*
X72878Y133100D02*X74048D01*
X72488Y133490D02*X72878Y133100D01*
X72488Y134270D02*Y133490D01*
Y134270D02*X72878Y134660D01*
X73658D01*
X74048Y134270D01*
X72488Y133880D02*X74048D01*
Y134270D02*Y133880D01*
X78000Y133490D02*X78390Y133100D01*
X78000Y135830D02*Y133490D01*
Y135830D02*X78390Y136220D01*
X79170D01*
X79560Y135830D01*
Y133490D01*
X79170Y133100D02*X79560Y133490D01*
X78390Y133100D02*X79170D01*
X78000Y133880D02*X79560Y135440D01*
X80496Y133100D02*X80886D01*
X81822Y136220D02*X83382D01*
X81822D02*Y134660D01*
X82212Y135050D01*
X82992D01*
X83382Y134660D01*
Y133490D01*
X82992Y133100D02*X83382Y133490D01*
X82212Y133100D02*X82992D01*
X81822Y133490D02*X82212Y133100D01*
X86112Y134270D02*Y133100D01*
Y134270D02*X86502Y134660D01*
X86892D01*
X87282Y134270D01*
Y133100D01*
Y134270D02*X87672Y134660D01*
X88062D01*
X88452Y134270D01*
Y133100D01*
X85722Y134660D02*X86112Y134270D01*
X89778D02*Y133100D01*
Y134270D02*X90168Y134660D01*
X90558D01*
X90948Y134270D01*
Y133100D01*
Y134270D02*X91338Y134660D01*
X91728D01*
X92118Y134270D01*
Y133100D01*
X89388Y134660D02*X89778Y134270D01*
X48000Y133490D02*X48390Y133100D01*
X48000Y135830D02*Y133490D01*
Y135830D02*X48390Y136220D01*
X49170D01*
X49560Y135830D01*
Y133490D01*
X49170Y133100D02*X49560Y133490D01*
X48390Y133100D02*X49170D01*
X48000Y133880D02*X49560Y135440D01*
X50496Y133100D02*X50886D01*
X51822Y136220D02*X53382D01*
X51822D02*Y134660D01*
X52212Y135050D01*
X52992D01*
X53382Y134660D01*
Y133490D01*
X52992Y133100D02*X53382Y133490D01*
X52212Y133100D02*X52992D01*
X51822Y133490D02*X52212Y133100D01*
X56112Y134270D02*Y133100D01*
Y134270D02*X56502Y134660D01*
X56892D01*
X57282Y134270D01*
Y133100D01*
Y134270D02*X57672Y134660D01*
X58062D01*
X58452Y134270D01*
Y133100D01*
X55722Y134660D02*X56112Y134270D01*
X59778D02*Y133100D01*
Y134270D02*X60168Y134660D01*
X60558D01*
X60948Y134270D01*
Y133100D01*
Y134270D02*X61338Y134660D01*
X61728D01*
X62118Y134270D01*
Y133100D01*
X59388Y134660D02*X59778Y134270D01*
X96560Y136220D02*X96950Y135830D01*
X95390Y136220D02*X96560D01*
X95000Y135830D02*X95390Y136220D01*
X95000Y135830D02*Y135050D01*
X95390Y134660D01*
X96560D01*
X96950Y134270D01*
Y133490D01*
X96560Y133100D02*X96950Y133490D01*
X95390Y133100D02*X96560D01*
X95000Y133490D02*X95390Y133100D01*
X97886Y136220D02*Y133100D01*
Y136220D02*X99056Y134660D01*
X100226Y136220D01*
Y133100D01*
X102956Y134660D02*X104126D01*
X102566Y134270D02*X102956Y134660D01*
X102566Y134270D02*Y133490D01*
X102956Y133100D01*
X104126D01*
X105062Y136220D02*Y133490D01*
X105452Y133100D01*
X106622D02*X107792D01*
X106232Y133490D02*X106622Y133100D01*
X106232Y134270D02*Y133490D01*
Y134270D02*X106622Y134660D01*
X107402D01*
X107792Y134270D01*
X106232Y133880D02*X107792D01*
Y134270D02*Y133880D01*
X109898Y134660D02*X110288Y134270D01*
X109118Y134660D02*X109898D01*
X108728Y134270D02*X109118Y134660D01*
X108728Y134270D02*Y133490D01*
X109118Y133100D01*
X110288Y134660D02*Y133490D01*
X110678Y133100D01*
X109118D02*X109898D01*
X110288Y133490D01*
X112004Y134270D02*Y133100D01*
Y134270D02*X112394Y134660D01*
X113174D01*
X111614D02*X112004Y134270D01*
X115280Y134660D02*X115670Y134270D01*
X114500Y134660D02*X115280D01*
X114110Y134270D02*X114500Y134660D01*
X114110Y134270D02*Y133490D01*
X114500Y133100D01*
X115670Y134660D02*Y133490D01*
X116060Y133100D01*
X114500D02*X115280D01*
X115670Y133490D01*
X117386Y134270D02*Y133100D01*
Y134270D02*X117776Y134660D01*
X118166D01*
X118556Y134270D01*
Y133100D01*
X116996Y134660D02*X117386Y134270D01*
X119882Y134660D02*X121052D01*
X119492Y134270D02*X119882Y134660D01*
X119492Y134270D02*Y133490D01*
X119882Y133100D01*
X121052D01*
X122378D02*X123548D01*
X121988Y133490D02*X122378Y133100D01*
X121988Y134270D02*Y133490D01*
Y134270D02*X122378Y134660D01*
X123158D01*
X123548Y134270D01*
X121988Y133880D02*X123548D01*
Y134270D02*Y133880D01*
X95385Y22230D02*Y19150D01*
X95000Y22230D02*X96540D01*
X96925Y21845D01*
Y21075D01*
X96540Y20690D02*X96925Y21075D01*
X95385Y20690D02*X96540D01*
X99004D02*X99389Y20305D01*
X98234Y20690D02*X99004D01*
X97849Y20305D02*X98234Y20690D01*
X97849Y20305D02*Y19535D01*
X98234Y19150D01*
X99389Y20690D02*Y19535D01*
X99774Y19150D01*
X98234D02*X99004D01*
X99389Y19535D01*
X102238Y22230D02*Y19150D01*
X101853D02*X102238Y19535D01*
X101083Y19150D02*X101853D01*
X100698Y19535D02*X101083Y19150D01*
X100698Y20305D02*Y19535D01*
Y20305D02*X101083Y20690D01*
X101853D01*
X102238Y20305D01*
X103547Y19150D02*X104702D01*
X105087Y19535D01*
X104702Y19920D02*X105087Y19535D01*
X103547Y19920D02*X104702D01*
X103162Y20305D02*X103547Y19920D01*
X103162Y20305D02*X103547Y20690D01*
X104702D01*
X105087Y20305D01*
X103162Y19535D02*X103547Y19150D01*
X95385Y42230D02*Y39150D01*
X95000Y42230D02*X96540D01*
X96925Y41845D01*
Y41075D01*
X96540Y40690D02*X96925Y41075D01*
X95385Y40690D02*X96540D01*
X97849Y41460D02*Y41383D01*
Y40305D02*Y39150D01*
X99004Y40305D02*Y39150D01*
Y40305D02*X99389Y40690D01*
X99774D01*
X100159Y40305D01*
Y39150D01*
X98619Y40690D02*X99004Y40305D01*
X101468Y39150D02*X102623D01*
X103008Y39535D01*
X102623Y39920D02*X103008Y39535D01*
X101468Y39920D02*X102623D01*
X101083Y40305D02*X101468Y39920D01*
X101083Y40305D02*X101468Y40690D01*
X102623D01*
X103008Y40305D01*
X101083Y39535D02*X101468Y39150D01*
X95000Y62150D02*X96540D01*
X96925Y62535D01*
Y63459D02*Y62535D01*
X96540Y63844D02*X96925Y63459D01*
X95385Y63844D02*X96540D01*
X95385Y65230D02*Y62150D01*
X95000Y65230D02*X96540D01*
X96925Y64845D01*
Y64229D01*
X96540Y63844D02*X96925Y64229D01*
X97849Y65230D02*Y62535D01*
X98234Y62150D01*
X99004Y64460D02*Y64383D01*
Y63305D02*Y62150D01*
X100159Y63305D02*Y62150D01*
Y63305D02*X100544Y63690D01*
X100929D01*
X101314Y63305D01*
Y62150D01*
X99774Y63690D02*X100159Y63305D01*
X103778Y65230D02*Y62150D01*
X103393D02*X103778Y62535D01*
X102623Y62150D02*X103393D01*
X102238Y62535D02*X102623Y62150D01*
X102238Y63305D02*Y62535D01*
Y63305D02*X102623Y63690D01*
X103393D01*
X103778Y63305D01*
X106088Y63690D02*X106858Y62150D01*
X107628Y63690D02*X106858Y62150D01*
X108552Y64460D02*Y64383D01*
Y63305D02*Y62150D01*
X110477Y63690D02*X110862Y63305D01*
X109707Y63690D02*X110477D01*
X109322Y63305D02*X109707Y63690D01*
X109322Y63305D02*Y62535D01*
X109707Y62150D01*
X110862Y63690D02*Y62535D01*
X111247Y62150D01*
X109707D02*X110477D01*
X110862Y62535D01*
X112556Y62150D02*X113711D01*
X114096Y62535D01*
X113711Y62920D02*X114096Y62535D01*
X112556Y62920D02*X113711D01*
X112171Y63305D02*X112556Y62920D01*
X112171Y63305D02*X112556Y63690D01*
X113711D01*
X114096Y63305D01*
X112171Y62535D02*X112556Y62150D01*
X3560Y6220D02*X3950Y5830D01*
X2390Y6220D02*X3560D01*
X2000Y5830D02*X2390Y6220D01*
X2000Y5830D02*Y5050D01*
X2390Y4660D01*
X3560D01*
X3950Y4270D01*
Y3490D01*
X3560Y3100D02*X3950Y3490D01*
X2390Y3100D02*X3560D01*
X2000Y3490D02*X2390Y3100D01*
X6056Y4660D02*X6446Y4270D01*
X5276Y4660D02*X6056D01*
X4886Y4270D02*X5276Y4660D01*
X4886Y4270D02*Y3490D01*
X5276Y3100D01*
X6446Y4660D02*Y3490D01*
X6836Y3100D01*
X5276D02*X6056D01*
X6446Y3490D01*
X7772Y4660D02*X8552Y3100D01*
X9332Y4660D02*X8552Y3100D01*
X10658D02*X11828D01*
X10268Y3490D02*X10658Y3100D01*
X10268Y4270D02*Y3490D01*
Y4270D02*X10658Y4660D01*
X11438D01*
X11828Y4270D01*
X10268Y3880D02*X11828D01*
Y4270D02*Y3880D01*
X14168Y4660D02*Y3490D01*
X14558Y3100D01*
X14948D01*
X15338Y3490D01*
Y4660D02*Y3490D01*
X15728Y3100D01*
X16118D01*
X16508Y3490D01*
Y4660D02*Y3490D01*
X17444Y5440D02*Y5362D01*
Y4270D02*Y3100D01*
X18614Y6220D02*Y3490D01*
X19004Y3100D01*
X18224Y5050D02*X19004D01*
X19784Y6220D02*Y3100D01*
Y4270D02*X20174Y4660D01*
X20954D01*
X21344Y4270D01*
Y3100D01*
X25244Y6220D02*X25634Y5830D01*
X24074Y6220D02*X25244D01*
X23684Y5830D02*X24074Y6220D01*
X23684Y5830D02*Y5050D01*
X24074Y4660D01*
X25244D01*
X25634Y4270D01*
Y3490D01*
X25244Y3100D02*X25634Y3490D01*
X24074Y3100D02*X25244D01*
X23684Y3490D02*X24074Y3100D01*
X26570Y6220D02*Y3100D01*
Y6220D02*X27740Y4660D01*
X28910Y6220D01*
Y3100D01*
X31250Y6220D02*Y3490D01*
X31640Y3100D01*
X33590Y4660D02*X33980Y4270D01*
X32810Y4660D02*X33590D01*
X32420Y4270D02*X32810Y4660D01*
X32420Y4270D02*Y3490D01*
X32810Y3100D01*
X33980Y4660D02*Y3490D01*
X34370Y3100D01*
X32810D02*X33590D01*
X33980Y3490D01*
X35306Y4660D02*Y3490D01*
X35696Y3100D01*
X36866Y4660D02*Y2320D01*
X36476Y1930D02*X36866Y2320D01*
X35696Y1930D02*X36476D01*
X35306Y2320D02*X35696Y1930D01*
Y3100D02*X36476D01*
X36866Y3490D01*
X38192Y3100D02*X39362D01*
X37802Y3490D02*X38192Y3100D01*
X37802Y4270D02*Y3490D01*
Y4270D02*X38192Y4660D01*
X38972D01*
X39362Y4270D01*
X37802Y3880D02*X39362D01*
Y4270D02*Y3880D01*
X40688Y4270D02*Y3100D01*
Y4270D02*X41078Y4660D01*
X41858D01*
X40298D02*X40688Y4270D01*
X44198D02*Y3490D01*
Y4270D02*X44588Y4660D01*
X45368D01*
X45758Y4270D01*
Y3490D01*
X45368Y3100D02*X45758Y3490D01*
X44588Y3100D02*X45368D01*
X44198Y3490D02*X44588Y3100D01*
X47084Y4270D02*Y3100D01*
Y4270D02*X47474Y4660D01*
X47864D01*
X48254Y4270D01*
Y3100D01*
X46694Y4660D02*X47084Y4270D01*
X51764Y4660D02*X52154Y4270D01*
X50984Y4660D02*X51764D01*
X50594Y4270D02*X50984Y4660D01*
X50594Y4270D02*Y3490D01*
X50984Y3100D01*
X52154Y4660D02*Y3490D01*
X52544Y3100D01*
X50984D02*X51764D01*
X52154Y3490D01*
X53870Y4270D02*Y3100D01*
Y4270D02*X54260Y4660D01*
X54650D01*
X55040Y4270D01*
Y3100D01*
X53480Y4660D02*X53870Y4270D01*
X57536Y6220D02*Y3100D01*
X57146D02*X57536Y3490D01*
X56366Y3100D02*X57146D01*
X55976Y3490D02*X56366Y3100D01*
X55976Y4270D02*Y3490D01*
Y4270D02*X56366Y4660D01*
X57146D01*
X57536Y4270D01*
X59876Y6220D02*Y3490D01*
X60266Y3100D01*
X61436D02*X62606D01*
X61046Y3490D02*X61436Y3100D01*
X61046Y4270D02*Y3490D01*
Y4270D02*X61436Y4660D01*
X62216D01*
X62606Y4270D01*
X61046Y3880D02*X62606D01*
Y4270D02*Y3880D01*
X63932Y5830D02*Y3100D01*
Y5830D02*X64322Y6220D01*
X64712D01*
X63542Y4660D02*X64322D01*
X65882Y6220D02*Y3490D01*
X66272Y3100D01*
X65492Y5050D02*X66272D01*
X68846Y6220D02*Y3490D01*
X69236Y3100D01*
X68456Y5050D02*X69236D01*
X70016Y4660D02*Y3490D01*
X70406Y3100D01*
X70796D01*
X71186Y3490D01*
Y4660D02*Y3490D01*
X71576Y3100D01*
X71966D01*
X72356Y3490D01*
Y4660D02*Y3490D01*
X73292Y4270D02*Y3490D01*
Y4270D02*X73682Y4660D01*
X74462D01*
X74852Y4270D01*
Y3490D01*
X74462Y3100D02*X74852Y3490D01*
X73682Y3100D02*X74462D01*
X73292Y3490D02*X73682Y3100D01*
X77582Y4660D02*X78752D01*
X77192Y4270D02*X77582Y4660D01*
X77192Y4270D02*Y3490D01*
X77582Y3100D01*
X78752D01*
X79688Y4270D02*Y3490D01*
Y4270D02*X80078Y4660D01*
X80858D01*
X81248Y4270D01*
Y3490D01*
X80858Y3100D02*X81248Y3490D01*
X80078Y3100D02*X80858D01*
X79688Y3490D02*X80078Y3100D01*
X82184Y6220D02*Y3490D01*
X82574Y3100D01*
X83354Y4660D02*Y3490D01*
X83744Y3100D01*
X84524D01*
X84914Y3490D01*
Y4660D02*Y3490D01*
X86240Y4270D02*Y3100D01*
Y4270D02*X86630Y4660D01*
X87020D01*
X87410Y4270D01*
Y3100D01*
Y4270D02*X87800Y4660D01*
X88190D01*
X88580Y4270D01*
Y3100D01*
X85850Y4660D02*X86240Y4270D01*
X89906D02*Y3100D01*
Y4270D02*X90296Y4660D01*
X90686D01*
X91076Y4270D01*
Y3100D01*
X89516Y4660D02*X89906Y4270D01*
X92402Y3100D02*X93572D01*
X93962Y3490D01*
X93572Y3880D02*X93962Y3490D01*
X92402Y3880D02*X93572D01*
X92012Y4270D02*X92402Y3880D01*
X92012Y4270D02*X92402Y4660D01*
X93572D01*
X93962Y4270D01*
X92012Y3490D02*X92402Y3100D01*
X96692D02*X97862D01*
X98252Y3490D01*
X97862Y3880D02*X98252Y3490D01*
X96692Y3880D02*X97862D01*
X96302Y4270D02*X96692Y3880D01*
X96302Y4270D02*X96692Y4660D01*
X97862D01*
X98252Y4270D01*
X96302Y3490D02*X96692Y3100D01*
X99578D02*X100748D01*
X99188Y3490D02*X99578Y3100D01*
X99188Y4270D02*Y3490D01*
Y4270D02*X99578Y4660D01*
X100358D01*
X100748Y4270D01*
X99188Y3880D02*X100748D01*
Y4270D02*Y3880D01*
X101684Y6220D02*Y3490D01*
X102074Y3100D01*
X103244D02*X104414D01*
X102854Y3490D02*X103244Y3100D01*
X102854Y4270D02*Y3490D01*
Y4270D02*X103244Y4660D01*
X104024D01*
X104414Y4270D01*
X102854Y3880D02*X104414D01*
Y4270D02*Y3880D01*
X105740Y4660D02*X106910D01*
X105350Y4270D02*X105740Y4660D01*
X105350Y4270D02*Y3490D01*
X105740Y3100D01*
X106910D01*
X108236Y6220D02*Y3490D01*
X108626Y3100D01*
X107846Y5050D02*X108626D01*
X109796Y3100D02*X110966D01*
X109406Y3490D02*X109796Y3100D01*
X109406Y4270D02*Y3490D01*
Y4270D02*X109796Y4660D01*
X110576D01*
X110966Y4270D01*
X109406Y3880D02*X110966D01*
Y4270D02*Y3880D01*
X113462Y6220D02*Y3100D01*
X113072D02*X113462Y3490D01*
X112292Y3100D02*X113072D01*
X111902Y3490D02*X112292Y3100D01*
X111902Y4270D02*Y3490D01*
Y4270D02*X112292Y4660D01*
X113072D01*
X113462Y4270D01*
X95000Y102150D02*X96540D01*
X96925Y102535D01*
Y103459D02*Y102535D01*
X96540Y103844D02*X96925Y103459D01*
X95385Y103844D02*X96540D01*
X95385Y105230D02*Y102150D01*
X95000Y105230D02*X96540D01*
X96925Y104845D01*
Y104229D01*
X96540Y103844D02*X96925Y104229D01*
X97849Y103690D02*Y102535D01*
X98234Y102150D01*
X99004D01*
X99389Y102535D01*
Y103690D02*Y102535D01*
X100698Y103305D02*Y102150D01*
Y103305D02*X101083Y103690D01*
X101853D01*
X100313D02*X100698Y103305D01*
X102777Y104460D02*Y104383D01*
Y103305D02*Y102150D01*
X103932D02*X105087D01*
X103547Y102535D02*X103932Y102150D01*
X103547Y103305D02*Y102535D01*
Y103305D02*X103932Y103690D01*
X104702D01*
X105087Y103305D01*
X103547Y102920D02*X105087D01*
Y103305D02*Y102920D01*
X107551Y105230D02*Y102150D01*
X107166D02*X107551Y102535D01*
X106396Y102150D02*X107166D01*
X106011Y102535D02*X106396Y102150D01*
X106011Y103305D02*Y102535D01*
Y103305D02*X106396Y103690D01*
X107166D01*
X107551Y103305D01*
X109861Y103690D02*X110631Y102150D01*
X111401Y103690D02*X110631Y102150D01*
X112325Y104460D02*Y104383D01*
Y103305D02*Y102150D01*
X114250Y103690D02*X114635Y103305D01*
X113480Y103690D02*X114250D01*
X113095Y103305D02*X113480Y103690D01*
X113095Y103305D02*Y102535D01*
X113480Y102150D01*
X114635Y103690D02*Y102535D01*
X115020Y102150D01*
X113480D02*X114250D01*
X114635Y102535D01*
X116329Y102150D02*X117484D01*
X117869Y102535D01*
X117484Y102920D02*X117869Y102535D01*
X116329Y102920D02*X117484D01*
X115944Y103305D02*X116329Y102920D01*
X115944Y103305D02*X116329Y103690D01*
X117484D01*
X117869Y103305D01*
X115944Y102535D02*X116329Y102150D01*
X120564Y105230D02*Y102535D01*
X120949Y102150D01*
X120179Y104075D02*X120949D01*
X121719Y103305D02*Y102535D01*
Y103305D02*X122104Y103690D01*
X122874D01*
X123259Y103305D01*
Y102535D01*
X122874Y102150D02*X123259Y102535D01*
X122104Y102150D02*X122874D01*
X121719Y102535D02*X122104Y102150D01*
X125954Y105230D02*Y102535D01*
X126339Y102150D01*
X125569Y104075D02*X126339D01*
X127109Y103305D02*Y102535D01*
Y103305D02*X127494Y103690D01*
X128264D01*
X128649Y103305D01*
Y102535D01*
X128264Y102150D02*X128649Y102535D01*
X127494Y102150D02*X128264D01*
X127109Y102535D02*X127494Y102150D01*
X129958Y103305D02*Y100995D01*
X129573Y103690D02*X129958Y103305D01*
X130343Y103690D01*
X131113D01*
X131498Y103305D01*
Y102535D01*
X131113Y102150D02*X131498Y102535D01*
X130343Y102150D02*X131113D01*
X129958Y102535D02*X130343Y102150D01*
X95000Y99220D02*Y96100D01*
X96560D01*
X98666Y97660D02*X99056Y97270D01*
X97886Y97660D02*X98666D01*
X97496Y97270D02*X97886Y97660D01*
X97496Y97270D02*Y96490D01*
X97886Y96100D01*
X99056Y97660D02*Y96490D01*
X99446Y96100D01*
X97886D02*X98666D01*
X99056Y96490D01*
X100382Y97660D02*Y96490D01*
X100772Y96100D01*
X101942Y97660D02*Y95320D01*
X101552Y94930D02*X101942Y95320D01*
X100772Y94930D02*X101552D01*
X100382Y95320D02*X100772Y94930D01*
Y96100D02*X101552D01*
X101942Y96490D01*
X103268Y96100D02*X104438D01*
X102878Y96490D02*X103268Y96100D01*
X102878Y97270D02*Y96490D01*
Y97270D02*X103268Y97660D01*
X104048D01*
X104438Y97270D01*
X102878Y96880D02*X104438D01*
Y97270D02*Y96880D01*
X105764Y97270D02*Y96100D01*
Y97270D02*X106154Y97660D01*
X106934D01*
X105374D02*X105764Y97270D01*
X108260Y96100D02*X109430D01*
X109820Y96490D01*
X109430Y96880D02*X109820Y96490D01*
X108260Y96880D02*X109430D01*
X107870Y97270D02*X108260Y96880D01*
X107870Y97270D02*X108260Y97660D01*
X109430D01*
X109820Y97270D01*
X107870Y96490D02*X108260Y96100D01*
X112160Y99220D02*X113720D01*
X112940D02*Y96100D01*
X114656Y97270D02*Y96490D01*
Y97270D02*X115046Y97660D01*
X115826D01*
X116216Y97270D01*
Y96490D01*
X115826Y96100D02*X116216Y96490D01*
X115046Y96100D02*X115826D01*
X114656Y96490D02*X115046Y96100D01*
X117542Y97270D02*Y94930D01*
X117152Y97660D02*X117542Y97270D01*
X117932Y97660D01*
X118712D01*
X119102Y97270D01*
Y96490D01*
X118712Y96100D02*X119102Y96490D01*
X117932Y96100D02*X118712D01*
X117542Y96490D02*X117932Y96100D01*
X121442Y97660D02*X122222Y98440D01*
X121442Y97660D02*X122222Y96880D01*
X123158Y97660D02*X124718D01*
X125654Y98440D02*X126434Y97660D01*
X125654Y96880D02*X126434Y97660D01*
X128774Y99220D02*X129554D01*
X129164D02*Y96100D01*
X128774D02*X129554D01*
X130880Y97270D02*Y96100D01*
Y97270D02*X131270Y97660D01*
X131660D01*
X132050Y97270D01*
Y96100D01*
X130490Y97660D02*X130880Y97270D01*
X132986Y98830D02*X133376Y99220D01*
X134546D01*
X134936Y98830D01*
Y98050D01*
X132986Y96100D02*X134936Y98050D01*
X132986Y96100D02*X134936D01*
X95000Y82150D02*X96540D01*
X96925Y82535D01*
Y83459D02*Y82535D01*
X96540Y83844D02*X96925Y83459D01*
X95385Y83844D02*X96540D01*
X95385Y85230D02*Y82150D01*
X95000Y85230D02*X96540D01*
X96925Y84845D01*
Y84229D01*
X96540Y83844D02*X96925Y84229D01*
X97849Y83690D02*Y82535D01*
X98234Y82150D01*
X99004D01*
X99389Y82535D01*
Y83690D02*Y82535D01*
X100698Y83305D02*Y82150D01*
Y83305D02*X101083Y83690D01*
X101853D01*
X100313D02*X100698Y83305D01*
X102777Y84460D02*Y84383D01*
Y83305D02*Y82150D01*
X103932D02*X105087D01*
X103547Y82535D02*X103932Y82150D01*
X103547Y83305D02*Y82535D01*
Y83305D02*X103932Y83690D01*
X104702D01*
X105087Y83305D01*
X103547Y82920D02*X105087D01*
Y83305D02*Y82920D01*
X107551Y85230D02*Y82150D01*
X107166D02*X107551Y82535D01*
X106396Y82150D02*X107166D01*
X106011Y82535D02*X106396Y82150D01*
X106011Y83305D02*Y82535D01*
Y83305D02*X106396Y83690D01*
X107166D01*
X107551Y83305D01*
X109861Y83690D02*X110631Y82150D01*
X111401Y83690D02*X110631Y82150D01*
X112325Y84460D02*Y84383D01*
Y83305D02*Y82150D01*
X114250Y83690D02*X114635Y83305D01*
X113480Y83690D02*X114250D01*
X113095Y83305D02*X113480Y83690D01*
X113095Y83305D02*Y82535D01*
X113480Y82150D01*
X114635Y83690D02*Y82535D01*
X115020Y82150D01*
X113480D02*X114250D01*
X114635Y82535D01*
X116329Y82150D02*X117484D01*
X117869Y82535D01*
X117484Y82920D02*X117869Y82535D01*
X116329Y82920D02*X117484D01*
X115944Y83305D02*X116329Y82920D01*
X115944Y83305D02*X116329Y83690D01*
X117484D01*
X117869Y83305D01*
X115944Y82535D02*X116329Y82150D01*
X120564Y85230D02*Y82535D01*
X120949Y82150D01*
X120179Y84075D02*X120949D01*
X121719Y83305D02*Y82535D01*
Y83305D02*X122104Y83690D01*
X122874D01*
X123259Y83305D01*
Y82535D01*
X122874Y82150D02*X123259Y82535D01*
X122104Y82150D02*X122874D01*
X121719Y82535D02*X122104Y82150D01*
X125569Y85230D02*Y82150D01*
Y82535D02*X125954Y82150D01*
X126724D01*
X127109Y82535D01*
Y83305D02*Y82535D01*
X126724Y83690D02*X127109Y83305D01*
X125954Y83690D02*X126724D01*
X125569Y83305D02*X125954Y83690D01*
X128033Y83305D02*Y82535D01*
Y83305D02*X128418Y83690D01*
X129188D01*
X129573Y83305D01*
Y82535D01*
X129188Y82150D02*X129573Y82535D01*
X128418Y82150D02*X129188D01*
X128033Y82535D02*X128418Y82150D01*
X130882Y85230D02*Y82535D01*
X131267Y82150D01*
X130497Y84075D02*X131267D01*
X95000Y79220D02*Y76100D01*
X96560D01*
X98666Y77660D02*X99056Y77270D01*
X97886Y77660D02*X98666D01*
X97496Y77270D02*X97886Y77660D01*
X97496Y77270D02*Y76490D01*
X97886Y76100D01*
X99056Y77660D02*Y76490D01*
X99446Y76100D01*
X97886D02*X98666D01*
X99056Y76490D01*
X100382Y77660D02*Y76490D01*
X100772Y76100D01*
X101942Y77660D02*Y75320D01*
X101552Y74930D02*X101942Y75320D01*
X100772Y74930D02*X101552D01*
X100382Y75320D02*X100772Y74930D01*
Y76100D02*X101552D01*
X101942Y76490D01*
X103268Y76100D02*X104438D01*
X102878Y76490D02*X103268Y76100D01*
X102878Y77270D02*Y76490D01*
Y77270D02*X103268Y77660D01*
X104048D01*
X104438Y77270D01*
X102878Y76880D02*X104438D01*
Y77270D02*Y76880D01*
X105764Y77270D02*Y76100D01*
Y77270D02*X106154Y77660D01*
X106934D01*
X105374D02*X105764Y77270D01*
X108260Y76100D02*X109430D01*
X109820Y76490D01*
X109430Y76880D02*X109820Y76490D01*
X108260Y76880D02*X109430D01*
X107870Y77270D02*X108260Y76880D01*
X107870Y77270D02*X108260Y77660D01*
X109430D01*
X109820Y77270D01*
X107870Y76490D02*X108260Y76100D01*
X112160Y79220D02*X112940D01*
X112550D02*Y76100D01*
X112160D02*X112940D01*
X114266Y77270D02*Y76100D01*
Y77270D02*X114656Y77660D01*
X115046D01*
X115436Y77270D01*
Y76100D01*
X113876Y77660D02*X114266Y77270D01*
X116372Y78830D02*X116762Y79220D01*
X117932D01*
X118322Y78830D01*
Y78050D01*
X116372Y76100D02*X118322Y78050D01*
X116372Y76100D02*X118322D01*
X120662Y77660D02*X121442Y78440D01*
X120662Y77660D02*X121442Y76880D01*
X122378Y77660D02*X123938D01*
X124874Y78440D02*X125654Y77660D01*
X124874Y76880D02*X125654Y77660D01*
X127994Y76100D02*X129554D01*
X129944Y76490D01*
Y77426D02*Y76490D01*
X129554Y77816D02*X129944Y77426D01*
X128384Y77816D02*X129554D01*
X128384Y79220D02*Y76100D01*
X127994Y79220D02*X129554D01*
X129944Y78830D01*
Y78206D01*
X129554Y77816D02*X129944Y78206D01*
X130880Y77270D02*Y76490D01*
Y77270D02*X131270Y77660D01*
X132050D01*
X132440Y77270D01*
Y76490D01*
X132050Y76100D02*X132440Y76490D01*
X131270Y76100D02*X132050D01*
X130880Y76490D02*X131270Y76100D01*
X133766Y79220D02*Y76490D01*
X134156Y76100D01*
X133376Y78050D02*X134156D01*
X95000Y59220D02*Y56100D01*
X96560D01*
X98666Y57660D02*X99056Y57270D01*
X97886Y57660D02*X98666D01*
X97496Y57270D02*X97886Y57660D01*
X97496Y57270D02*Y56490D01*
X97886Y56100D01*
X99056Y57660D02*Y56490D01*
X99446Y56100D01*
X97886D02*X98666D01*
X99056Y56490D01*
X100382Y57660D02*Y56490D01*
X100772Y56100D01*
X101942Y57660D02*Y55320D01*
X101552Y54930D02*X101942Y55320D01*
X100772Y54930D02*X101552D01*
X100382Y55320D02*X100772Y54930D01*
Y56100D02*X101552D01*
X101942Y56490D01*
X103268Y56100D02*X104438D01*
X102878Y56490D02*X103268Y56100D01*
X102878Y57270D02*Y56490D01*
Y57270D02*X103268Y57660D01*
X104048D01*
X104438Y57270D01*
X102878Y56880D02*X104438D01*
Y57270D02*Y56880D01*
X105764Y57270D02*Y56100D01*
Y57270D02*X106154Y57660D01*
X106934D01*
X105374D02*X105764Y57270D01*
X108260Y56100D02*X109430D01*
X109820Y56490D01*
X109430Y56880D02*X109820Y56490D01*
X108260Y56880D02*X109430D01*
X107870Y57270D02*X108260Y56880D01*
X107870Y57270D02*X108260Y57660D01*
X109430D01*
X109820Y57270D01*
X107870Y56490D02*X108260Y56100D01*
X112160Y59220D02*X112940D01*
X112550D02*Y56100D01*
X112160D02*X112940D01*
X114266Y57270D02*Y56100D01*
Y57270D02*X114656Y57660D01*
X115046D01*
X115436Y57270D01*
Y56100D01*
X113876Y57660D02*X114266Y57270D01*
X116372Y58596D02*X116996Y59220D01*
Y56100D01*
X116372D02*X117542D01*
X119882Y57660D02*X120662Y58440D01*
X119882Y57660D02*X120662Y56880D01*
X121598Y57660D02*X123158D01*
X124094Y58440D02*X124874Y57660D01*
X124094Y56880D02*X124874Y57660D01*
X127214Y59220D02*X127994D01*
X127604D02*Y56100D01*
X127214D02*X127994D01*
X129320Y57270D02*Y56100D01*
Y57270D02*X129710Y57660D01*
X130100D01*
X130490Y57270D01*
Y56100D01*
X128930Y57660D02*X129320Y57270D01*
X131426Y58830D02*X131816Y59220D01*
X132596D01*
X132986Y58830D01*
X132596Y56100D02*X132986Y56490D01*
X131816Y56100D02*X132596D01*
X131426Y56490D02*X131816Y56100D01*
Y57816D02*X132596D01*
X132986Y58830D02*Y58206D01*
Y57426D02*Y56490D01*
Y57426D02*X132596Y57816D01*
X132986Y58206D02*X132596Y57816D01*
M02*
