G04 start of page 3 for group 1 idx 1 *
G04 Title: ChangeClearSize Action Test, IN1 *
G04 Creator: pcb v4.1.0-g2256aec2 *
G04 CreationDate: Sun May 13 23:41:24 2018 UTC *
G04 For: parkecw1 *
G04 Format: Gerber/RS-274X *
G04 PCB-Dimensions (mil): 1400.00 1500.00 *
G04 PCB-Coordinate-Origin: lower left *
%MOIN*%
%FSLAX25Y25*%
%LNGROUP1*%
%ADD17C,0.0200*%
%ADD16C,0.0360*%
%ADD15C,0.0001*%
G54D15*G36*
X84996Y130000D02*X90000D01*
Y10000D01*
X84996D01*
Y42192D01*
X85000Y42191D01*
X85439Y42226D01*
X85868Y42329D01*
X86275Y42497D01*
X86651Y42728D01*
X86986Y43014D01*
X87272Y43349D01*
X87503Y43725D01*
X87671Y44132D01*
X87774Y44561D01*
X87800Y45000D01*
X87774Y45439D01*
X87671Y45868D01*
X87503Y46275D01*
X87272Y46651D01*
X86986Y46986D01*
X86651Y47272D01*
X86275Y47503D01*
X85868Y47671D01*
X85439Y47774D01*
X85000Y47809D01*
X84996Y47808D01*
Y62192D01*
X85000Y62191D01*
X85439Y62226D01*
X85868Y62329D01*
X86275Y62497D01*
X86651Y62728D01*
X86986Y63014D01*
X87272Y63349D01*
X87503Y63725D01*
X87671Y64132D01*
X87774Y64561D01*
X87800Y65000D01*
X87774Y65439D01*
X87671Y65868D01*
X87503Y66275D01*
X87272Y66651D01*
X86986Y66986D01*
X86651Y67272D01*
X86275Y67503D01*
X85868Y67671D01*
X85439Y67774D01*
X85000Y67809D01*
X84996Y67808D01*
Y102192D01*
X85000Y102191D01*
X85439Y102226D01*
X85868Y102329D01*
X86275Y102497D01*
X86651Y102728D01*
X86986Y103014D01*
X87272Y103349D01*
X87503Y103725D01*
X87671Y104132D01*
X87774Y104561D01*
X87800Y105000D01*
X87774Y105439D01*
X87671Y105868D01*
X87503Y106275D01*
X87272Y106651D01*
X86986Y106986D01*
X86651Y107272D01*
X86275Y107503D01*
X85868Y107671D01*
X85439Y107774D01*
X85000Y107809D01*
X84996Y107808D01*
Y122192D01*
X85000Y122191D01*
X85439Y122226D01*
X85868Y122329D01*
X86275Y122497D01*
X86651Y122728D01*
X86986Y123014D01*
X87272Y123349D01*
X87503Y123725D01*
X87671Y124132D01*
X87774Y124561D01*
X87800Y125000D01*
X87774Y125439D01*
X87671Y125868D01*
X87503Y126275D01*
X87272Y126651D01*
X86986Y126986D01*
X86651Y127272D01*
X86275Y127503D01*
X85868Y127671D01*
X85439Y127774D01*
X85000Y127809D01*
X84996Y127808D01*
Y130000D01*
G37*
G36*
X69996D02*X84996D01*
Y127808D01*
X84561Y127774D01*
X84132Y127671D01*
X83725Y127503D01*
X83349Y127272D01*
X83014Y126986D01*
X82728Y126651D01*
X82497Y126275D01*
X82329Y125868D01*
X82226Y125439D01*
X82191Y125000D01*
X82226Y124561D01*
X82329Y124132D01*
X82497Y123725D01*
X82728Y123349D01*
X83014Y123014D01*
X83349Y122728D01*
X83725Y122497D01*
X84132Y122329D01*
X84561Y122226D01*
X84996Y122192D01*
Y107808D01*
X84561Y107774D01*
X84132Y107671D01*
X83725Y107503D01*
X83349Y107272D01*
X83014Y106986D01*
X82728Y106651D01*
X82497Y106275D01*
X82329Y105868D01*
X82226Y105439D01*
X82191Y105000D01*
X82226Y104561D01*
X82329Y104132D01*
X82497Y103725D01*
X82728Y103349D01*
X83014Y103014D01*
X83349Y102728D01*
X83725Y102497D01*
X84132Y102329D01*
X84561Y102226D01*
X84996Y102192D01*
Y67808D01*
X84561Y67774D01*
X84132Y67671D01*
X83725Y67503D01*
X83349Y67272D01*
X83014Y66986D01*
X82728Y66651D01*
X82497Y66275D01*
X82329Y65868D01*
X82226Y65439D01*
X82191Y65000D01*
X82226Y64561D01*
X82329Y64132D01*
X82497Y63725D01*
X82728Y63349D01*
X83014Y63014D01*
X83349Y62728D01*
X83725Y62497D01*
X84132Y62329D01*
X84561Y62226D01*
X84996Y62192D01*
Y47808D01*
X84561Y47774D01*
X84132Y47671D01*
X83725Y47503D01*
X83349Y47272D01*
X83014Y46986D01*
X82728Y46651D01*
X82497Y46275D01*
X82329Y45868D01*
X82226Y45439D01*
X82191Y45000D01*
X82226Y44561D01*
X82329Y44132D01*
X82497Y43725D01*
X82728Y43349D01*
X83014Y43014D01*
X83349Y42728D01*
X83725Y42497D01*
X84132Y42329D01*
X84561Y42226D01*
X84996Y42192D01*
Y10000D01*
X69996D01*
Y42192D01*
X70000Y42191D01*
X70439Y42226D01*
X70868Y42329D01*
X71275Y42497D01*
X71651Y42728D01*
X71986Y43014D01*
X72272Y43349D01*
X72503Y43725D01*
X72671Y44132D01*
X72774Y44561D01*
X72800Y45000D01*
X72774Y45439D01*
X72671Y45868D01*
X72503Y46275D01*
X72272Y46651D01*
X71986Y46986D01*
X71651Y47272D01*
X71275Y47503D01*
X70868Y47671D01*
X70439Y47774D01*
X70000Y47809D01*
X69996Y47808D01*
Y62192D01*
X70000Y62191D01*
X70439Y62226D01*
X70868Y62329D01*
X71275Y62497D01*
X71651Y62728D01*
X71986Y63014D01*
X72272Y63349D01*
X72503Y63725D01*
X72671Y64132D01*
X72774Y64561D01*
X72800Y65000D01*
X72774Y65439D01*
X72671Y65868D01*
X72503Y66275D01*
X72272Y66651D01*
X71986Y66986D01*
X71651Y67272D01*
X71275Y67503D01*
X70868Y67671D01*
X70439Y67774D01*
X70000Y67809D01*
X69996Y67808D01*
Y102192D01*
X70000Y102191D01*
X70439Y102226D01*
X70868Y102329D01*
X71275Y102497D01*
X71651Y102728D01*
X71986Y103014D01*
X72272Y103349D01*
X72503Y103725D01*
X72671Y104132D01*
X72774Y104561D01*
X72800Y105000D01*
X72774Y105439D01*
X72671Y105868D01*
X72503Y106275D01*
X72272Y106651D01*
X71986Y106986D01*
X71651Y107272D01*
X71275Y107503D01*
X70868Y107671D01*
X70439Y107774D01*
X70000Y107809D01*
X69996Y107808D01*
Y122192D01*
X70000Y122191D01*
X70439Y122226D01*
X70868Y122329D01*
X71275Y122497D01*
X71651Y122728D01*
X71986Y123014D01*
X72272Y123349D01*
X72503Y123725D01*
X72671Y124132D01*
X72774Y124561D01*
X72800Y125000D01*
X72774Y125439D01*
X72671Y125868D01*
X72503Y126275D01*
X72272Y126651D01*
X71986Y126986D01*
X71651Y127272D01*
X71275Y127503D01*
X70868Y127671D01*
X70439Y127774D01*
X70000Y127809D01*
X69996Y127808D01*
Y130000D01*
G37*
G36*
X54996D02*X69996D01*
Y127808D01*
X69561Y127774D01*
X69132Y127671D01*
X68725Y127503D01*
X68349Y127272D01*
X68014Y126986D01*
X67728Y126651D01*
X67497Y126275D01*
X67329Y125868D01*
X67226Y125439D01*
X67191Y125000D01*
X67226Y124561D01*
X67329Y124132D01*
X67497Y123725D01*
X67728Y123349D01*
X68014Y123014D01*
X68349Y122728D01*
X68725Y122497D01*
X69132Y122329D01*
X69561Y122226D01*
X69996Y122192D01*
Y107808D01*
X69561Y107774D01*
X69132Y107671D01*
X68725Y107503D01*
X68349Y107272D01*
X68014Y106986D01*
X67728Y106651D01*
X67497Y106275D01*
X67329Y105868D01*
X67226Y105439D01*
X67191Y105000D01*
X67226Y104561D01*
X67329Y104132D01*
X67497Y103725D01*
X67728Y103349D01*
X68014Y103014D01*
X68349Y102728D01*
X68725Y102497D01*
X69132Y102329D01*
X69561Y102226D01*
X69996Y102192D01*
Y67808D01*
X69561Y67774D01*
X69132Y67671D01*
X68725Y67503D01*
X68349Y67272D01*
X68014Y66986D01*
X67728Y66651D01*
X67497Y66275D01*
X67329Y65868D01*
X67226Y65439D01*
X67191Y65000D01*
X67226Y64561D01*
X67329Y64132D01*
X67497Y63725D01*
X67728Y63349D01*
X68014Y63014D01*
X68349Y62728D01*
X68725Y62497D01*
X69132Y62329D01*
X69561Y62226D01*
X69996Y62192D01*
Y47808D01*
X69561Y47774D01*
X69132Y47671D01*
X68725Y47503D01*
X68349Y47272D01*
X68014Y46986D01*
X67728Y46651D01*
X67497Y46275D01*
X67329Y45868D01*
X67226Y45439D01*
X67191Y45000D01*
X67226Y44561D01*
X67329Y44132D01*
X67497Y43725D01*
X67728Y43349D01*
X68014Y43014D01*
X68349Y42728D01*
X68725Y42497D01*
X69132Y42329D01*
X69561Y42226D01*
X69996Y42192D01*
Y10000D01*
X54996D01*
Y42192D01*
X55000Y42191D01*
X55439Y42226D01*
X55868Y42329D01*
X56275Y42497D01*
X56651Y42728D01*
X56986Y43014D01*
X57272Y43349D01*
X57503Y43725D01*
X57671Y44132D01*
X57774Y44561D01*
X57800Y45000D01*
X57774Y45439D01*
X57671Y45868D01*
X57503Y46275D01*
X57272Y46651D01*
X56986Y46986D01*
X56651Y47272D01*
X56275Y47503D01*
X55868Y47671D01*
X55439Y47774D01*
X55000Y47809D01*
X54996Y47808D01*
Y62192D01*
X55000Y62191D01*
X55439Y62226D01*
X55868Y62329D01*
X56275Y62497D01*
X56651Y62728D01*
X56986Y63014D01*
X57272Y63349D01*
X57503Y63725D01*
X57671Y64132D01*
X57774Y64561D01*
X57800Y65000D01*
X57774Y65439D01*
X57671Y65868D01*
X57503Y66275D01*
X57272Y66651D01*
X56986Y66986D01*
X56651Y67272D01*
X56275Y67503D01*
X55868Y67671D01*
X55439Y67774D01*
X55000Y67809D01*
X54996Y67808D01*
Y102192D01*
X55000Y102191D01*
X55439Y102226D01*
X55868Y102329D01*
X56275Y102497D01*
X56651Y102728D01*
X56986Y103014D01*
X57272Y103349D01*
X57503Y103725D01*
X57671Y104132D01*
X57774Y104561D01*
X57800Y105000D01*
X57774Y105439D01*
X57671Y105868D01*
X57503Y106275D01*
X57272Y106651D01*
X56986Y106986D01*
X56651Y107272D01*
X56275Y107503D01*
X55868Y107671D01*
X55439Y107774D01*
X55000Y107809D01*
X54996Y107808D01*
Y122192D01*
X55000Y122191D01*
X55439Y122226D01*
X55868Y122329D01*
X56275Y122497D01*
X56651Y122728D01*
X56986Y123014D01*
X57272Y123349D01*
X57503Y123725D01*
X57671Y124132D01*
X57774Y124561D01*
X57800Y125000D01*
X57774Y125439D01*
X57671Y125868D01*
X57503Y126275D01*
X57272Y126651D01*
X56986Y126986D01*
X56651Y127272D01*
X56275Y127503D01*
X55868Y127671D01*
X55439Y127774D01*
X55000Y127809D01*
X54996Y127808D01*
Y130000D01*
G37*
G36*
X39996D02*X54996D01*
Y127808D01*
X54561Y127774D01*
X54132Y127671D01*
X53725Y127503D01*
X53349Y127272D01*
X53014Y126986D01*
X52728Y126651D01*
X52497Y126275D01*
X52329Y125868D01*
X52226Y125439D01*
X52191Y125000D01*
X52226Y124561D01*
X52329Y124132D01*
X52497Y123725D01*
X52728Y123349D01*
X53014Y123014D01*
X53349Y122728D01*
X53725Y122497D01*
X54132Y122329D01*
X54561Y122226D01*
X54996Y122192D01*
Y107808D01*
X54561Y107774D01*
X54132Y107671D01*
X53725Y107503D01*
X53349Y107272D01*
X53014Y106986D01*
X52728Y106651D01*
X52497Y106275D01*
X52329Y105868D01*
X52226Y105439D01*
X52191Y105000D01*
X52226Y104561D01*
X52329Y104132D01*
X52497Y103725D01*
X52728Y103349D01*
X53014Y103014D01*
X53349Y102728D01*
X53725Y102497D01*
X54132Y102329D01*
X54561Y102226D01*
X54996Y102192D01*
Y67808D01*
X54561Y67774D01*
X54132Y67671D01*
X53725Y67503D01*
X53349Y67272D01*
X53014Y66986D01*
X52728Y66651D01*
X52497Y66275D01*
X52329Y65868D01*
X52226Y65439D01*
X52191Y65000D01*
X52226Y64561D01*
X52329Y64132D01*
X52497Y63725D01*
X52728Y63349D01*
X53014Y63014D01*
X53349Y62728D01*
X53725Y62497D01*
X54132Y62329D01*
X54561Y62226D01*
X54996Y62192D01*
Y47808D01*
X54561Y47774D01*
X54132Y47671D01*
X53725Y47503D01*
X53349Y47272D01*
X53014Y46986D01*
X52728Y46651D01*
X52497Y46275D01*
X52329Y45868D01*
X52226Y45439D01*
X52191Y45000D01*
X52226Y44561D01*
X52329Y44132D01*
X52497Y43725D01*
X52728Y43349D01*
X53014Y43014D01*
X53349Y42728D01*
X53725Y42497D01*
X54132Y42329D01*
X54561Y42226D01*
X54996Y42192D01*
Y10000D01*
X39996D01*
Y42192D01*
X40000Y42191D01*
X40439Y42226D01*
X40868Y42329D01*
X41275Y42497D01*
X41651Y42728D01*
X41986Y43014D01*
X42272Y43349D01*
X42503Y43725D01*
X42671Y44132D01*
X42774Y44561D01*
X42800Y45000D01*
X42774Y45439D01*
X42671Y45868D01*
X42503Y46275D01*
X42272Y46651D01*
X41986Y46986D01*
X41651Y47272D01*
X41275Y47503D01*
X40868Y47671D01*
X40439Y47774D01*
X40000Y47809D01*
X39996Y47808D01*
Y62192D01*
X40000Y62191D01*
X40439Y62226D01*
X40868Y62329D01*
X41275Y62497D01*
X41651Y62728D01*
X41986Y63014D01*
X42272Y63349D01*
X42503Y63725D01*
X42671Y64132D01*
X42774Y64561D01*
X42800Y65000D01*
X42774Y65439D01*
X42671Y65868D01*
X42503Y66275D01*
X42272Y66651D01*
X41986Y66986D01*
X41651Y67272D01*
X41275Y67503D01*
X40868Y67671D01*
X40439Y67774D01*
X40000Y67809D01*
X39996Y67808D01*
Y102192D01*
X40000Y102191D01*
X40439Y102226D01*
X40868Y102329D01*
X41275Y102497D01*
X41651Y102728D01*
X41986Y103014D01*
X42272Y103349D01*
X42503Y103725D01*
X42671Y104132D01*
X42774Y104561D01*
X42800Y105000D01*
X42774Y105439D01*
X42671Y105868D01*
X42503Y106275D01*
X42272Y106651D01*
X41986Y106986D01*
X41651Y107272D01*
X41275Y107503D01*
X40868Y107671D01*
X40439Y107774D01*
X40000Y107809D01*
X39996Y107808D01*
Y122192D01*
X40000Y122191D01*
X40439Y122226D01*
X40868Y122329D01*
X41275Y122497D01*
X41651Y122728D01*
X41986Y123014D01*
X42272Y123349D01*
X42503Y123725D01*
X42671Y124132D01*
X42774Y124561D01*
X42800Y125000D01*
X42774Y125439D01*
X42671Y125868D01*
X42503Y126275D01*
X42272Y126651D01*
X41986Y126986D01*
X41651Y127272D01*
X41275Y127503D01*
X40868Y127671D01*
X40439Y127774D01*
X40000Y127809D01*
X39996Y127808D01*
Y130000D01*
G37*
G36*
X35000D02*X39996D01*
Y127808D01*
X39561Y127774D01*
X39132Y127671D01*
X38725Y127503D01*
X38349Y127272D01*
X38014Y126986D01*
X37728Y126651D01*
X37497Y126275D01*
X37329Y125868D01*
X37226Y125439D01*
X37191Y125000D01*
X37226Y124561D01*
X37329Y124132D01*
X37497Y123725D01*
X37728Y123349D01*
X38014Y123014D01*
X38349Y122728D01*
X38725Y122497D01*
X39132Y122329D01*
X39561Y122226D01*
X39996Y122192D01*
Y107808D01*
X39561Y107774D01*
X39132Y107671D01*
X38725Y107503D01*
X38349Y107272D01*
X38014Y106986D01*
X37728Y106651D01*
X37497Y106275D01*
X37329Y105868D01*
X37226Y105439D01*
X37191Y105000D01*
X37226Y104561D01*
X37329Y104132D01*
X37497Y103725D01*
X37728Y103349D01*
X38014Y103014D01*
X38349Y102728D01*
X38725Y102497D01*
X39132Y102329D01*
X39561Y102226D01*
X39996Y102192D01*
Y67808D01*
X39561Y67774D01*
X39132Y67671D01*
X38725Y67503D01*
X38349Y67272D01*
X38014Y66986D01*
X37728Y66651D01*
X37497Y66275D01*
X37329Y65868D01*
X37226Y65439D01*
X37191Y65000D01*
X37226Y64561D01*
X37329Y64132D01*
X37497Y63725D01*
X37728Y63349D01*
X38014Y63014D01*
X38349Y62728D01*
X38725Y62497D01*
X39132Y62329D01*
X39561Y62226D01*
X39996Y62192D01*
Y47808D01*
X39561Y47774D01*
X39132Y47671D01*
X38725Y47503D01*
X38349Y47272D01*
X38014Y46986D01*
X37728Y46651D01*
X37497Y46275D01*
X37329Y45868D01*
X37226Y45439D01*
X37191Y45000D01*
X37226Y44561D01*
X37329Y44132D01*
X37497Y43725D01*
X37728Y43349D01*
X38014Y43014D01*
X38349Y42728D01*
X38725Y42497D01*
X39132Y42329D01*
X39561Y42226D01*
X39996Y42192D01*
Y10000D01*
X35000D01*
Y130000D01*
G37*
G54D16*X85000Y35000D03*
X70000D03*
X85000Y45000D03*
X40000Y35000D03*
X55000D03*
X40000Y45000D03*
X55000D03*
X70000D03*
X40000Y105000D03*
Y95000D03*
Y65000D03*
Y55000D03*
X70000Y105000D03*
Y95000D03*
Y65000D03*
Y55000D03*
X55000Y105000D03*
Y95000D03*
Y65000D03*
Y55000D03*
X85000Y65000D03*
Y55000D03*
X70000Y125000D03*
X85000D03*
X70000Y115000D03*
X40000Y125000D03*
X55000D03*
X40000Y115000D03*
X55000D03*
X85000D03*
Y105000D03*
Y95000D03*
G54D17*M02*
