G04 Title: (unknown), layergroup #2 *
G04 Creator: pcb 1.99j *
G04 CreationDate: Thu Feb 28 17:34:10 2002 UTC *
G04 For: root *
G04 Format: Gerber/RS-274X *
G04 PCB-Dimensions: 6000 5000 *
G04 PCB-Coordinate-Origin: lower left *
%MOIN*%
%FSLAX23Y23*%
G04 contains layers component (1) *
%IPPOS*%
%ADD11C,0.010*%
%ADD12C,0.017*%
%ADD13C,0.020*%
%ADD14C,0.030*%
%ADD15C,0.040*%
%ADD16C,0.037*%
%ADD17C,0.045*%
%ADD18C,0.055*%
%ADD19C,0.025*%
%ADD20C,0.035*%
%ADD21C,0.015*%
%ADD22C,0.022*%
%ADD23C,0.070*%
%ADD24C,0.080*%
%ADD25C,0.090*%
%ADD26C,0.150*%
%ADD27C,0.160*%
%ADD28C,0.170*%
%ADD29C,0.008*%
%ADD30R,0.028X0.028*%
%ADD31R,0.058X0.058*%
%ADD32R,0.050X0.050*%
%ADD33R,0.080X0.080*%
%ADD34C,0.000*%
%ADD35R,0.025X0.025*%
%ADD36R,0.055X0.055*%
%ADD37R,0.035X0.035*%
%ADD38R,0.040X0.040*%
%ADD39R,0.070X0.070*%
%ADD40C,0.016*%
%ADD41C,0.086*%
%ADD42C,0.072*%
%ADD43C,0.092*%
%ADD44R,0.110X0.110*%
%ADD45R,0.140X0.140*%
%ADD46R,0.010X0.010*%
%ADD47R,0.020X0.020*%
%ADD48R,0.060X0.060*%
%ADD49R,0.090X0.090*%
%ADD50C,0.060*%
%ADD51R,0.085X0.085*%
%ADD52R,0.115X0.115*%
%ADD53C,0.085*%
%ADD54C,0.115*%
%ADD55C,0.012*%
%ADD56C,0.110*%
%ADD57C,0.140*%
%ADD58C,0.031*%
%ADD59C,0.014*%
%ADD60C,0.036*%
%ADD61C,0.052*%
%ADD62C,0.013*%
%ADD63C,0.075*%
%ADD64C,0.177*%
%ADD65C,0.050*%
%ADD66C,0.076*%
%LNGROUP_1*%
%LPD*%
G01X0Y0D02*
G36*
X3228Y3242D02*X4408D01*
Y3812D01*
X3228D01*
Y3242D01*
G37*
G36*
X2978Y1922D02*X3628D01*
Y1252D01*
X2978D01*
Y1922D01*
G37*
%LNCUTS*%
%LPC*%
G54D12*X1719Y3349D02*X1717Y3351D01*
X1754Y3349D02*X1719D01*
G54D13*X2007Y3476D02*Y3429D01*
X1971Y3512D02*X2007Y3476D01*
X1971Y3529D02*Y3512D01*
X3019Y2788D02*X2985D01*
X3023Y2792D02*X3019Y2788D01*
X3008Y2807D02*X3023Y2792D01*
X2985Y2807D02*X3008D01*
G54D12*X2263Y2097D02*X2288Y2072D01*
X2243Y2125D02*X2263D01*
X2302D02*Y2092D01*
X2228Y2018D01*
X2460Y2125D02*Y2082D01*
X2498D01*
Y2072D01*
X2440Y2125D02*Y2090D01*
X2458Y2072D01*
X2498D01*
X2539Y2133D02*Y2085D01*
X2984Y2650D02*X3094D01*
X2986Y2709D02*X3059D01*
X3093Y2675D01*
X2986Y2748D02*X3050D01*
X2878Y2394D02*X2840D01*
X2811Y2423D01*
X2841Y2453D01*
X2877D01*
X2878Y2926D02*X2808D01*
X2980Y3122D02*X3052D01*
X3054Y3124D01*
X2795Y3430D02*Y3455D01*
X2769Y3481D01*
X2598Y3327D02*Y3272D01*
X2362Y3431D02*Y3456D01*
X2391Y3485D01*
X2401Y3475D01*
Y3430D01*
X2421Y3429D02*Y3464D01*
X2401Y3484D01*
X2243Y3430D02*Y3493D01*
X2263Y3473D01*
Y3428D01*
Y3454D01*
X2007Y3322D02*Y3263D01*
X2008Y3262D01*
X2168D02*X2165Y3265D01*
Y3322D01*
X1788Y2394D02*X1830D01*
X1838Y2402D01*
X1826Y2414D01*
X1788D01*
Y2906D02*X1824D01*
X1848Y2882D01*
Y2842D01*
X2185Y1502D02*X2298D01*
X2328Y1472D01*
X2638Y1922D02*X2608D01*
X2588Y1942D01*
X3433Y2256D02*Y2197D01*
X3398Y2162D01*
X3238D01*
Y2112D01*
X2086Y2233D02*Y2290D01*
X2098Y2302D01*
X1948Y2234D02*Y2249D01*
X1926Y2271D01*
X1668Y2244D02*X1680Y2256D01*
Y2276D01*
X3026Y3476D02*Y3594D01*
X3006Y3614D01*
X3054Y3662D01*
X3160D01*
X3178Y3680D01*
Y3786D01*
X3144Y3820D01*
X2698Y2282D02*X2716Y2264D01*
Y2232D01*
X2348Y1742D02*X2398Y1692D01*
X1765Y2276D02*Y2109D01*
X1752Y2096D01*
Y2059D01*
X1715Y2022D01*
X2288Y1701D02*X2329Y1742D01*
X2348D01*
X1787Y2611D02*X1807D01*
X1848Y2652D01*
X1788Y2847D02*X1843D01*
X1848Y2842D01*
X1814Y2808D01*
X1788D01*
X1848Y2742D02*X1841Y2749D01*
X1788D01*
Y2729D02*X1835D01*
X1848Y2742D01*
X1788Y3083D02*X1847D01*
X1848Y3082D01*
X3050Y2748D02*X3060Y2738D01*
Y2708D01*
X2263Y2125D02*Y2097D01*
G54D14*X2404Y3479D02*X2444Y3519D01*
X2484D01*
G54D13*X2483Y3520D01*
Y3689D01*
G54D20*X2237Y3502D02*X2240Y3499D01*
Y3555D01*
G54D15*X1764Y3869D02*Y4034D01*
G54D13*X1894Y3679D02*X1874Y3699D01*
X1894Y3643D02*Y3679D01*
G54D15*X1784Y3849D02*X1764Y3869D01*
X3751Y1759D02*X3754Y1762D01*
G54D13*X3280Y2666D02*X3282Y2668D01*
X3197Y2666D02*X3280D01*
G54D12*X1614Y3486D02*Y3509D01*
X2238Y1392D02*X2258Y1412D01*
X2188Y1392D02*X2238D01*
X1628Y1602D02*X1728D01*
X2668Y1842D02*X2607D01*
X3978Y2482D02*X3958Y2502D01*
X3998Y2482D02*X3978D01*
X3968Y2452D02*Y2431D01*
X3998Y2482D02*X3968Y2452D01*
X3958Y2181D02*X3978Y2201D01*
X3958Y2152D02*Y2181D01*
X3898Y2152D02*X3958D01*
X3888Y2142D02*X3898Y2152D01*
X3858Y2172D02*X3888Y2142D01*
X3788Y2172D02*X3858D01*
X3788Y2162D02*Y2172D01*
X3758Y2132D02*X3788Y2162D01*
X3718Y2172D02*X3758Y2132D01*
X3551Y2575D02*X3548Y2572D01*
X3551Y2622D02*Y2575D01*
Y2359D02*Y2325D01*
X3538Y2372D02*X3551Y2359D01*
X3531Y2365D02*X3538Y2372D01*
X3531Y2325D02*Y2365D01*
X3492Y2348D02*Y2325D01*
X3468Y2372D02*X3492Y2348D01*
X3452Y2356D02*X3468Y2372D01*
X3452Y2325D02*Y2356D01*
X3610Y2325D02*Y2372D01*
X3668Y2383D02*X3618D01*
X3767Y2461D02*X3788Y2482D01*
X3737Y2461D02*X3767D01*
X3757Y2723D02*X3708D01*
X3778Y2702D02*X3757Y2723D01*
X3778Y2621D02*Y2702D01*
X3737Y2580D02*X3778Y2621D01*
X3636Y2540D02*X3668D01*
X3618Y2522D02*X3636Y2540D01*
X3639Y2501D02*X3618Y2522D01*
X3668Y2501D02*X3639D01*
X2755Y2279D02*X2758Y2282D01*
X2755Y2232D02*Y2279D01*
X2980Y2414D02*X3060D01*
X2808Y2752D02*Y2692D01*
X2877Y2670D02*X2830D01*
X2815Y2729D02*X2877D01*
X2808Y2722D02*X2815Y2729D01*
X2830Y2670D02*X2808Y2692D01*
X2824Y2768D02*X2808Y2752D01*
X2878Y2768D02*X2824D01*
X2838Y3201D02*X2878D01*
X2818Y3222D02*X2838Y3201D01*
X2818Y3241D02*Y3222D01*
X2878Y3241D02*X2818D01*
X2755Y3275D02*X2758Y3272D01*
X2755Y3332D02*Y3275D01*
X1788Y2591D02*X1838D01*
X2408Y3262D02*X2378D01*
X2440Y3294D02*X2408Y3262D01*
X2440Y3322D02*Y3294D01*
X2381Y3265D02*Y3322D01*
X2378Y3262D02*X2381Y3265D01*
X2342Y3298D02*X2378Y3262D01*
X2342Y3322D02*Y3298D01*
X2558Y2232D02*Y2282D01*
X2248D02*X2298D01*
X2322Y2233D02*Y2258D01*
X2283Y2277D02*Y2232D01*
X2278Y2282D02*X2283Y2277D01*
X2322Y2258D02*X2298Y2282D01*
X2224Y2258D02*X2248Y2282D01*
X2224Y2232D02*Y2258D01*
X2106Y2084D02*X2118Y2072D01*
X2106Y2132D02*Y2084D01*
X1646Y2374D02*X1628Y2392D01*
X1680Y2374D02*X1646D01*
X1652Y2788D02*X1680D01*
X1628Y2812D02*X1652Y2788D01*
X1643Y2827D02*X1628Y2812D01*
X1680Y2827D02*X1643D01*
X1889Y3282D02*X1848D01*
X1889Y3322D02*Y3282D01*
X1838Y3221D02*Y3262D01*
X1788Y3221D02*X1838D01*
X1850Y3274D02*Y3322D01*
X1836Y3260D02*X1850Y3274D01*
X1788Y3260D02*X1836D01*
X2670Y2072D02*X2608D01*
X3148Y2112D02*X3078D01*
X2356Y2066D02*X2342Y2052D01*
Y2004D01*
X3571Y2687D02*Y2730D01*
X3583Y2742D01*
X3591Y2734D01*
Y2687D01*
X3610D02*Y2719D01*
X3633Y2742D01*
X3630Y2739D01*
Y2687D01*
X3583Y2742D02*Y2868D01*
X3597Y2882D01*
X3863Y2837D02*X3833Y2867D01*
X3633Y2742D02*Y2767D01*
X3658Y2792D01*
X3783D01*
X3863D02*Y2837D01*
X3689Y2867D02*X3833D01*
X3983Y1386D02*X4054D01*
X4098Y1342D01*
X4128D01*
G54D22*X3883Y1592D02*X4133D01*
X4138Y1597D01*
X3888Y1692D02*X4008D01*
X4038Y1722D01*
X4128D01*
G54D12*X3630Y2262D02*Y2214D01*
X3628Y2212D01*
G54D14*X4567Y2589D02*Y2491D01*
X4563Y2593D02*X4567Y2589D01*
G54D20*X3779Y2992D02*X3809Y3022D01*
X3838D01*
X3828Y3032D01*
Y3082D01*
X3628Y2212D02*X3598Y2182D01*
Y2151D01*
Y2072D02*X3668D01*
G54D15*X3684Y1759D02*X3751D01*
G54D14*X2565Y3519D02*Y3570D01*
X2594Y3599D01*
G54D12*X1641Y3459D02*X1614Y3486D01*
G54D13*X2154Y3569D02*Y3499D01*
G54D28*X3183Y1592D03*
X3483Y3692D03*
G54D31*X1717Y3465D02*Y3453D01*
X1679Y3465D02*Y3453D01*
X1641Y3465D02*Y3453D01*
Y3363D02*Y3351D01*
X1717Y3363D02*Y3351D01*
G54D33*X2279Y1694D02*Y1693D01*
Y1614D02*Y1613D01*
X2393Y1694D02*Y1693D01*
Y1614D02*Y1613D01*
G54D18*X2110Y1550D02*X2185D01*
G54D36*X2110Y1600D02*X2185D01*
X2110Y1650D02*X2185D01*
X2052Y1783D02*Y1707D01*
X2002Y1783D02*Y1707D01*
X1952Y1783D02*Y1707D01*
X1902Y1783D02*Y1707D01*
X1852Y1783D02*Y1707D01*
X1719Y1650D02*X1795D01*
X1719Y1600D02*X1795D01*
X1719Y1550D02*X1795D01*
X1719Y1500D02*X1795D01*
X1719Y1450D02*X1795D01*
X1852Y1393D02*Y1317D01*
X1902Y1393D02*Y1317D01*
X1952Y1393D02*Y1317D01*
X2002Y1393D02*Y1317D01*
X2052Y1393D02*Y1317D01*
X2110Y1450D02*X2185D01*
X2110Y1500D02*X2185D01*
G54D33*X3028Y3472D02*X3029D01*
X2948D02*X2949D01*
X1698Y2032D02*Y2031D01*
Y2112D02*Y2111D01*
G54D39*X4122Y1597D02*X4142D01*
X4122Y1716D02*X4142D01*
X4122Y1347D02*X4142D01*
X4122Y1466D02*X4142D01*
G54D33*X3598Y2072D02*Y2071D01*
Y2152D02*Y2151D01*
X2483Y3689D02*X2484D01*
X2563D02*X2564D01*
X3948Y2723D02*Y2722D01*
Y2643D02*Y2642D01*
X3157Y2102D02*X3158D01*
X3237D02*X3238D01*
X3798Y2182D02*Y2181D01*
Y2262D02*Y2261D01*
G54D39*X3818Y3101D02*Y3081D01*
X3699Y3101D02*Y3081D01*
G54D33*X2575Y1943D02*X2576D01*
X2495D02*X2496D01*
G54D39*X3877Y2142D02*X3897D01*
X3877Y2261D02*X3897D01*
X3968Y2431D02*Y2411D01*
X3849Y2431D02*Y2411D01*
G54D33*X2258Y1422D02*Y1421D01*
Y1502D02*Y1501D01*
X3688Y2867D02*X3689D01*
X3608D02*X3609D01*
X3983Y1387D02*Y1386D01*
Y1467D02*Y1466D01*
X3778Y2992D02*X3779D01*
X3698D02*X3699D01*
X4008Y1612D02*Y1611D01*
Y1692D02*Y1691D01*
X3863Y2792D02*X3864D01*
X3783D02*X3784D01*
X3758Y1762D02*Y1761D01*
Y1842D02*Y1841D01*
G54D45*X1761Y4034D02*X1762D01*
X1761Y3667D02*X1762D01*
X1469Y3959D02*X1470D01*
G54D33*X2361Y2072D02*X2362D01*
X2281D02*X2282D01*
X3188Y2662D02*X3189D01*
X3108D02*X3109D01*
X2598Y2072D02*X2599D01*
X2518D02*X2519D01*
X2157Y3502D02*X2158D01*
X2237D02*X2238D01*
G54D39*X2492Y1593D02*X2512D01*
X2492Y1712D02*X2512D01*
X2607Y1856D02*Y1836D01*
X2488Y1856D02*Y1836D01*
G54D33*X3938Y2512D02*X3939D01*
X3858D02*X3859D01*
X3978Y2202D02*Y2201D01*
Y2282D02*Y2281D01*
X3698Y2182D02*Y2181D01*
Y2262D02*Y2261D01*
X3708Y2723D02*Y2722D01*
Y2643D02*Y2642D01*
G54D15*X1680Y3280D02*X1788D01*
G54D38*X1680Y3260D02*X1788D01*
X1680Y3241D02*X1788D01*
X1680Y3221D02*X1788D01*
X1680Y3201D02*X1788D01*
X1680Y3182D02*X1788D01*
X1680Y3162D02*X1788D01*
X1680Y3142D02*X1788D01*
X1680Y3123D02*X1788D01*
X1680Y3103D02*X1788D01*
X1680Y3083D02*X1788D01*
X1680Y3063D02*X1788D01*
X1680Y3044D02*X1788D01*
X1680Y3024D02*X1788D01*
X1680Y3004D02*X1788D01*
X1680Y2985D02*X1788D01*
X1680Y2965D02*X1788D01*
X1680Y2945D02*X1788D01*
X1680Y2926D02*X1788D01*
X1680Y2906D02*X1788D01*
X1680Y2886D02*X1788D01*
X1680Y2867D02*X1788D01*
X1680Y2847D02*X1788D01*
X1680Y2827D02*X1788D01*
X1680Y2808D02*X1788D01*
X1680Y2788D02*X1788D01*
X1680Y2768D02*X1788D01*
X1680Y2749D02*X1788D01*
X1680Y2729D02*X1788D01*
X1680Y2709D02*X1788D01*
X1680Y2689D02*X1788D01*
X1680Y2670D02*X1788D01*
X1680Y2650D02*X1788D01*
X1680Y2630D02*X1788D01*
X1680Y2611D02*X1788D01*
X1680Y2591D02*X1788D01*
X1680Y2571D02*X1788D01*
X1680Y2552D02*X1788D01*
X1680Y2532D02*X1788D01*
X1680Y2512D02*X1788D01*
X1680Y2493D02*X1788D01*
X1680Y2473D02*X1788D01*
X1680Y2453D02*X1788D01*
X1680Y2434D02*X1788D01*
X1680Y2414D02*X1788D01*
X1680Y2394D02*X1788D01*
X1680Y2374D02*X1788D01*
X1680Y2355D02*X1788D01*
X1680Y2335D02*X1788D01*
X1680Y2315D02*X1788D01*
X1680Y2296D02*X1788D01*
X1680Y2276D02*X1788D01*
X1830Y2233D02*Y2125D01*
X1850Y2233D02*Y2125D01*
X1869Y2233D02*Y2125D01*
X1889Y2233D02*Y2125D01*
X1909Y2233D02*Y2125D01*
X1928Y2233D02*Y2125D01*
X1948Y2233D02*Y2125D01*
X1968Y2233D02*Y2125D01*
X1987Y2233D02*Y2125D01*
X2007Y2233D02*Y2125D01*
X2027Y2233D02*Y2125D01*
X2047Y2233D02*Y2125D01*
X2066Y2233D02*Y2125D01*
X2086Y2233D02*Y2125D01*
X2106Y2233D02*Y2125D01*
X2125Y2233D02*Y2125D01*
X2145Y2233D02*Y2125D01*
X2165Y2233D02*Y2125D01*
X2184Y2233D02*Y2125D01*
X2204Y2233D02*Y2125D01*
X2224Y2233D02*Y2125D01*
X2243Y2233D02*Y2125D01*
X2263Y2233D02*Y2125D01*
X2283Y2233D02*Y2125D01*
X2302Y2233D02*Y2125D01*
X2322Y2233D02*Y2125D01*
X2342Y2233D02*Y2125D01*
X2361Y2233D02*Y2125D01*
X2381Y2233D02*Y2125D01*
X2401Y2233D02*Y2125D01*
X2421Y2233D02*Y2125D01*
X2440Y2233D02*Y2125D01*
X2460Y2233D02*Y2125D01*
X2480Y2233D02*Y2125D01*
X2499Y2233D02*Y2125D01*
X2519Y2233D02*Y2125D01*
X2539Y2233D02*Y2125D01*
X2558Y2233D02*Y2125D01*
X2578Y2233D02*Y2125D01*
X2598Y2233D02*Y2125D01*
X2617Y2233D02*Y2125D01*
X2637Y2233D02*Y2125D01*
X2657Y2233D02*Y2125D01*
X2676Y2233D02*Y2125D01*
X2696Y2233D02*Y2125D01*
X2716Y2233D02*Y2125D01*
X2736Y2233D02*Y2125D01*
X2755Y2233D02*Y2125D01*
X2775Y2233D02*Y2125D01*
X2795Y2233D02*Y2125D01*
X2814Y2233D02*Y2125D01*
X2834Y2233D02*Y2125D01*
X2877Y2276D02*X2985D01*
X2877Y2296D02*X2985D01*
X2877Y2315D02*X2985D01*
X2877Y2335D02*X2985D01*
X2877Y2355D02*X2985D01*
X2877Y2374D02*X2985D01*
X2877Y2394D02*X2985D01*
X2877Y2414D02*X2985D01*
X2877Y2433D02*X2985D01*
X2877Y2453D02*X2985D01*
X2877Y2473D02*X2985D01*
X2877Y2493D02*X2985D01*
X2877Y2512D02*X2985D01*
X2877Y2532D02*X2985D01*
X2877Y2552D02*X2985D01*
X2877Y2571D02*X2985D01*
X2877Y2591D02*X2985D01*
X2877Y2611D02*X2985D01*
X2877Y2630D02*X2985D01*
X2877Y2650D02*X2985D01*
X2877Y2670D02*X2985D01*
X2877Y2689D02*X2985D01*
X2877Y2709D02*X2985D01*
X2877Y2729D02*X2985D01*
X2877Y2748D02*X2985D01*
X2877Y2768D02*X2985D01*
X2877Y2788D02*X2985D01*
X2877Y2807D02*X2985D01*
X2877Y2827D02*X2985D01*
X2877Y2847D02*X2985D01*
X2877Y2867D02*X2985D01*
X2877Y2886D02*X2985D01*
X2877Y2906D02*X2985D01*
X2877Y2926D02*X2985D01*
X2877Y2945D02*X2985D01*
X2877Y2965D02*X2985D01*
X2877Y2985D02*X2985D01*
X2877Y3004D02*X2985D01*
X2877Y3024D02*X2985D01*
X2877Y3044D02*X2985D01*
X2877Y3063D02*X2985D01*
X2877Y3083D02*X2985D01*
X2877Y3103D02*X2985D01*
X2877Y3122D02*X2985D01*
X2877Y3142D02*X2985D01*
X2877Y3162D02*X2985D01*
X2877Y3182D02*X2985D01*
X2877Y3201D02*X2985D01*
X2877Y3221D02*X2985D01*
X2877Y3241D02*X2985D01*
X2877Y3260D02*X2985D01*
X2877Y3280D02*X2985D01*
X2834Y3430D02*Y3322D01*
X2814Y3430D02*Y3322D01*
X2795Y3430D02*Y3322D01*
X2775Y3430D02*Y3322D01*
X2755Y3430D02*Y3322D01*
X2736Y3430D02*Y3322D01*
X2716Y3430D02*Y3322D01*
X2696Y3430D02*Y3322D01*
X2677Y3430D02*Y3322D01*
X2657Y3430D02*Y3322D01*
X2637Y3430D02*Y3322D01*
X2617Y3430D02*Y3322D01*
X2598Y3430D02*Y3322D01*
X2578Y3430D02*Y3322D01*
X2558Y3430D02*Y3322D01*
X2539Y3430D02*Y3322D01*
X2519Y3430D02*Y3322D01*
X2499Y3430D02*Y3322D01*
X2480Y3430D02*Y3322D01*
X2460Y3430D02*Y3322D01*
X2440Y3430D02*Y3322D01*
X2421Y3430D02*Y3322D01*
X2401Y3430D02*Y3322D01*
X2381Y3430D02*Y3322D01*
X2362Y3430D02*Y3322D01*
X2342Y3430D02*Y3322D01*
X2322Y3430D02*Y3322D01*
X2303Y3430D02*Y3322D01*
X2283Y3430D02*Y3322D01*
X2263Y3430D02*Y3322D01*
X2243Y3430D02*Y3322D01*
X2224Y3430D02*Y3322D01*
X2204Y3430D02*Y3322D01*
X2184Y3430D02*Y3322D01*
X2165Y3430D02*Y3322D01*
X2145Y3430D02*Y3322D01*
X2125Y3430D02*Y3322D01*
X2106Y3430D02*Y3322D01*
X2086Y3430D02*Y3322D01*
X2066Y3430D02*Y3322D01*
X2047Y3430D02*Y3322D01*
X2027Y3430D02*Y3322D01*
X2007Y3430D02*Y3322D01*
X1988Y3430D02*Y3322D01*
X1968Y3430D02*Y3322D01*
X1948Y3430D02*Y3322D01*
X1928Y3430D02*Y3322D01*
X1909Y3430D02*Y3322D01*
X1889Y3430D02*Y3322D01*
X1869Y3430D02*Y3322D01*
X1850Y3430D02*Y3322D01*
X1830Y3430D02*Y3322D01*
G54D15*X3630Y2687D02*Y2618D01*
G54D38*X3610Y2687D02*Y2618D01*
X3591Y2687D02*Y2618D01*
X3571Y2687D02*Y2618D01*
X3551Y2687D02*Y2618D01*
X3532Y2687D02*Y2618D01*
X3512Y2687D02*Y2618D01*
X3492Y2687D02*Y2618D01*
X3473Y2687D02*Y2618D01*
X3453Y2687D02*Y2618D01*
X3433Y2687D02*Y2618D01*
X3413Y2687D02*Y2618D01*
X3306Y2580D02*X3375D01*
X3306Y2560D02*X3375D01*
X3306Y2541D02*X3375D01*
X3306Y2521D02*X3375D01*
X3306Y2501D02*X3375D01*
X3306Y2482D02*X3375D01*
X3306Y2462D02*X3375D01*
X3306Y2442D02*X3375D01*
X3306Y2423D02*X3375D01*
X3306Y2403D02*X3375D01*
X3306Y2383D02*X3375D01*
X3306Y2363D02*X3375D01*
X3413Y2325D02*Y2256D01*
X3433Y2325D02*Y2256D01*
X3452Y2325D02*Y2256D01*
X3472Y2325D02*Y2256D01*
X3492Y2325D02*Y2256D01*
X3511Y2325D02*Y2256D01*
X3531Y2325D02*Y2256D01*
X3551Y2325D02*Y2256D01*
X3570Y2325D02*Y2256D01*
X3590Y2325D02*Y2256D01*
X3610Y2325D02*Y2256D01*
X3630Y2325D02*Y2256D01*
X3668Y2363D02*X3737D01*
X3668Y2383D02*X3737D01*
X3668Y2402D02*X3737D01*
X3668Y2422D02*X3737D01*
X3668Y2442D02*X3737D01*
X3668Y2461D02*X3737D01*
X3668Y2481D02*X3737D01*
X3668Y2501D02*X3737D01*
X3668Y2520D02*X3737D01*
X3668Y2540D02*X3737D01*
X3668Y2560D02*X3737D01*
X3668Y2580D02*X3737D01*
G54D33*X3138Y3822D02*X3139D01*
X3058D02*X3059D01*
G54D45*X4574Y2588D02*Y2587D01*
X4207Y2588D02*Y2587D01*
X4499Y2880D02*Y2879D01*
G54D31*X1971Y3643D02*Y3631D01*
X1933Y3643D02*Y3631D01*
X1895Y3643D02*Y3631D01*
Y3541D02*Y3529D01*
X1971Y3541D02*Y3529D01*
G54D33*X2564Y3519D02*X2565D01*
X2484D02*X2485D01*
%LNTRACKS*%
%LPD*%
G54D11*X3928Y2662D02*X3948Y2642D01*
X1719Y3349D02*X1717Y3351D01*
X1754Y3349D02*X1719D01*
X2007Y3476D02*Y3429D01*
X1971Y3512D02*X2007Y3476D01*
X1971Y3529D02*Y3512D01*
X3019Y2788D02*X2985D01*
X3023Y2792D02*X3019Y2788D01*
X3008Y2807D02*X3023Y2792D01*
X2985Y2807D02*X3008D01*
X2263Y2097D02*X2288Y2072D01*
X2243Y2125D02*X2263D01*
X2302D02*Y2092D01*
X2228Y2018D01*
X2460Y2125D02*Y2082D01*
X2498D01*
Y2072D01*
X2440Y2125D02*Y2090D01*
X2458Y2072D01*
X2498D01*
X2539Y2133D02*Y2085D01*
X2984Y2650D02*X3094D01*
X2986Y2709D02*X3059D01*
X3093Y2675D01*
X2986Y2748D02*X3050D01*
X2878Y2394D02*X2840D01*
X2811Y2423D01*
X2841Y2453D01*
X2877D01*
X2878Y2926D02*X2808D01*
X2980Y3122D02*X3052D01*
X3054Y3124D01*
X2795Y3430D02*Y3455D01*
X2769Y3481D01*
X2598Y3327D02*Y3272D01*
X2362Y3431D02*Y3456D01*
X2391Y3485D01*
X2401Y3475D01*
Y3430D01*
X2421Y3429D02*Y3464D01*
X2401Y3484D01*
X2243Y3430D02*Y3493D01*
X2263Y3473D01*
Y3428D01*
Y3454D01*
X2007Y3322D02*Y3263D01*
X2008Y3262D01*
X2168D02*X2165Y3265D01*
Y3322D01*
X1788Y2394D02*X1830D01*
X1838Y2402D01*
X1826Y2414D01*
X1788D01*
Y2906D02*X1824D01*
X1848Y2882D01*
Y2842D01*
X2185Y1502D02*X2298D01*
X2328Y1472D01*
X2638Y1922D02*X2608D01*
X2588Y1942D01*
X3433Y2256D02*Y2197D01*
X3398Y2162D01*
X3238D01*
Y2112D01*
X2086Y2233D02*Y2290D01*
X2098Y2302D01*
X1948Y2234D02*Y2249D01*
X1926Y2271D01*
X1668Y2244D02*X1680Y2256D01*
Y2276D01*
X3026Y3476D02*Y3594D01*
X3006Y3614D01*
X3054Y3662D01*
X3160D01*
X3178Y3680D01*
Y3786D01*
X3144Y3820D01*
X2698Y2282D02*X2716Y2264D01*
Y2232D01*
X2348Y1742D02*X2398Y1692D01*
X1765Y2276D02*Y2109D01*
X1752Y2096D01*
Y2059D01*
X1715Y2022D01*
X2288Y1701D02*X2329Y1742D01*
X2348D01*
X1787Y2611D02*X1807D01*
X1848Y2652D01*
X1788Y2847D02*X1843D01*
X1848Y2842D01*
X1814Y2808D01*
X1788D01*
X1848Y2742D02*X1841Y2749D01*
X1788D01*
Y2729D02*X1835D01*
X1848Y2742D01*
X1788Y3083D02*X1847D01*
X1848Y3082D01*
X3050Y2748D02*X3060Y2738D01*
Y2708D01*
X2263Y2125D02*Y2097D01*
G54D13*X2404Y3479D02*X2444Y3519D01*
X2484D01*
G54D11*X2483Y3520D01*
Y3689D01*
G54D19*X2237Y3502D02*X2240Y3499D01*
Y3555D01*
G54D11*X2164Y1728D02*X2232Y1796D01*
X2304D01*
X2368Y1860D01*
Y1956D01*
X2420Y2008D01*
X2668D01*
X2839Y1836D01*
Y1656D01*
X2788Y1604D01*
G54D14*X3883Y1492D02*X3903Y1472D01*
X4128D01*
X4224Y1869D02*X4284Y1929D01*
G54D11*X4004Y2586D02*X3945Y2645D01*
X3786Y2520D02*X3928Y2662D01*
X3737Y2520D02*X3786D01*
X3736Y2560D02*X3766D01*
X3938Y2732D01*
X3849Y2501D02*X3848Y2502D01*
X3849Y2442D02*Y2501D01*
X3737Y2442D02*X3849D01*
X3578Y2532D02*X3689Y2643D01*
X3578Y2502D02*Y2532D01*
X3599Y2481D02*X3578Y2502D01*
X3668Y2481D02*X3599D01*
X3908Y2362D02*X3978Y2292D01*
X3828Y2362D02*X3908D01*
X3768Y2422D02*X3828Y2362D01*
X3737Y2422D02*X3768D01*
X3689Y2643D02*X3698D01*
X3788Y2262D02*X3888D01*
X3768Y2282D02*X3788Y2262D01*
X3768Y2392D02*Y2282D01*
X3758Y2402D02*X3768Y2392D01*
X3737Y2402D02*X3758D01*
X3698Y2262D02*Y2363D01*
X3590Y2256D02*X3570D01*
X3105Y2945D02*X2985D01*
X3208Y2842D02*X3105Y2945D01*
X3478Y2842D02*X3208D01*
X3532Y2788D02*X3478Y2842D01*
X3532Y2687D02*Y2788D01*
X3492Y2768D02*Y2682D01*
X3448Y2812D02*X3492Y2768D01*
X3188Y2812D02*X3448D01*
X3094Y2906D02*X3188Y2812D01*
X2985Y2906D02*X3094D01*
X3074Y2886D02*X2978D01*
X3178Y2782D02*X3074Y2886D01*
X3438Y2782D02*X3178D01*
X3473Y2747D02*X3438Y2782D01*
X3473Y2687D02*Y2747D01*
X3453Y2727D02*Y2687D01*
X3428Y2752D02*X3453Y2727D01*
X3158Y2752D02*X3428D01*
X3063Y2847D02*X3158Y2752D01*
X2985Y2847D02*X3063D01*
X3043Y2827D02*X2978D01*
X3148Y2722D02*X3043Y2827D01*
X3418Y2722D02*X3148D01*
X3433Y2707D02*X3418Y2722D01*
X3433Y2687D02*Y2707D01*
X3378Y2642D02*X3408D01*
X3347Y2611D02*X3378Y2642D01*
X2984Y2611D02*X3347D01*
X1909Y2126D02*Y1918D01*
X1852Y1861D01*
X1928Y2125D02*Y1997D01*
X1852Y1861D02*Y1783D01*
X2052Y1873D02*Y1783D01*
X1928Y1997D02*X2052Y1873D01*
X1952Y1783D02*Y1873D01*
X1958Y1892D01*
X1783Y2078D02*X1830Y2125D01*
X1869Y1944D02*Y2125D01*
X2110Y1600D02*X2041D01*
X2033Y1592D01*
X1783Y1742D02*Y2078D01*
X1889Y2233D02*Y2298D01*
X1942Y2351D01*
X2408Y1942D02*X2495D01*
Y1725D01*
X2508Y1712D01*
X2027Y2125D02*Y2098D01*
X2133Y1992D01*
Y1817D01*
X2007Y2125D02*Y2043D01*
X2058Y1993D01*
G54D14*X1764Y3869D02*Y4034D01*
G54D11*X1894Y3679D02*X1874Y3699D01*
X1168Y1904D02*X1216Y1952D01*
X1388D01*
X1628Y2192D01*
Y2282D01*
X1642Y2296D01*
X1678D01*
X1680Y2315D02*X1611D01*
X1348Y2052D01*
X1220D01*
X1170Y2002D01*
X1680Y2355D02*X1561D01*
X1308Y2102D01*
X1270D01*
X1680Y2434D02*X1580D01*
X1298Y2152D01*
X1218D01*
X1168Y2102D01*
X1680Y2453D02*X1559D01*
X1358Y2252D01*
X1220D01*
X1170Y2202D01*
X1680Y2473D02*X1509D01*
X1338Y2302D01*
X1270D01*
X1680Y2493D02*X1479D01*
X1338Y2352D01*
X1218D01*
X1168Y2302D01*
X1680Y2532D02*X1408D01*
X1328Y2452D01*
X1218D01*
X1168Y2402D01*
X1678Y2552D02*X1220D01*
X1170Y2502D01*
X1681Y2571D02*X1469D01*
X1388Y2652D01*
X1220D01*
X1170Y2602D01*
X1680Y2630D02*X1470D01*
X1378Y2722D01*
X1350D01*
X1270Y2802D01*
X1680Y2650D02*X1520D01*
X1318Y2852D01*
X1220D01*
X1170Y2802D01*
X1680Y2670D02*X1560D01*
X1328Y2902D01*
X1268D01*
X1680Y2689D02*X1601D01*
X1338Y2952D01*
X1220D01*
X1170Y2902D01*
X1680Y2886D02*X1464D01*
X1348Y3002D01*
X1270D01*
X1680Y2926D02*X1464D01*
X1338Y3052D01*
X1220D01*
X1170Y3002D01*
X1680Y2945D02*X1505D01*
X1348Y3102D01*
X1270D01*
X1680Y2965D02*X1565D01*
X1378Y3152D01*
X1220D01*
X1170Y3102D01*
X1680Y3004D02*X1556D01*
X1358Y3202D01*
X1268D01*
X1680Y3024D02*X1566D01*
X1338Y3252D01*
X1218D01*
X1168Y3202D01*
X1678Y3044D02*X1586D01*
X1328Y3302D01*
X1270D01*
X1678Y3063D02*X1617D01*
X1328Y3352D01*
X1218D01*
X1168Y3302D01*
X1680Y3103D02*X1617D01*
X1318Y3402D01*
X1268D01*
X1678Y3122D02*X1638D01*
X1308Y3452D01*
X1218D01*
X1168Y3402D01*
X1678Y3162D02*X1628D01*
X1288Y3502D01*
X1278D01*
X1680Y3182D02*X1638D01*
X1338Y3482D01*
Y3532D01*
X1318Y3552D01*
X1218D01*
X1168Y3502D01*
X1680Y3202D02*X1658D01*
X1368Y3492D01*
Y3602D01*
X1308Y3662D01*
X1228D01*
X1168Y3602D01*
X2185Y1600D02*X2187Y1602D01*
X2268D01*
X2052Y1322D02*X2258D01*
X2398Y1462D01*
Y1602D01*
X2488D01*
X1948Y1322D02*Y1282D01*
X1968Y1262D01*
X2438D01*
X2598Y1422D01*
Y1682D01*
X2568Y1712D01*
X2508D01*
X1968Y2233D02*Y2310D01*
X1700Y2178D02*X1698Y2112D01*
X2775Y2132D02*Y1975D01*
X2788Y1962D01*
X3438D01*
X3511Y2035D01*
Y2256D01*
X3472D02*Y2096D01*
X3398Y2022D01*
X2828D01*
X2795Y2055D01*
Y2132D01*
X2985Y2276D02*X3413D01*
X2985Y2296D02*X3239D01*
X3306Y2363D01*
Y2383D02*X3289D01*
X3221Y2315D01*
X2985D01*
Y2335D02*X3201D01*
X3269Y2403D01*
X3306D01*
Y2423D02*X3249D01*
X3181Y2355D01*
X2985D01*
Y2374D02*X3160D01*
X3228Y2442D01*
X3306D01*
Y2462D02*X3042D01*
X3013Y2433D01*
X2985D01*
Y2473D02*X3015D01*
X3024Y2482D01*
X3306D01*
X3305Y2501D02*X3037D01*
X3028Y2512D01*
X2985D01*
Y2532D02*X3048D01*
X3059Y2521D01*
X3307D01*
Y2541D02*X3099D01*
X3088Y2552D01*
X2985D01*
X2986Y2571D02*X3139D01*
X3150Y2560D01*
X3306D01*
Y2580D02*X3170D01*
X3159Y2591D01*
X2986D01*
X1894Y3643D02*Y3679D01*
G54D14*X1784Y3849D02*X1764Y3869D01*
G54D11*X1934Y3709D02*Y3639D01*
X1864Y3779D02*X1934Y3709D01*
X1644Y3779D02*X1864D01*
X1464Y3959D02*X1644Y3779D01*
X1679Y3587D02*X1761Y3669D01*
G54D14*X4224Y1499D02*Y1869D01*
G54D11*X2348Y1532D02*Y1533D01*
X2279Y1602D01*
X2985Y3280D02*X3108Y3403D01*
Y3612D01*
X2814Y3432D02*Y3486D01*
X2758Y3542D01*
Y3762D01*
X2798Y3802D01*
X2868D01*
X2908Y3762D01*
Y3712D01*
X2808D02*X2858Y3662D01*
Y3454D01*
X2834Y3430D01*
X2708Y3712D02*X2668D01*
X2638Y3682D01*
Y3542D01*
X2678Y3502D01*
X2708D01*
X2736Y3474D01*
Y3426D01*
Y3422D01*
X2948Y3472D02*X2858D01*
X2908Y3762D02*X2968Y3822D01*
G54D14*X3758Y1842D02*X3714Y1886D01*
Y1919D01*
X3751Y1759D02*X3754Y1762D01*
G54D11*X1679Y3459D02*Y3587D01*
G54D14*X4194Y1469D02*X4224Y1499D01*
G54D11*X1641Y3252D02*X1652Y3241D01*
X1641Y3351D02*Y3252D01*
X1987Y2125D02*Y2061D01*
X1968Y2042D01*
X1895Y3490D02*Y3529D01*
X2086Y3551D02*X2154Y3619D01*
Y3749D01*
X2404Y3999D01*
X1894Y3489D02*X1895Y3490D01*
G54D14*X4511Y1929D02*X4512Y1928D01*
X4284Y1929D02*X4511D01*
G54D11*X1909Y3474D02*X1894Y3489D01*
X3280Y2666D02*X3282Y2668D01*
X3197Y2666D02*X3280D01*
X2027Y3430D02*Y3922D01*
X1614Y3486D02*Y3509D01*
X2238Y1392D02*X2258Y1412D01*
X2188Y1392D02*X2238D01*
X1628Y1602D02*X1728D01*
X2668Y1842D02*X2607D01*
X3978Y2482D02*X3958Y2502D01*
X3998Y2482D02*X3978D01*
X3968Y2452D02*Y2431D01*
X3998Y2482D02*X3968Y2452D01*
X3958Y2181D02*X3978Y2201D01*
X3958Y2152D02*Y2181D01*
X3898Y2152D02*X3958D01*
X3888Y2142D02*X3898Y2152D01*
X3858Y2172D02*X3888Y2142D01*
X3788Y2172D02*X3858D01*
X3788Y2162D02*Y2172D01*
X3758Y2132D02*X3788Y2162D01*
X3718Y2172D02*X3758Y2132D01*
X3551Y2575D02*X3548Y2572D01*
X3551Y2622D02*Y2575D01*
Y2359D02*Y2325D01*
X3538Y2372D02*X3551Y2359D01*
X3531Y2365D02*X3538Y2372D01*
X3531Y2325D02*Y2365D01*
X3492Y2348D02*Y2325D01*
X3468Y2372D02*X3492Y2348D01*
X3452Y2356D02*X3468Y2372D01*
X3452Y2325D02*Y2356D01*
X3610Y2325D02*Y2372D01*
X3668Y2383D02*X3618D01*
X3767Y2461D02*X3788Y2482D01*
X3737Y2461D02*X3767D01*
X3757Y2723D02*X3708D01*
X3778Y2702D02*X3757Y2723D01*
X3778Y2621D02*Y2702D01*
X3737Y2580D02*X3778Y2621D01*
X3636Y2540D02*X3668D01*
X3618Y2522D02*X3636Y2540D01*
X3639Y2501D02*X3618Y2522D01*
X3668Y2501D02*X3639D01*
X2755Y2279D02*X2758Y2282D01*
X2755Y2232D02*Y2279D01*
X2980Y2414D02*X3060D01*
X2808Y2752D02*Y2692D01*
X2877Y2670D02*X2830D01*
X2815Y2729D02*X2877D01*
X2808Y2722D02*X2815Y2729D01*
X2830Y2670D02*X2808Y2692D01*
X2824Y2768D02*X2808Y2752D01*
X2878Y2768D02*X2824D01*
X2838Y3201D02*X2878D01*
X2818Y3222D02*X2838Y3201D01*
X2818Y3241D02*Y3222D01*
X2878Y3241D02*X2818D01*
X2755Y3275D02*X2758Y3272D01*
X2755Y3332D02*Y3275D01*
X1788Y2591D02*X1838D01*
X2408Y3262D02*X2378D01*
X2440Y3294D02*X2408Y3262D01*
X2440Y3322D02*Y3294D01*
X2381Y3265D02*Y3322D01*
X2378Y3262D02*X2381Y3265D01*
X2342Y3298D02*X2378Y3262D01*
X2342Y3322D02*Y3298D01*
X2558Y2232D02*Y2282D01*
X2248D02*X2298D01*
X2322Y2233D02*Y2258D01*
X2283Y2277D02*Y2232D01*
X2278Y2282D02*X2283Y2277D01*
X2322Y2258D02*X2298Y2282D01*
X2224Y2258D02*X2248Y2282D01*
X2224Y2232D02*Y2258D01*
X2106Y2084D02*X2118Y2072D01*
X2106Y2132D02*Y2084D01*
X1646Y2374D02*X1628Y2392D01*
X1680Y2374D02*X1646D01*
X1652Y2788D02*X1680D01*
X1628Y2812D02*X1652Y2788D01*
X1643Y2827D02*X1628Y2812D01*
X1680Y2827D02*X1643D01*
X1889Y3282D02*X1848D01*
X1889Y3322D02*Y3282D01*
X1838Y3221D02*Y3262D01*
X1788Y3221D02*X1838D01*
X1850Y3274D02*Y3322D01*
X1836Y3260D02*X1850Y3274D01*
X1788Y3260D02*X1836D01*
X2670Y2072D02*X2608D01*
X3148Y2112D02*X3078D01*
X2356Y2066D02*X2342Y2052D01*
Y2004D01*
X3571Y2687D02*Y2730D01*
X3583Y2742D01*
X3591Y2734D01*
Y2687D01*
X3610D02*Y2719D01*
X3633Y2742D01*
X3630Y2739D01*
Y2687D01*
X3583Y2742D02*Y2868D01*
X3597Y2882D01*
X3863Y2837D02*X3833Y2867D01*
X3633Y2742D02*Y2767D01*
X3658Y2792D01*
X3783D01*
X3863D02*Y2837D01*
X3689Y2867D02*X3833D01*
X3983Y1386D02*X4054D01*
X4098Y1342D01*
X4128D01*
G54D21*X3883Y1592D02*X4133D01*
X4138Y1597D01*
X3888Y1692D02*X4008D01*
X4038Y1722D01*
X4128D01*
G54D11*X3630Y2262D02*Y2214D01*
X3628Y2212D01*
G54D13*X4567Y2589D02*Y2491D01*
X4563Y2593D02*X4567Y2589D01*
G54D14*X3583Y2992D02*X3698D01*
Y3081D01*
G54D19*X3779Y2992D02*X3809Y3022D01*
X3838D01*
X3828Y3032D01*
Y3082D01*
X3628Y2212D02*X3598Y2182D01*
Y2151D01*
Y2072D02*X3668D01*
G54D11*X3949Y2723D02*X4103Y2877D01*
X4492D01*
X4201Y2586D02*X4004D01*
G54D14*X4134Y1469D02*X4194D01*
X3684Y1759D02*X3751D01*
G54D11*X1909Y3430D02*Y3474D01*
X2696Y3247D02*X2714Y3229D01*
G54D13*X2565Y3519D02*Y3570D01*
X2594Y3599D01*
G54D11*X2968Y3822D02*X3048D01*
X1641Y3459D02*X1614Y3486D01*
X2564Y3689D02*X2624D01*
X2634Y3679D01*
X2154Y3569D02*Y3499D01*
X2047Y3430D02*Y3602D01*
X2074Y3629D01*
Y3869D01*
X2204Y3999D01*
X2066Y3419D02*Y3581D01*
X2114Y3629D01*
Y3809D01*
X2304Y3999D01*
X2086Y3429D02*Y3551D01*
X1652Y3241D02*X1684D01*
X2048Y1728D02*X2164D01*
X2303Y3430D02*Y3468D01*
X2314Y3479D01*
Y3809D01*
X2504Y3999D01*
X2322Y3430D02*Y3447D01*
X2344Y3469D01*
Y3739D01*
X2604Y3999D01*
X2657Y3266D02*Y3322D01*
X2664Y3259D02*X2657Y3266D01*
X2696Y3322D02*Y3247D01*
X2027Y3922D02*X2104Y3999D01*
G04 Text: Rev. 1.0 hace *
G54D40*X3312Y3984D02*X3352D01*
X3362Y3974D01*
Y3954D01*
X3352Y3944D02*X3362Y3954D01*
X3322Y3944D02*X3352D01*
X3322Y3984D02*Y3904D01*
Y3944D02*X3362Y3904D01*
X3398D02*X3428D01*
X3388Y3914D02*X3398Y3904D01*
X3388Y3934D02*Y3914D01*
Y3934D02*X3398Y3944D01*
X3418D01*
X3428Y3934D01*
X3388Y3924D02*X3428D01*
Y3934D02*Y3924D01*
X3454Y3944D02*Y3924D01*
X3474Y3904D01*
X3494Y3924D01*
Y3944D02*Y3924D01*
X3520Y3904D02*X3530D01*
X3602D02*X3622D01*
X3612Y3984D02*Y3904D01*
X3592Y3964D02*X3612Y3984D01*
X3648Y3904D02*X3658D01*
X3684Y3914D02*X3694Y3904D01*
X3684Y3974D02*Y3914D01*
Y3974D02*X3694Y3984D01*
X3714D01*
X3724Y3974D01*
Y3914D01*
X3714Y3904D02*X3724Y3914D01*
X3694Y3904D02*X3714D01*
X3684Y3924D02*X3724Y3964D01*
X3786Y3984D02*Y3904D01*
Y3934D02*X3796Y3944D01*
X3816D01*
X3826Y3934D01*
Y3904D01*
X3882Y3944D02*X3892Y3934D01*
X3862Y3944D02*X3882D01*
X3852Y3934D02*X3862Y3944D01*
X3852Y3934D02*Y3914D01*
X3862Y3904D01*
X3892Y3944D02*Y3914D01*
X3902Y3904D01*
X3862D02*X3882D01*
X3892Y3914D01*
X3938Y3944D02*X3968D01*
X3928Y3934D02*X3938Y3944D01*
X3928Y3934D02*Y3914D01*
X3938Y3904D01*
X3968D01*
X4004D02*X4034D01*
X3994Y3914D02*X4004Y3904D01*
X3994Y3934D02*Y3914D01*
Y3934D02*X4004Y3944D01*
X4024D01*
X4034Y3934D01*
X3994Y3924D02*X4034D01*
Y3934D02*Y3924D01*
G54D23*X3883Y1492D03*
Y1592D03*
Y1692D03*
X2708Y3612D03*
Y3712D03*
X2808Y3612D03*
Y3712D03*
X2908Y3612D03*
Y3712D03*
X3008Y3612D03*
Y3712D03*
X3108Y3612D03*
Y3712D03*
X2788Y1712D03*
X2888D03*
X2788Y1612D03*
X2888D03*
X2788Y1512D03*
X2888D03*
X2788Y1412D03*
X2888D03*
X2788Y1312D03*
X2888D03*
G54D48*X1170Y3602D03*
G54D50*X1270D03*
X1170Y3502D03*
X1270D03*
X1170Y3402D03*
X1270D03*
X1170Y3302D03*
X1270D03*
X1170Y3202D03*
X1270D03*
X1170Y3102D03*
X1270D03*
X1170Y3002D03*
X1270D03*
X1170Y2902D03*
X1270D03*
X1170Y2802D03*
X1270D03*
X1170Y2702D03*
X1270D03*
X1170Y2602D03*
X1270D03*
X1170Y2502D03*
X1270D03*
X1170Y2402D03*
X1270D03*
X1170Y2302D03*
X1270D03*
X1170Y2202D03*
X1270D03*
X1170Y2102D03*
X1270D03*
X1170Y2002D03*
X1270D03*
X1170Y1902D03*
X1270D03*
X1170Y1802D03*
X1270D03*
X1170Y1702D03*
X1270D03*
G54D23*X3383Y2992D03*
X3483D03*
X3583D03*
G54D51*X4512Y1928D03*
G54D53*X3712D03*
G54D56*X4839Y1424D03*
X4645D03*
X4451D03*
G54D23*X2104Y3999D03*
Y4099D03*
X2204Y3999D03*
Y4099D03*
X2304D03*
X2404Y3999D03*
Y4099D03*
X2504Y3999D03*
Y4099D03*
X2604Y3999D03*
Y4099D03*
X2704Y3999D03*
Y4099D03*
X2804Y3999D03*
X2304D03*
X2804Y4099D03*
G54D30*X1717Y3465D02*Y3453D01*
X1679Y3465D02*Y3453D01*
X1641Y3465D02*Y3453D01*
Y3363D02*Y3351D01*
X1717Y3363D02*Y3351D01*
G54D32*X2279Y1694D02*Y1693D01*
Y1614D02*Y1613D01*
X2393Y1694D02*Y1693D01*
Y1614D02*Y1613D01*
G54D19*X2110Y1550D02*X2185D01*
G54D35*X2110Y1600D02*X2185D01*
X2110Y1650D02*X2185D01*
X2052Y1783D02*Y1707D01*
X2002Y1783D02*Y1707D01*
X1952Y1783D02*Y1707D01*
X1902Y1783D02*Y1707D01*
X1852Y1783D02*Y1707D01*
X1719Y1650D02*X1795D01*
X1719Y1600D02*X1795D01*
X1719Y1550D02*X1795D01*
X1719Y1500D02*X1795D01*
X1719Y1450D02*X1795D01*
X1852Y1393D02*Y1317D01*
X1902Y1393D02*Y1317D01*
X1952Y1393D02*Y1317D01*
X2002Y1393D02*Y1317D01*
X2052Y1393D02*Y1317D01*
X2110Y1450D02*X2185D01*
X2110Y1500D02*X2185D01*
G54D32*X3028Y3472D02*X3029D01*
X2948D02*X2949D01*
X1698Y2032D02*Y2031D01*
Y2112D02*Y2111D01*
G54D38*X4122Y1597D02*X4142D01*
X4122Y1716D02*X4142D01*
X4122Y1347D02*X4142D01*
X4122Y1466D02*X4142D01*
G54D32*X3598Y2072D02*Y2071D01*
Y2152D02*Y2151D01*
X2483Y3689D02*X2484D01*
X2563D02*X2564D01*
X3948Y2723D02*Y2722D01*
Y2643D02*Y2642D01*
X3157Y2102D02*X3158D01*
X3237D02*X3238D01*
X3798Y2182D02*Y2181D01*
Y2262D02*Y2261D01*
G54D38*X3818Y3101D02*Y3081D01*
X3699Y3101D02*Y3081D01*
G54D32*X2575Y1943D02*X2576D01*
X2495D02*X2496D01*
G54D38*X3877Y2142D02*X3897D01*
X3877Y2261D02*X3897D01*
X3968Y2431D02*Y2411D01*
X3849Y2431D02*Y2411D01*
G54D32*X2258Y1422D02*Y1421D01*
Y1502D02*Y1501D01*
X3688Y2867D02*X3689D01*
X3608D02*X3609D01*
X3983Y1387D02*Y1386D01*
Y1467D02*Y1466D01*
X3778Y2992D02*X3779D01*
X3698D02*X3699D01*
X4008Y1612D02*Y1611D01*
Y1692D02*Y1691D01*
X3863Y2792D02*X3864D01*
X3783D02*X3784D01*
X3758Y1762D02*Y1761D01*
Y1842D02*Y1841D01*
G54D44*X1761Y4034D02*X1762D01*
X1761Y3667D02*X1762D01*
X1469Y3959D02*X1470D01*
G54D32*X2361Y2072D02*X2362D01*
X2281D02*X2282D01*
X3188Y2662D02*X3189D01*
X3108D02*X3109D01*
X2598Y2072D02*X2599D01*
X2518D02*X2519D01*
X2157Y3502D02*X2158D01*
X2237D02*X2238D01*
G54D38*X2492Y1593D02*X2512D01*
X2492Y1712D02*X2512D01*
X2607Y1856D02*Y1836D01*
X2488Y1856D02*Y1836D01*
G54D32*X3938Y2512D02*X3939D01*
X3858D02*X3859D01*
X3978Y2202D02*Y2201D01*
Y2282D02*Y2281D01*
X3698Y2182D02*Y2181D01*
Y2262D02*Y2261D01*
X3708Y2723D02*Y2722D01*
Y2643D02*Y2642D01*
G54D11*X1680Y3280D02*X1788D01*
G54D46*X1680Y3260D02*X1788D01*
X1680Y3241D02*X1788D01*
X1680Y3221D02*X1788D01*
X1680Y3201D02*X1788D01*
X1680Y3182D02*X1788D01*
X1680Y3162D02*X1788D01*
X1680Y3142D02*X1788D01*
X1680Y3123D02*X1788D01*
X1680Y3103D02*X1788D01*
X1680Y3083D02*X1788D01*
X1680Y3063D02*X1788D01*
X1680Y3044D02*X1788D01*
X1680Y3024D02*X1788D01*
X1680Y3004D02*X1788D01*
X1680Y2985D02*X1788D01*
X1680Y2965D02*X1788D01*
X1680Y2945D02*X1788D01*
X1680Y2926D02*X1788D01*
X1680Y2906D02*X1788D01*
X1680Y2886D02*X1788D01*
X1680Y2867D02*X1788D01*
X1680Y2847D02*X1788D01*
X1680Y2827D02*X1788D01*
X1680Y2808D02*X1788D01*
X1680Y2788D02*X1788D01*
X1680Y2768D02*X1788D01*
X1680Y2749D02*X1788D01*
X1680Y2729D02*X1788D01*
X1680Y2709D02*X1788D01*
X1680Y2689D02*X1788D01*
X1680Y2670D02*X1788D01*
X1680Y2650D02*X1788D01*
X1680Y2630D02*X1788D01*
X1680Y2611D02*X1788D01*
X1680Y2591D02*X1788D01*
X1680Y2571D02*X1788D01*
X1680Y2552D02*X1788D01*
X1680Y2532D02*X1788D01*
X1680Y2512D02*X1788D01*
X1680Y2493D02*X1788D01*
X1680Y2473D02*X1788D01*
X1680Y2453D02*X1788D01*
X1680Y2434D02*X1788D01*
X1680Y2414D02*X1788D01*
X1680Y2394D02*X1788D01*
X1680Y2374D02*X1788D01*
X1680Y2355D02*X1788D01*
X1680Y2335D02*X1788D01*
X1680Y2315D02*X1788D01*
X1680Y2296D02*X1788D01*
X1680Y2276D02*X1788D01*
X1830Y2233D02*Y2125D01*
X1850Y2233D02*Y2125D01*
X1869Y2233D02*Y2125D01*
X1889Y2233D02*Y2125D01*
X1909Y2233D02*Y2125D01*
X1928Y2233D02*Y2125D01*
X1948Y2233D02*Y2125D01*
X1968Y2233D02*Y2125D01*
X1987Y2233D02*Y2125D01*
X2007Y2233D02*Y2125D01*
X2027Y2233D02*Y2125D01*
X2047Y2233D02*Y2125D01*
X2066Y2233D02*Y2125D01*
X2086Y2233D02*Y2125D01*
X2106Y2233D02*Y2125D01*
X2125Y2233D02*Y2125D01*
X2145Y2233D02*Y2125D01*
X2165Y2233D02*Y2125D01*
X2184Y2233D02*Y2125D01*
X2204Y2233D02*Y2125D01*
X2224Y2233D02*Y2125D01*
X2243Y2233D02*Y2125D01*
X2263Y2233D02*Y2125D01*
X2283Y2233D02*Y2125D01*
X2302Y2233D02*Y2125D01*
X2322Y2233D02*Y2125D01*
X2342Y2233D02*Y2125D01*
X2361Y2233D02*Y2125D01*
X2381Y2233D02*Y2125D01*
X2401Y2233D02*Y2125D01*
X2421Y2233D02*Y2125D01*
X2440Y2233D02*Y2125D01*
X2460Y2233D02*Y2125D01*
X2480Y2233D02*Y2125D01*
X2499Y2233D02*Y2125D01*
X2519Y2233D02*Y2125D01*
X2539Y2233D02*Y2125D01*
X2558Y2233D02*Y2125D01*
X2578Y2233D02*Y2125D01*
X2598Y2233D02*Y2125D01*
X2617Y2233D02*Y2125D01*
X2637Y2233D02*Y2125D01*
X2657Y2233D02*Y2125D01*
X2676Y2233D02*Y2125D01*
X2696Y2233D02*Y2125D01*
X2716Y2233D02*Y2125D01*
X2736Y2233D02*Y2125D01*
X2755Y2233D02*Y2125D01*
X2775Y2233D02*Y2125D01*
X2795Y2233D02*Y2125D01*
X2814Y2233D02*Y2125D01*
X2834Y2233D02*Y2125D01*
X2877Y2276D02*X2985D01*
X2877Y2296D02*X2985D01*
X2877Y2315D02*X2985D01*
X2877Y2335D02*X2985D01*
X2877Y2355D02*X2985D01*
X2877Y2374D02*X2985D01*
X2877Y2394D02*X2985D01*
X2877Y2414D02*X2985D01*
X2877Y2433D02*X2985D01*
X2877Y2453D02*X2985D01*
X2877Y2473D02*X2985D01*
X2877Y2493D02*X2985D01*
X2877Y2512D02*X2985D01*
X2877Y2532D02*X2985D01*
X2877Y2552D02*X2985D01*
X2877Y2571D02*X2985D01*
X2877Y2591D02*X2985D01*
X2877Y2611D02*X2985D01*
X2877Y2630D02*X2985D01*
X2877Y2650D02*X2985D01*
X2877Y2670D02*X2985D01*
X2877Y2689D02*X2985D01*
X2877Y2709D02*X2985D01*
X2877Y2729D02*X2985D01*
X2877Y2748D02*X2985D01*
X2877Y2768D02*X2985D01*
X2877Y2788D02*X2985D01*
X2877Y2807D02*X2985D01*
X2877Y2827D02*X2985D01*
X2877Y2847D02*X2985D01*
X2877Y2867D02*X2985D01*
X2877Y2886D02*X2985D01*
X2877Y2906D02*X2985D01*
X2877Y2926D02*X2985D01*
X2877Y2945D02*X2985D01*
X2877Y2965D02*X2985D01*
X2877Y2985D02*X2985D01*
X2877Y3004D02*X2985D01*
X2877Y3024D02*X2985D01*
X2877Y3044D02*X2985D01*
X2877Y3063D02*X2985D01*
X2877Y3083D02*X2985D01*
X2877Y3103D02*X2985D01*
X2877Y3122D02*X2985D01*
X2877Y3142D02*X2985D01*
X2877Y3162D02*X2985D01*
X2877Y3182D02*X2985D01*
X2877Y3201D02*X2985D01*
X2877Y3221D02*X2985D01*
X2877Y3241D02*X2985D01*
X2877Y3260D02*X2985D01*
X2877Y3280D02*X2985D01*
X2834Y3430D02*Y3322D01*
X2814Y3430D02*Y3322D01*
X2795Y3430D02*Y3322D01*
X2775Y3430D02*Y3322D01*
X2755Y3430D02*Y3322D01*
X2736Y3430D02*Y3322D01*
X2716Y3430D02*Y3322D01*
X2696Y3430D02*Y3322D01*
X2677Y3430D02*Y3322D01*
X2657Y3430D02*Y3322D01*
X2637Y3430D02*Y3322D01*
X2617Y3430D02*Y3322D01*
X2598Y3430D02*Y3322D01*
X2578Y3430D02*Y3322D01*
X2558Y3430D02*Y3322D01*
X2539Y3430D02*Y3322D01*
X2519Y3430D02*Y3322D01*
X2499Y3430D02*Y3322D01*
X2480Y3430D02*Y3322D01*
X2460Y3430D02*Y3322D01*
X2440Y3430D02*Y3322D01*
X2421Y3430D02*Y3322D01*
X2401Y3430D02*Y3322D01*
X2381Y3430D02*Y3322D01*
X2362Y3430D02*Y3322D01*
X2342Y3430D02*Y3322D01*
X2322Y3430D02*Y3322D01*
X2303Y3430D02*Y3322D01*
X2283Y3430D02*Y3322D01*
X2263Y3430D02*Y3322D01*
X2243Y3430D02*Y3322D01*
X2224Y3430D02*Y3322D01*
X2204Y3430D02*Y3322D01*
X2184Y3430D02*Y3322D01*
X2165Y3430D02*Y3322D01*
X2145Y3430D02*Y3322D01*
X2125Y3430D02*Y3322D01*
X2106Y3430D02*Y3322D01*
X2086Y3430D02*Y3322D01*
X2066Y3430D02*Y3322D01*
X2047Y3430D02*Y3322D01*
X2027Y3430D02*Y3322D01*
X2007Y3430D02*Y3322D01*
X1988Y3430D02*Y3322D01*
X1968Y3430D02*Y3322D01*
X1948Y3430D02*Y3322D01*
X1928Y3430D02*Y3322D01*
X1909Y3430D02*Y3322D01*
X1889Y3430D02*Y3322D01*
X1869Y3430D02*Y3322D01*
X1850Y3430D02*Y3322D01*
X1830Y3430D02*Y3322D01*
G54D11*X3630Y2687D02*Y2618D01*
G54D46*X3610Y2687D02*Y2618D01*
X3591Y2687D02*Y2618D01*
X3571Y2687D02*Y2618D01*
X3551Y2687D02*Y2618D01*
X3532Y2687D02*Y2618D01*
X3512Y2687D02*Y2618D01*
X3492Y2687D02*Y2618D01*
X3473Y2687D02*Y2618D01*
X3453Y2687D02*Y2618D01*
X3433Y2687D02*Y2618D01*
X3413Y2687D02*Y2618D01*
X3306Y2580D02*X3375D01*
X3306Y2560D02*X3375D01*
X3306Y2541D02*X3375D01*
X3306Y2521D02*X3375D01*
X3306Y2501D02*X3375D01*
X3306Y2482D02*X3375D01*
X3306Y2462D02*X3375D01*
X3306Y2442D02*X3375D01*
X3306Y2423D02*X3375D01*
X3306Y2403D02*X3375D01*
X3306Y2383D02*X3375D01*
X3306Y2363D02*X3375D01*
X3413Y2325D02*Y2256D01*
X3433Y2325D02*Y2256D01*
X3452Y2325D02*Y2256D01*
X3472Y2325D02*Y2256D01*
X3492Y2325D02*Y2256D01*
X3511Y2325D02*Y2256D01*
X3531Y2325D02*Y2256D01*
X3551Y2325D02*Y2256D01*
X3570Y2325D02*Y2256D01*
X3590Y2325D02*Y2256D01*
X3610Y2325D02*Y2256D01*
X3630Y2325D02*Y2256D01*
X3668Y2363D02*X3737D01*
X3668Y2383D02*X3737D01*
X3668Y2402D02*X3737D01*
X3668Y2422D02*X3737D01*
X3668Y2442D02*X3737D01*
X3668Y2461D02*X3737D01*
X3668Y2481D02*X3737D01*
X3668Y2501D02*X3737D01*
X3668Y2520D02*X3737D01*
X3668Y2540D02*X3737D01*
X3668Y2560D02*X3737D01*
X3668Y2580D02*X3737D01*
G54D32*X3138Y3822D02*X3139D01*
X3058D02*X3059D01*
G54D44*X4574Y2588D02*Y2587D01*
X4207Y2588D02*Y2587D01*
X4499Y2880D02*Y2879D01*
G54D30*X1971Y3643D02*Y3631D01*
X1933Y3643D02*Y3631D01*
X1895Y3643D02*Y3631D01*
Y3541D02*Y3529D01*
X1971Y3541D02*Y3529D01*
G54D32*X2564Y3519D02*X2565D01*
X2484D02*X2485D01*
G54D60*X1862Y1937D03*
X2058Y1993D03*
X1780Y1740D03*
X1938Y2350D03*
X2408Y1940D03*
X2132Y1816D03*
X1957Y1891D03*
X1970Y2040D03*
X2032Y1590D03*
X1968Y2310D03*
X1700Y2178D03*
G54D18*X4567Y2487D03*
G54D60*X2714Y3229D03*
X2664Y3259D03*
X2798Y2812D03*
X1874Y3699D03*
X1614Y3509D03*
G54D50*X1784Y3849D03*
G54D60*X3684Y1759D03*
G54D18*X3668Y2072D03*
X3838Y3022D03*
G54D60*X1848Y3272D03*
X1628Y2812D03*
X3628Y2212D03*
X4058Y1382D03*
X2778Y2502D03*
Y3102D03*
X1628Y2392D03*
X3783Y2867D03*
X3633Y2742D03*
G54D18*X2594Y3599D03*
G54D60*X3583Y2742D03*
X2118Y2072D03*
X2398Y1462D03*
X2348Y1532D03*
G54D50*X3283Y2667D03*
G54D60*X2342Y2002D03*
X2672Y2073D03*
X2188Y1392D03*
X2668Y1842D03*
X1628Y1602D03*
X3958Y2152D03*
X3758Y2132D03*
X3998Y2482D03*
X3548Y2572D03*
X3468Y2372D03*
X3538D03*
X3618Y2382D03*
X3788Y2482D03*
X3778Y2652D03*
X3618Y2522D03*
X2758Y3272D03*
X2818Y3222D03*
X3078Y2112D03*
X2808Y2722D03*
X3060Y2414D03*
X2758Y2282D03*
X1838Y2592D03*
X2378Y3262D03*
X2558Y2282D03*
X2278D03*
X2154Y3569D03*
G54D50*X1980Y2976D03*
G54D60*X1848Y2742D03*
Y3082D03*
Y2652D03*
Y2842D03*
X2597Y3269D03*
X2401Y3484D03*
X2008Y3262D03*
X2168D03*
X3067Y2727D03*
X2770Y3481D03*
X3054Y3122D03*
X2808Y2926D03*
X2811Y2423D03*
X2228Y2022D03*
X1842Y2405D03*
X2328Y1472D03*
X2638Y1922D03*
X3238Y2162D03*
X1754Y3349D03*
X2698Y2282D03*
X2240Y3555D03*
X2098Y2302D03*
X1927Y2271D03*
X1670Y2244D03*
X2336Y1742D03*
X2455Y2071D03*
X3025Y2790D03*
M02*
