G04 Title: (unknown), silkscreen, component side *
G04 Creator: pcb 1.99j *
G04 CreationDate: Thu Feb 28 17:34:28 2002 UTC *
G04 For: root *
G04 Format: Gerber/RS-274X *
G04 PCB-Dimensions: 6000 5000 *
G04 PCB-Coordinate-Origin: lower left *
%MOIN*%
%FSLAX23Y23*%
%IPPOS*%
%ADD11C,0.010*%
%ADD12C,0.017*%
%ADD13C,0.020*%
%ADD14C,0.030*%
%ADD15C,0.040*%
%ADD16C,0.037*%
%ADD17C,0.045*%
%ADD18C,0.055*%
%ADD19C,0.025*%
%ADD20C,0.035*%
%ADD21C,0.015*%
%ADD22C,0.022*%
%ADD23C,0.070*%
%ADD24C,0.080*%
%ADD25C,0.090*%
%ADD26C,0.150*%
%ADD27C,0.160*%
%ADD28C,0.170*%
%ADD29C,0.008*%
%ADD30R,0.028X0.028*%
%ADD31R,0.058X0.058*%
%ADD32R,0.050X0.050*%
%ADD33R,0.080X0.080*%
%ADD34C,0.000*%
%ADD35R,0.025X0.025*%
%ADD36R,0.055X0.055*%
%ADD37R,0.035X0.035*%
%ADD38R,0.040X0.040*%
%ADD39R,0.070X0.070*%
%ADD40C,0.016*%
%ADD41C,0.086*%
%ADD42C,0.072*%
%ADD43C,0.092*%
%ADD44R,0.110X0.110*%
%ADD45R,0.140X0.140*%
%ADD46R,0.010X0.010*%
%ADD47R,0.020X0.020*%
%ADD48R,0.060X0.060*%
%ADD49R,0.090X0.090*%
%ADD50C,0.060*%
%ADD51R,0.085X0.085*%
%ADD52R,0.115X0.115*%
%ADD53C,0.085*%
%ADD54C,0.115*%
%ADD55C,0.012*%
%ADD56C,0.110*%
%ADD57C,0.140*%
%ADD58C,0.031*%
%ADD59C,0.014*%
%ADD60C,0.036*%
%ADD61C,0.052*%
%ADD62C,0.013*%
%ADD63C,0.075*%
%ADD64C,0.177*%
%ADD65C,0.050*%
%ADD66C,0.076*%
%LNGROUP_4*%
%LPD*%
G01X0Y0D02*
G54D13*X3633Y1692D02*X3808D01*
X3633Y1592D02*X3808D01*
X3633Y1492D02*X3808D01*
X3308Y1792D02*Y1392D01*
X3058Y1792D02*X3633D01*
X3058D02*Y1392D01*
X3633D01*
Y1792D02*Y1392D01*
G04 Text: U3 *
G54D29*X3473Y1327D02*Y1292D01*
X3478Y1287D01*
X3488D01*
X3493Y1292D01*
Y1327D02*Y1292D01*
X3506Y1322D02*X3511Y1327D01*
X3521D01*
X3526Y1322D01*
Y1292D01*
X3521Y1287D02*X3526Y1292D01*
X3511Y1287D02*X3521D01*
X3506Y1292D02*X3511Y1287D01*
Y1307D02*X3526D01*
G54D11*X1619Y3387D02*Y3430D01*
X1620Y3431D02*X1738D01*
X1739Y3387D02*X1619D01*
X1739Y3431D02*Y3387D01*
G04 Text: U6 *
G54D29*X1534Y3429D02*Y3394D01*
X1539Y3389D01*
X1549D01*
X1554Y3394D01*
Y3429D02*Y3394D01*
X1582Y3429D02*X1587Y3424D01*
X1572Y3429D02*X1582D01*
X1567Y3424D02*X1572Y3429D01*
X1567Y3424D02*Y3394D01*
X1572Y3389D01*
X1582Y3409D02*X1587Y3404D01*
X1567Y3409D02*X1582D01*
X1572Y3389D02*X1582D01*
X1587Y3394D01*
Y3404D02*Y3394D01*
G54D11*X2244Y1728D02*X2315D01*
X2244D02*Y1578D01*
X2315D01*
Y1728D02*Y1578D01*
G54D34*X2279Y1613D03*
G04 Text: R4 *
G54D29*X2237Y1785D02*X2257D01*
X2262Y1780D01*
Y1770D01*
X2257Y1765D02*X2262Y1770D01*
X2242Y1765D02*X2257D01*
X2242Y1785D02*Y1745D01*
Y1765D02*X2262Y1745D01*
X2275Y1765D02*X2295Y1785D01*
X2275Y1765D02*X2300D01*
X2295Y1785D02*Y1745D01*
G54D11*X2358Y1728D02*X2429D01*
X2358D02*Y1578D01*
X2429D01*
Y1728D02*Y1578D01*
G54D34*X2393Y1613D03*
G04 Text: R3 *
G54D29*X2359Y1785D02*X2379D01*
X2384Y1780D01*
Y1770D01*
X2379Y1765D02*X2384Y1770D01*
X2364Y1765D02*X2379D01*
X2364Y1785D02*Y1745D01*
Y1765D02*X2384Y1745D01*
X2397Y1780D02*X2402Y1785D01*
X2412D01*
X2417Y1780D01*
Y1750D01*
X2412Y1745D02*X2417Y1750D01*
X2402Y1745D02*X2412D01*
X2397Y1750D02*X2402Y1745D01*
Y1765D02*X2417D01*
X1817Y1685D02*X2087D01*
X1817D02*Y1415D01*
X2087D01*
Y1685D02*Y1415D01*
G04 Text: U4 *
X2100Y1766D02*Y1731D01*
X2105Y1726D01*
X2115D01*
X2120Y1731D01*
Y1766D02*Y1731D01*
X2133Y1746D02*X2153Y1766D01*
X2133Y1746D02*X2158D01*
X2153Y1766D02*Y1726D01*
G54D11*X3063Y3507D02*Y3436D01*
X2913Y3507D02*X3063D01*
X2913D02*Y3436D01*
X3063D01*
G54D34*X2948Y3472D03*
G04 Text: R7 *
G54D29*X2928Y3412D02*X2948D01*
X2953Y3407D01*
Y3397D01*
X2948Y3392D02*X2953Y3397D01*
X2933Y3392D02*X2948D01*
X2933Y3412D02*Y3372D01*
Y3392D02*X2953Y3372D01*
X2966D02*X2991Y3397D01*
Y3412D02*Y3397D01*
X2966Y3412D02*X2991D01*
G54D11*X1733Y1997D02*X1662D01*
X1733Y2147D02*Y1997D01*
X1662Y2147D02*X1733D01*
X1662Y1997D02*Y2147D01*
G54D34*X1698Y2112D03*
G04 Text: R6 *
G54D29*X1578Y2086D02*X1598D01*
X1603Y2081D01*
Y2071D01*
X1598Y2066D02*X1603Y2071D01*
X1583Y2066D02*X1598D01*
X1583Y2086D02*Y2046D01*
Y2066D02*X1603Y2046D01*
X1631Y2086D02*X1636Y2081D01*
X1621Y2086D02*X1631D01*
X1616Y2081D02*X1621Y2086D01*
X1616Y2081D02*Y2051D01*
X1621Y2046D01*
X1631Y2066D02*X1636Y2061D01*
X1616Y2066D02*X1631D01*
X1621Y2046D02*X1631D01*
X1636Y2051D01*
Y2061D02*Y2051D01*
G54D11*X4095Y1571D02*X4169D01*
X4095Y1741D02*Y1571D01*
X4169Y1742D02*Y1572D01*
X4095Y1742D02*X4169D01*
G04 Text: C15 *
G54D29*X4106Y1755D02*X4121D01*
X4101Y1760D02*X4106Y1755D01*
X4101Y1790D02*Y1760D01*
Y1790D02*X4106Y1795D01*
X4121D01*
X4139Y1755D02*X4149D01*
X4144Y1795D02*Y1755D01*
X4134Y1785D02*X4144Y1795D01*
X4162D02*X4182D01*
X4162D02*Y1775D01*
X4167Y1780D01*
X4177D01*
X4182Y1775D01*
Y1760D01*
X4177Y1755D02*X4182Y1760D01*
X4167Y1755D02*X4177D01*
X4162Y1760D02*X4167Y1755D01*
G54D11*X4169Y1321D02*X4095D01*
Y1491D01*
X4169Y1492D02*Y1322D01*
Y1492D02*X4095D01*
G04 Text: C21 *
G54D29*X4106Y1505D02*X4121D01*
X4101Y1510D02*X4106Y1505D01*
X4101Y1540D02*Y1510D01*
Y1540D02*X4106Y1545D01*
X4121D01*
X4134Y1540D02*X4139Y1545D01*
X4154D01*
X4159Y1540D01*
Y1530D01*
X4134Y1505D02*X4159Y1530D01*
X4134Y1505D02*X4159D01*
X4177D02*X4187D01*
X4182Y1545D02*Y1505D01*
X4172Y1535D02*X4182Y1545D01*
G54D34*X3598Y2152D03*
G54D11*X3562Y2187D02*Y2037D01*
Y2187D02*X3633D01*
Y2037D01*
X3562D02*X3633D01*
G04 Text: C30 *
G54D29*X3553Y1982D02*X3568D01*
X3548Y1987D02*X3553Y1982D01*
X3548Y2017D02*Y1987D01*
Y2017D02*X3553Y2022D01*
X3568D01*
X3581Y2017D02*X3586Y2022D01*
X3596D01*
X3601Y2017D01*
Y1987D01*
X3596Y1982D02*X3601Y1987D01*
X3586Y1982D02*X3596D01*
X3581Y1987D02*X3586Y1982D01*
Y2002D02*X3601D01*
X3614Y1987D02*X3619Y1982D01*
X3614Y2017D02*Y1987D01*
Y2017D02*X3619Y2022D01*
X3629D01*
X3634Y2017D01*
Y1987D01*
X3629Y1982D02*X3634Y1987D01*
X3619Y1982D02*X3629D01*
X3614Y1992D02*X3634Y2012D01*
G54D11*X2449Y3725D02*Y3654D01*
X2599D01*
Y3725D02*Y3654D01*
X2449Y3725D02*X2599D01*
G54D34*X2564Y3689D03*
G04 Text: R9 *
G54D29*X2524Y3789D02*X2544D01*
X2549Y3784D01*
Y3774D01*
X2544Y3769D02*X2549Y3774D01*
X2529Y3769D02*X2544D01*
X2529Y3789D02*Y3749D01*
Y3769D02*X2549Y3749D01*
X2562D02*X2582Y3769D01*
Y3784D02*Y3769D01*
X2577Y3789D02*X2582Y3784D01*
X2567Y3789D02*X2577D01*
X2562Y3784D02*X2567Y3789D01*
X2562Y3784D02*Y3774D01*
X2567Y3769D01*
X2582D01*
G54D11*X3913Y2757D02*X3984D01*
X3913D02*Y2607D01*
X3984D01*
Y2757D02*Y2607D01*
G54D34*X3948Y2642D03*
G04 Text: R1 *
G54D29*X3996Y2700D02*X4016D01*
X4021Y2695D01*
Y2685D01*
X4016Y2680D02*X4021Y2685D01*
X4001Y2680D02*X4016D01*
X4001Y2700D02*Y2660D01*
Y2680D02*X4021Y2660D01*
X4039D02*X4049D01*
X4044Y2700D02*Y2660D01*
X4034Y2690D02*X4044Y2700D01*
G54D11*X3123Y2138D02*Y2067D01*
X3273D01*
Y2138D02*Y2067D01*
X3123Y2138D02*X3273D01*
G54D34*X3238Y2102D03*
G04 Text: C25 *
G54D29*X3113Y2152D02*X3128D01*
X3108Y2157D02*X3113Y2152D01*
X3108Y2187D02*Y2157D01*
Y2187D02*X3113Y2192D01*
X3128D01*
X3141Y2187D02*X3146Y2192D01*
X3161D01*
X3166Y2187D01*
Y2177D01*
X3141Y2152D02*X3166Y2177D01*
X3141Y2152D02*X3166D01*
X3179Y2192D02*X3199D01*
X3179D02*Y2172D01*
X3184Y2177D01*
X3194D01*
X3199Y2172D01*
Y2157D01*
X3194Y2152D02*X3199Y2157D01*
X3184Y2152D02*X3194D01*
X3179Y2157D02*X3184Y2152D01*
G54D11*X3833Y2147D02*X3762D01*
X3833Y2297D02*Y2147D01*
X3762Y2297D02*X3833D01*
X3762Y2147D02*Y2297D01*
G54D34*X3798Y2262D03*
G04 Text: C1 *
G54D29*X3775Y2310D02*X3790D01*
X3770Y2315D02*X3775Y2310D01*
X3770Y2345D02*Y2315D01*
Y2345D02*X3775Y2350D01*
X3790D01*
X3808Y2310D02*X3818D01*
X3813Y2350D02*Y2310D01*
X3803Y2340D02*X3813Y2350D01*
G54D11*X3844Y3128D02*Y3054D01*
X3674D02*X3844D01*
X3673Y3128D02*X3843D01*
X3673D02*Y3054D01*
G04 Text: C18 *
G54D29*X3863Y3072D02*X3878D01*
X3858Y3077D02*X3863Y3072D01*
X3858Y3107D02*Y3077D01*
Y3107D02*X3863Y3112D01*
X3878D01*
X3896Y3072D02*X3906D01*
X3901Y3112D02*Y3072D01*
X3891Y3102D02*X3901Y3112D01*
X3919Y3077D02*X3924Y3072D01*
X3919Y3087D02*Y3077D01*
Y3087D02*X3924Y3092D01*
X3934D01*
X3939Y3087D01*
Y3077D01*
X3934Y3072D02*X3939Y3077D01*
X3924Y3072D02*X3934D01*
X3919Y3097D02*X3924Y3092D01*
X3919Y3107D02*Y3097D01*
Y3107D02*X3924Y3112D01*
X3934D01*
X3939Y3107D01*
Y3097D01*
X3934Y3092D02*X3939Y3097D01*
G54D11*X2610Y1978D02*Y1907D01*
X2460Y1978D02*X2610D01*
X2460D02*Y1907D01*
X2610D01*
G54D34*X2495Y1943D03*
G04 Text: R5 *
G54D29*X2654Y1966D02*X2674D01*
X2679Y1961D01*
Y1951D01*
X2674Y1946D02*X2679Y1951D01*
X2659Y1946D02*X2674D01*
X2659Y1966D02*Y1926D01*
Y1946D02*X2679Y1926D01*
X2692Y1966D02*X2712D01*
X2692D02*Y1946D01*
X2697Y1951D01*
X2707D01*
X2712Y1946D01*
Y1931D01*
X2707Y1926D02*X2712Y1931D01*
X2697Y1926D02*X2707D01*
X2692Y1931D02*X2697Y1926D01*
G54D11*X3924Y2287D02*X3850D01*
X3924D02*Y2117D01*
X3850Y2116D02*Y2286D01*
X3924Y2116D02*X3850D01*
G04 Text: C7 *
G54D29*X3861Y2300D02*X3876D01*
X3856Y2305D02*X3861Y2300D01*
X3856Y2335D02*Y2305D01*
Y2335D02*X3861Y2340D01*
X3876D01*
X3889Y2300D02*X3914Y2325D01*
Y2340D02*Y2325D01*
X3889Y2340D02*X3914D01*
G54D11*X3994Y2458D02*Y2384D01*
X3824D02*X3994D01*
X3823Y2458D02*X3993D01*
X3823D02*Y2384D01*
G04 Text: C6 *
G54D29*X4021Y2412D02*X4036D01*
X4016Y2417D02*X4021Y2412D01*
X4016Y2447D02*Y2417D01*
Y2447D02*X4021Y2452D01*
X4036D01*
X4064D02*X4069Y2447D01*
X4054Y2452D02*X4064D01*
X4049Y2447D02*X4054Y2452D01*
X4049Y2447D02*Y2417D01*
X4054Y2412D01*
X4064Y2432D02*X4069Y2427D01*
X4049Y2432D02*X4064D01*
X4054Y2412D02*X4064D01*
X4069Y2417D01*
Y2427D02*Y2417D01*
G54D11*X2293Y1387D02*X2222D01*
X2293Y1537D02*Y1387D01*
X2222Y1537D02*X2293D01*
X2222Y1387D02*Y1537D01*
G54D34*X2258Y1502D03*
G04 Text: C23 *
G54D29*X2203Y1322D02*X2218D01*
X2198Y1327D02*X2203Y1322D01*
X2198Y1357D02*Y1327D01*
Y1357D02*X2203Y1362D01*
X2218D01*
X2231Y1357D02*X2236Y1362D01*
X2251D01*
X2256Y1357D01*
Y1347D01*
X2231Y1322D02*X2256Y1347D01*
X2231Y1322D02*X2256D01*
X2269Y1357D02*X2274Y1362D01*
X2284D01*
X2289Y1357D01*
Y1327D01*
X2284Y1322D02*X2289Y1327D01*
X2274Y1322D02*X2284D01*
X2269Y1327D02*X2274Y1322D01*
Y1342D02*X2289D01*
G54D11*X3723Y2902D02*Y2831D01*
X3573Y2902D02*X3723D01*
X3573D02*Y2831D01*
X3723D01*
G54D34*X3608Y2867D03*
G04 Text: C22 *
G54D29*X3453Y2842D02*X3468D01*
X3448Y2847D02*X3453Y2842D01*
X3448Y2877D02*Y2847D01*
Y2877D02*X3453Y2882D01*
X3468D01*
X3481Y2877D02*X3486Y2882D01*
X3501D01*
X3506Y2877D01*
Y2867D01*
X3481Y2842D02*X3506Y2867D01*
X3481Y2842D02*X3506D01*
X3519Y2877D02*X3524Y2882D01*
X3539D01*
X3544Y2877D01*
Y2867D01*
X3519Y2842D02*X3544Y2867D01*
X3519Y2842D02*X3544D01*
G54D11*X2718Y3562D02*Y3522D01*
X2678D02*X2718D01*
X2678Y3562D02*Y3522D01*
G54D21*X2658Y3762D02*Y3562D01*
X3158D01*
Y3762D02*Y3562D01*
X2658Y3762D02*X3158D01*
G04 Text: JTAG *
G54D29*X2818Y3832D02*X2833D01*
Y3797D01*
X2828Y3792D02*X2833Y3797D01*
X2823Y3792D02*X2828D01*
X2818Y3797D02*X2823Y3792D01*
X2846Y3832D02*X2866D01*
X2856D02*Y3792D01*
X2879Y3827D02*Y3792D01*
Y3827D02*X2884Y3832D01*
X2899D01*
X2904Y3827D01*
Y3792D01*
X2879Y3812D02*X2904D01*
X2937Y3832D02*X2942Y3827D01*
X2922Y3832D02*X2937D01*
X2917Y3827D02*X2922Y3832D01*
X2917Y3827D02*Y3797D01*
X2922Y3792D01*
X2937D01*
X2942Y3797D01*
Y3807D02*Y3797D01*
X2937Y3812D02*X2942Y3807D01*
X2927Y3812D02*X2937D01*
G54D11*X4018Y1352D02*X3947D01*
X4018Y1502D02*Y1352D01*
X3947Y1502D02*X4018D01*
X3947Y1352D02*Y1502D01*
G54D34*X3983Y1467D03*
G04 Text: C20 *
G54D29*X3960Y1515D02*X3975D01*
X3955Y1520D02*X3960Y1515D01*
X3955Y1550D02*Y1520D01*
Y1550D02*X3960Y1555D01*
X3975D01*
X3988Y1550D02*X3993Y1555D01*
X4008D01*
X4013Y1550D01*
Y1540D01*
X3988Y1515D02*X4013Y1540D01*
X3988Y1515D02*X4013D01*
X4026Y1520D02*X4031Y1515D01*
X4026Y1550D02*Y1520D01*
Y1550D02*X4031Y1555D01*
X4041D01*
X4046Y1550D01*
Y1520D01*
X4041Y1515D02*X4046Y1520D01*
X4031Y1515D02*X4041D01*
X4026Y1525D02*X4046Y1545D01*
G54D11*X3813Y3027D02*Y2956D01*
X3663Y3027D02*X3813D01*
X3663D02*Y2956D01*
X3813D01*
G54D34*X3698Y2992D03*
G04 Text: C19 *
G54D29*X3833Y2952D02*X3848D01*
X3828Y2957D02*X3833Y2952D01*
X3828Y2987D02*Y2957D01*
Y2987D02*X3833Y2992D01*
X3848D01*
X3866Y2952D02*X3876D01*
X3871Y2992D02*Y2952D01*
X3861Y2982D02*X3871Y2992D01*
X3889Y2952D02*X3909Y2972D01*
Y2987D02*Y2972D01*
X3904Y2992D02*X3909Y2987D01*
X3894Y2992D02*X3904D01*
X3889Y2987D02*X3894Y2992D01*
X3889Y2987D02*Y2977D01*
X3894Y2972D01*
X3909D01*
G54D21*X2698Y1702D02*X2738D01*
X2698Y1742D02*Y1702D01*
Y1742D02*X2738D01*
G54D13*Y1762D02*X2938D01*
X2738D02*Y1262D01*
X2938D01*
Y1762D02*Y1262D01*
G04 Text: JPROM *
G54D29*X2768Y1822D02*X2783D01*
Y1787D01*
X2778Y1782D02*X2783Y1787D01*
X2773Y1782D02*X2778D01*
X2768Y1787D02*X2773Y1782D01*
X2801Y1822D02*Y1782D01*
X2796Y1822D02*X2816D01*
X2821Y1817D01*
Y1807D01*
X2816Y1802D02*X2821Y1807D01*
X2801Y1802D02*X2816D01*
X2834Y1822D02*X2854D01*
X2859Y1817D01*
Y1807D01*
X2854Y1802D02*X2859Y1807D01*
X2839Y1802D02*X2854D01*
X2839Y1822D02*Y1782D01*
Y1802D02*X2859Y1782D01*
X2872Y1817D02*Y1787D01*
Y1817D02*X2877Y1822D01*
X2887D01*
X2892Y1817D01*
Y1787D01*
X2887Y1782D02*X2892Y1787D01*
X2877Y1782D02*X2887D01*
X2872Y1787D02*X2877Y1782D01*
X2905Y1822D02*Y1782D01*
Y1822D02*X2920Y1807D01*
X2935Y1822D01*
Y1782D01*
G54D11*X4043Y1577D02*X3972D01*
X4043Y1727D02*Y1577D01*
X3972Y1727D02*X4043D01*
X3972Y1577D02*Y1727D01*
G54D34*X4008Y1692D03*
G04 Text: C17 *
G54D29*X3985Y1740D02*X4000D01*
X3980Y1745D02*X3985Y1740D01*
X3980Y1775D02*Y1745D01*
Y1775D02*X3985Y1780D01*
X4000D01*
X4018Y1740D02*X4028D01*
X4023Y1780D02*Y1740D01*
X4013Y1770D02*X4023Y1780D01*
X4041Y1740D02*X4066Y1765D01*
Y1780D02*Y1765D01*
X4041Y1780D02*X4066D01*
G54D11*X3898Y2827D02*Y2756D01*
X3748Y2827D02*X3898D01*
X3748D02*Y2756D01*
X3898D01*
G54D34*X3783Y2792D03*
G04 Text: C16 *
G54D29*X3838Y2852D02*X3853D01*
X3833Y2857D02*X3838Y2852D01*
X3833Y2887D02*Y2857D01*
Y2887D02*X3838Y2892D01*
X3853D01*
X3871Y2852D02*X3881D01*
X3876Y2892D02*Y2852D01*
X3866Y2882D02*X3876Y2892D01*
X3909D02*X3914Y2887D01*
X3899Y2892D02*X3909D01*
X3894Y2887D02*X3899Y2892D01*
X3894Y2887D02*Y2857D01*
X3899Y2852D01*
X3909Y2872D02*X3914Y2867D01*
X3894Y2872D02*X3909D01*
X3899Y2852D02*X3909D01*
X3914Y2857D01*
Y2867D02*Y2857D01*
G54D11*X3793Y1727D02*X3722D01*
X3793Y1877D02*Y1727D01*
X3722Y1877D02*X3793D01*
X3722Y1727D02*Y1877D01*
G54D34*X3758Y1842D03*
G04 Text: C14 *
G54D29*X3611Y1805D02*X3626D01*
X3606Y1810D02*X3611Y1805D01*
X3606Y1840D02*Y1810D01*
Y1840D02*X3611Y1845D01*
X3626D01*
X3644Y1805D02*X3654D01*
X3649Y1845D02*Y1805D01*
X3639Y1835D02*X3649Y1845D01*
X3667Y1825D02*X3687Y1845D01*
X3667Y1825D02*X3692D01*
X3687Y1845D02*Y1805D01*
G54D11*X1497Y4129D02*X1733D01*
X1497Y4228D02*X1733D01*
X1497D02*Y4019D01*
X1733Y4228D02*Y4094D01*
X1734Y3967D02*Y3733D01*
X1498Y3896D02*Y3558D01*
X1737D01*
Y3604D02*Y3558D01*
G04 Text: JC *
G54D29*X1770Y4167D02*X1785D01*
Y4132D01*
X1780Y4127D02*X1785Y4132D01*
X1775Y4127D02*X1780D01*
X1770Y4132D02*X1775Y4127D01*
X1803D02*X1818D01*
X1798Y4132D02*X1803Y4127D01*
X1798Y4162D02*Y4132D01*
Y4162D02*X1803Y4167D01*
X1818D01*
G54D11*X2396Y2107D02*Y2036D01*
X2246Y2107D02*X2396D01*
X2246D02*Y2036D01*
X2396D01*
G54D34*X2281Y2072D03*
G04 Text: C13 *
G54D29*X2126Y2051D02*X2141D01*
X2121Y2056D02*X2126Y2051D01*
X2121Y2086D02*Y2056D01*
Y2086D02*X2126Y2091D01*
X2141D01*
X2159Y2051D02*X2169D01*
X2164Y2091D02*Y2051D01*
X2154Y2081D02*X2164Y2091D01*
X2182Y2086D02*X2187Y2091D01*
X2197D01*
X2202Y2086D01*
Y2056D01*
X2197Y2051D02*X2202Y2056D01*
X2187Y2051D02*X2197D01*
X2182Y2056D02*X2187Y2051D01*
Y2071D02*X2202D01*
G54D11*X3223Y2697D02*Y2626D01*
X3073Y2697D02*X3223D01*
X3073D02*Y2626D01*
X3223D01*
G54D34*X3108Y2662D03*
G04 Text: C12 *
G54D29*X3115Y2728D02*X3130D01*
X3110Y2733D02*X3115Y2728D01*
X3110Y2763D02*Y2733D01*
Y2763D02*X3115Y2768D01*
X3130D01*
X3148Y2728D02*X3158D01*
X3153Y2768D02*Y2728D01*
X3143Y2758D02*X3153Y2768D01*
X3171Y2763D02*X3176Y2768D01*
X3191D01*
X3196Y2763D01*
Y2753D01*
X3171Y2728D02*X3196Y2753D01*
X3171Y2728D02*X3196D01*
G54D11*X2633Y2107D02*Y2036D01*
X2483Y2107D02*X2633D01*
X2483D02*Y2036D01*
X2633D01*
G54D34*X2518Y2072D03*
G04 Text: C11 *
G54D29*X2653Y2052D02*X2668D01*
X2648Y2057D02*X2653Y2052D01*
X2648Y2087D02*Y2057D01*
Y2087D02*X2653Y2092D01*
X2668D01*
X2686Y2052D02*X2696D01*
X2691Y2092D02*Y2052D01*
X2681Y2082D02*X2691Y2092D01*
X2714Y2052D02*X2724D01*
X2719Y2092D02*Y2052D01*
X2709Y2082D02*X2719Y2092D01*
G54D11*X2123Y3538D02*Y3467D01*
X2273D01*
Y3538D02*Y3467D01*
X2123Y3538D02*X2273D01*
G54D34*X2238Y3502D03*
G04 Text: C8 *
G54D29*X2182Y3572D02*X2197D01*
X2177Y3577D02*X2182Y3572D01*
X2177Y3607D02*Y3577D01*
Y3607D02*X2182Y3612D01*
X2197D01*
X2210Y3577D02*X2215Y3572D01*
X2210Y3587D02*Y3577D01*
Y3587D02*X2215Y3592D01*
X2225D01*
X2230Y3587D01*
Y3577D01*
X2225Y3572D02*X2230Y3577D01*
X2215Y3572D02*X2225D01*
X2210Y3597D02*X2215Y3592D01*
X2210Y3607D02*Y3597D01*
Y3607D02*X2215Y3612D01*
X2225D01*
X2230Y3607D01*
Y3597D01*
X2225Y3592D02*X2230Y3597D01*
G54D11*X2465Y1567D02*X2539D01*
X2465Y1737D02*Y1567D01*
X2539Y1738D02*Y1568D01*
X2465Y1738D02*X2539D01*
G04 Text: D1 *
G54D29*X2492Y1543D02*Y1503D01*
X2507Y1543D02*X2512Y1538D01*
Y1508D01*
X2507Y1503D02*X2512Y1508D01*
X2487Y1503D02*X2507D01*
X2487Y1543D02*X2507D01*
X2530Y1503D02*X2540D01*
X2535Y1543D02*Y1503D01*
X2525Y1533D02*X2535Y1543D01*
G54D11*X2633Y1883D02*Y1809D01*
X2463D02*X2633D01*
X2462Y1883D02*X2632D01*
X2462D02*Y1809D01*
G04 Text: C24 *
G54D29*X2343Y1842D02*X2358D01*
X2338Y1847D02*X2343Y1842D01*
X2338Y1877D02*Y1847D01*
Y1877D02*X2343Y1882D01*
X2358D01*
X2371Y1877D02*X2376Y1882D01*
X2391D01*
X2396Y1877D01*
Y1867D01*
X2371Y1842D02*X2396Y1867D01*
X2371Y1842D02*X2396D01*
X2409Y1862D02*X2429Y1882D01*
X2409Y1862D02*X2434D01*
X2429Y1882D02*Y1842D01*
G54D11*X3973Y2547D02*Y2476D01*
X3823Y2547D02*X3973D01*
X3823D02*Y2476D01*
X3973D01*
G54D34*X3858Y2512D03*
G04 Text: C5 *
G54D29*X4013Y2502D02*X4028D01*
X4008Y2507D02*X4013Y2502D01*
X4008Y2537D02*Y2507D01*
Y2537D02*X4013Y2542D01*
X4028D01*
X4041D02*X4061D01*
X4041D02*Y2522D01*
X4046Y2527D01*
X4056D01*
X4061Y2522D01*
Y2507D01*
X4056Y2502D02*X4061Y2507D01*
X4046Y2502D02*X4056D01*
X4041Y2507D02*X4046Y2502D01*
G54D11*X4013Y2167D02*X3942D01*
X4013Y2317D02*Y2167D01*
X3942Y2317D02*X4013D01*
X3942Y2167D02*Y2317D01*
G54D34*X3978Y2282D03*
G04 Text: C4 *
G54D29*X3955Y2330D02*X3970D01*
X3950Y2335D02*X3955Y2330D01*
X3950Y2365D02*Y2335D01*
Y2365D02*X3955Y2370D01*
X3970D01*
X3983Y2350D02*X4003Y2370D01*
X3983Y2350D02*X4008D01*
X4003Y2370D02*Y2330D01*
G54D11*X3733Y2147D02*X3662D01*
X3733Y2297D02*Y2147D01*
X3662Y2297D02*X3733D01*
X3662Y2147D02*Y2297D01*
G54D34*X3698Y2262D03*
G04 Text: C3 *
G54D29*X3675Y2094D02*X3690D01*
X3670Y2099D02*X3675Y2094D01*
X3670Y2129D02*Y2099D01*
Y2129D02*X3675Y2134D01*
X3690D01*
X3703Y2129D02*X3708Y2134D01*
X3718D01*
X3723Y2129D01*
Y2099D01*
X3718Y2094D02*X3723Y2099D01*
X3708Y2094D02*X3718D01*
X3703Y2099D02*X3708Y2094D01*
Y2114D02*X3723D01*
G54D11*X3673Y2757D02*X3744D01*
X3673D02*Y2607D01*
X3744D01*
Y2757D02*Y2607D01*
G54D34*X3708Y2642D03*
G04 Text: C2 *
G54D29*X3763Y2677D02*X3778D01*
X3758Y2682D02*X3763Y2677D01*
X3758Y2712D02*Y2682D01*
Y2712D02*X3763Y2717D01*
X3778D01*
X3791Y2712D02*X3796Y2717D01*
X3811D01*
X3816Y2712D01*
Y2702D01*
X3791Y2677D02*X3816Y2702D01*
X3791Y2677D02*X3816D01*
X1803Y3307D02*Y2248D01*
X2862D01*
Y3307D02*Y2248D01*
X1803Y3307D02*X2862D01*
G54D11*X1823Y3267D02*G75*G03X1823Y3267I20J0D01*G01*
G04 Text: U5 *
G54D29*X2876Y2203D02*Y2168D01*
X2881Y2163D01*
X2891D01*
X2896Y2168D01*
Y2203D02*Y2168D01*
X2909Y2203D02*X2929D01*
X2909D02*Y2183D01*
X2914Y2188D01*
X2924D01*
X2929Y2183D01*
Y2168D01*
X2924Y2163D02*X2929Y2168D01*
X2914Y2163D02*X2924D01*
X2909Y2168D02*X2914Y2163D01*
G54D11*X1370Y3782D02*X1390D01*
X1370Y1542D02*X1390D01*
X1370Y2092D02*X1390D01*
X1370Y3202D02*X1390D01*
X1070Y3802D02*X1370D01*
Y1522D01*
X1070D02*X1370D01*
X1070Y3792D02*Y1522D01*
G04 Text: J1 *
G54D29*X1166Y1468D02*X1181D01*
Y1433D01*
X1176Y1428D02*X1181Y1433D01*
X1171Y1428D02*X1176D01*
X1166Y1433D02*X1171Y1428D01*
X1199D02*X1209D01*
X1204Y1468D02*Y1428D01*
X1194Y1458D02*X1204Y1468D01*
X3390Y2603D02*X3653D01*
X3390D02*Y2340D01*
X3653D01*
Y2603D02*Y2340D01*
G54D11*X3613Y2583D02*G75*G03X3613Y2583I0J-20D01*G01*
G04 Text: U1 *
G54D29*X3310Y2300D02*Y2265D01*
X3315Y2260D01*
X3325D01*
X3330Y2265D01*
Y2300D02*Y2265D01*
X3348Y2260D02*X3358D01*
X3353Y2300D02*Y2260D01*
X3343Y2290D02*X3353Y2300D01*
G54D11*X3173Y3857D02*Y3786D01*
X3023Y3857D02*X3173D01*
X3023D02*Y3786D01*
X3173D01*
G54D34*X3058Y3822D03*
G04 Text: R8 *
G54D29*X3064Y3920D02*X3084D01*
X3089Y3915D01*
Y3905D01*
X3084Y3900D02*X3089Y3905D01*
X3069Y3900D02*X3084D01*
X3069Y3920D02*Y3880D01*
Y3900D02*X3089Y3880D01*
X3102Y3885D02*X3107Y3880D01*
X3102Y3895D02*Y3885D01*
Y3895D02*X3107Y3900D01*
X3117D01*
X3122Y3895D01*
Y3885D01*
X3117Y3880D02*X3122Y3885D01*
X3107Y3880D02*X3117D01*
X3102Y3905D02*X3107Y3900D01*
X3102Y3915D02*Y3905D01*
Y3915D02*X3107Y3920D01*
X3117D01*
X3122Y3915D01*
Y3905D01*
X3117Y3900D02*X3122Y3905D01*
G54D13*X3583Y3242D02*Y3067D01*
X3483D02*Y3242D01*
X3383D02*Y3067D01*
X3683Y3567D02*X3283D01*
X3683Y3817D02*Y3242D01*
X3283Y3817D02*X3683D01*
X3283Y3242D02*Y3817D01*
Y3242D02*X3683D01*
G04 Text: U2 *
G54D29*X3720Y3438D02*Y3403D01*
X3725Y3398D01*
X3735D01*
X3740Y3403D01*
Y3438D02*Y3403D01*
X3753Y3433D02*X3758Y3438D01*
X3773D01*
X3778Y3433D01*
Y3423D01*
X3753Y3398D02*X3778Y3423D01*
X3753Y3398D02*X3778D01*
G54D11*X4098Y2612D02*X4144D01*
X4098Y2851D02*Y2612D01*
Y2851D02*X4436D01*
X4273Y2615D02*X4507D01*
X4634Y2616D02*X4768D01*
X4559Y2852D02*X4768D01*
Y2616D01*
X4669Y2852D02*Y2616D01*
G04 Text: JV *
G54D29*X4654Y2976D02*X4669D01*
Y2941D01*
X4664Y2936D02*X4669Y2941D01*
X4659Y2936D02*X4664D01*
X4654Y2941D02*X4659Y2936D01*
X4682Y2976D02*Y2946D01*
X4692Y2936D01*
X4702Y2946D01*
Y2976D02*Y2946D01*
G54D11*X3762Y1928D02*X3827D01*
Y1813D02*X4397D01*
X3827Y2043D02*Y1813D01*
Y2043D02*X4397D01*
Y1813D01*
Y1928D02*X4452D01*
G04 Text: R2 *
G54D55*X4196Y2142D02*X4226D01*
X4233Y2135D01*
Y2120D01*
X4226Y2112D02*X4233Y2120D01*
X4203Y2112D02*X4226D01*
X4203Y2142D02*Y2082D01*
Y2112D02*X4233Y2082D01*
X4253Y2135D02*X4260Y2142D01*
X4283D01*
X4290Y2135D01*
Y2120D01*
X4253Y2082D02*X4290Y2120D01*
X4253Y2082D02*X4290D01*
G54D11*X1993Y3609D02*Y3565D01*
X1873D01*
X1874Y3609D02*X1992D01*
X1873Y3565D02*Y3608D01*
G04 Text: U7 *
G54D29*X2024Y3669D02*Y3634D01*
X2029Y3629D01*
X2039D01*
X2044Y3634D01*
Y3669D02*Y3634D01*
X2057Y3629D02*X2082Y3654D01*
Y3669D02*Y3654D01*
X2057Y3669D02*X2082D01*
G54D34*X2484Y3519D03*
G54D11*X2449Y3483D02*X2599D01*
X2449Y3554D02*Y3483D01*
Y3554D02*X2599D01*
Y3483D01*
G04 Text: C34 *
G54D29*X2459Y3579D02*X2474D01*
X2454Y3584D02*X2459Y3579D01*
X2454Y3614D02*Y3584D01*
Y3614D02*X2459Y3619D01*
X2474D01*
X2487Y3614D02*X2492Y3619D01*
X2502D01*
X2507Y3614D01*
Y3584D01*
X2502Y3579D02*X2507Y3584D01*
X2492Y3579D02*X2502D01*
X2487Y3584D02*X2492Y3579D01*
Y3599D02*X2507D01*
X2520D02*X2540Y3619D01*
X2520Y3599D02*X2545D01*
X2540Y3619D02*Y3579D01*
G54D11*X4940Y1264D02*X4350D01*
Y1624D01*
X4940D01*
Y1264D01*
X4350Y1614D02*X4330D01*
Y1594D01*
X4350D01*
X4940Y1614D02*X4920D01*
Y1594D01*
X4940D01*
X4839Y1264D02*Y1284D01*
X4645Y1264D02*Y1284D01*
X4451Y1264D02*Y1284D01*
G04 Text: JP *
G54D55*X4249Y1348D02*X4271D01*
Y1296D01*
X4264Y1288D02*X4271Y1296D01*
X4256Y1288D02*X4264D01*
X4249Y1296D02*X4256Y1288D01*
X4298Y1348D02*Y1288D01*
X4291Y1348D02*X4321D01*
X4328Y1341D01*
Y1326D01*
X4321Y1318D02*X4328Y1326D01*
X4298Y1318D02*X4321D01*
G54D11*X2114Y3949D02*Y3909D01*
X2854Y4149D02*Y3949D01*
X2074D02*Y3909D01*
G54D21*X2054Y4149D02*Y3949D01*
G54D11*X2074Y3909D02*X2114D01*
G54D21*X2054Y3949D02*X2854D01*
X2054Y4149D02*X2854D01*
G04 Text: JTEST *
G54D29*X2074Y4229D02*X2089D01*
Y4194D01*
X2084Y4189D02*X2089Y4194D01*
X2079Y4189D02*X2084D01*
X2074Y4194D02*X2079Y4189D01*
X2102Y4229D02*X2122D01*
X2112D02*Y4189D01*
X2135Y4209D02*X2150D01*
X2135Y4189D02*X2155D01*
X2135Y4229D02*Y4189D01*
Y4229D02*X2155D01*
X2188D02*X2193Y4224D01*
X2173Y4229D02*X2188D01*
X2168Y4224D02*X2173Y4229D01*
X2168Y4224D02*Y4214D01*
X2173Y4209D01*
X2188D01*
X2193Y4204D01*
Y4194D01*
X2188Y4189D02*X2193Y4194D01*
X2173Y4189D02*X2188D01*
X2168Y4194D02*X2173Y4189D01*
X2206Y4229D02*X2226D01*
X2216D02*Y4189D01*
G54D14*X2478Y1632D02*X2528D01*
G04 Text: V+ *
G54D59*X4584Y1719D02*Y1665D01*
X4602Y1647D01*
X4620Y1665D01*
Y1719D02*Y1665D01*
X4643Y1683D02*X4679D01*
X4661Y1701D02*Y1665D01*
G04 Text: GND *
X4800Y1719D02*X4809Y1710D01*
X4773Y1719D02*X4800D01*
X4764Y1710D02*X4773Y1719D01*
X4764Y1710D02*Y1656D01*
X4773Y1647D01*
X4800D01*
X4809Y1656D01*
Y1674D02*Y1656D01*
X4800Y1683D02*X4809Y1674D01*
X4782Y1683D02*X4800D01*
X4832Y1719D02*Y1647D01*
Y1719D02*Y1710D01*
X4877Y1665D01*
Y1719D02*Y1647D01*
X4909Y1719D02*Y1647D01*
X4936Y1719D02*X4945Y1710D01*
Y1656D01*
X4936Y1647D02*X4945Y1656D01*
X4900Y1647D02*X4936D01*
X4900Y1719D02*X4936D01*
G04 Text: SBI FRAME GRAB *
G54D40*X3336Y4104D02*X3346Y4094D01*
X3306Y4104D02*X3336D01*
X3296Y4094D02*X3306Y4104D01*
X3296Y4094D02*Y4074D01*
X3306Y4064D01*
X3336D01*
X3346Y4054D01*
Y4034D01*
X3336Y4024D02*X3346Y4034D01*
X3306Y4024D02*X3336D01*
X3296Y4034D02*X3306Y4024D01*
X3372D02*X3412D01*
X3422Y4034D01*
Y4054D02*Y4034D01*
X3412Y4064D02*X3422Y4054D01*
X3382Y4064D02*X3412D01*
X3382Y4104D02*Y4024D01*
X3372Y4104D02*X3412D01*
X3422Y4094D01*
Y4074D01*
X3412Y4064D02*X3422Y4074D01*
X3448Y4104D02*X3468D01*
X3458D02*Y4024D01*
X3448D02*X3468D01*
X3530Y4104D02*Y4024D01*
Y4104D02*X3570D01*
X3530Y4064D02*X3560D01*
X3596Y4104D02*X3636D01*
X3646Y4094D01*
Y4074D01*
X3636Y4064D02*X3646Y4074D01*
X3606Y4064D02*X3636D01*
X3606Y4104D02*Y4024D01*
Y4064D02*X3646Y4024D01*
X3672Y4094D02*Y4024D01*
Y4094D02*X3682Y4104D01*
X3712D01*
X3722Y4094D01*
Y4024D01*
X3672Y4064D02*X3722D01*
X3748Y4104D02*Y4024D01*
Y4104D02*X3778Y4074D01*
X3808Y4104D01*
Y4024D01*
X3834Y4064D02*X3864D01*
X3834Y4024D02*X3874D01*
X3834Y4104D02*Y4024D01*
Y4104D02*X3874D01*
X3976D02*X3986Y4094D01*
X3946Y4104D02*X3976D01*
X3936Y4094D02*X3946Y4104D01*
X3936Y4094D02*Y4034D01*
X3946Y4024D01*
X3976D01*
X3986Y4034D01*
Y4054D02*Y4034D01*
X3976Y4064D02*X3986Y4054D01*
X3956Y4064D02*X3976D01*
X4012Y4104D02*X4052D01*
X4062Y4094D01*
Y4074D01*
X4052Y4064D02*X4062Y4074D01*
X4022Y4064D02*X4052D01*
X4022Y4104D02*Y4024D01*
Y4064D02*X4062Y4024D01*
X4088Y4094D02*Y4024D01*
Y4094D02*X4098Y4104D01*
X4128D01*
X4138Y4094D01*
Y4024D01*
X4088Y4064D02*X4138D01*
X4164Y4024D02*X4204D01*
X4214Y4034D01*
Y4054D02*Y4034D01*
X4204Y4064D02*X4214Y4054D01*
X4174Y4064D02*X4204D01*
X4174Y4104D02*Y4024D01*
X4164Y4104D02*X4204D01*
X4214Y4094D01*
Y4074D01*
X4204Y4064D02*X4214Y4074D01*
G04 Text: VIDEO *
X4360Y2424D02*Y2364D01*
X4380Y2344D01*
X4400Y2364D01*
Y2424D02*Y2364D01*
X4426Y2424D02*X4446D01*
X4436D02*Y2344D01*
X4426D02*X4446D01*
X4482Y2424D02*Y2344D01*
X4512Y2424D02*X4522Y2414D01*
Y2354D01*
X4512Y2344D02*X4522Y2354D01*
X4472Y2344D02*X4512D01*
X4472Y2424D02*X4512D01*
X4548Y2384D02*X4578D01*
X4548Y2344D02*X4588D01*
X4548Y2424D02*Y2344D01*
Y2424D02*X4588D01*
X4614Y2414D02*Y2354D01*
Y2414D02*X4624Y2424D01*
X4644D01*
X4654Y2414D01*
Y2354D01*
X4644Y2344D02*X4654Y2354D01*
X4624Y2344D02*X4644D01*
X4614Y2354D02*X4624Y2344D01*
M02*
