M48
INCH,TZ
T01C0.028
T02C0.038
T03C0.040
T04C0.048
T05C0.072
T06C0.150
T07C0.020
T08C0.177
%
T01
X11700Y36020
X12700Y36020
X11700Y35020
X12700Y35020
X11700Y34020
X12700Y34020
X11700Y33020
X12700Y33020
X11700Y32020
X12700Y32020
X11700Y31020
X12700Y31020
X11700Y30020
X12700Y30020
X11700Y29020
X12700Y29020
X11700Y28020
X12700Y28020
X11700Y27020
X12700Y27020
X11700Y26020
X12700Y26020
X11700Y25020
X12700Y25020
X11700Y24020
X12700Y24020
X11700Y23020
X12700Y23020
X11700Y22020
X12700Y22020
X11700Y21020
X12700Y21020
X11700Y20020
X12700Y20020
X11700Y19020
X12700Y19020
X11700Y18020
X12700Y18020
X11700Y17020
X12700Y17020
X45670Y24870
X17840Y38490
X36680Y20720
X38380Y30220
X25940Y35990
X32830Y26670
X19800Y29760
T02
X27080Y36120
X27080Y37120
X28080Y36120
X28080Y37120
X29080Y36120
X29080Y37120
X30080Y36120
X30080Y37120
X31080Y36120
X31080Y37120
X27880Y17120
X28880Y17120
X27880Y16120
X28880Y16120
X27880Y15120
X28880Y15120
X27880Y14120
X28880Y14120
X27880Y13120
X28880Y13120
X21040Y39990
X21040Y40990
X22040Y39990
X22040Y40990
X23040Y40990
X24040Y39990
X24040Y40990
X25040Y39990
X25040Y40990
X26040Y39990
X26040Y40990
X27040Y39990
X27040Y40990
X28040Y39990
X23040Y39990
X28040Y40990
T03
X38830Y14920
X38830Y15920
X38830Y16920
X33830Y29920
X34830Y29920
X35830Y29920
T04
X45120Y19280
X37120Y19280
X48390Y14240
X46450Y14240
X44510Y14240
T07
X18620Y19370
X20580Y19930
X17800Y17400
X19380Y23500
X24080Y19400
X21320Y18160
X19570Y18910
X19700Y20400
X20320Y15900
X19680Y23100
X17000Y21780
X27140Y32290
X26640Y32590
X27980Y28120
X18740Y36990
X16140Y35090
X36840Y17590
X18480Y32720
X16280Y28120
X36280Y22120
X40580Y13820
X27780Y25020
X27780Y31020
X16280Y23920
X37830Y28670
X36330Y27420
X35830Y27420
X21180Y20720
X23980Y14620
X23480Y15320
X23420Y20020
X26720Y20730
X21880Y13920
X26680Y18420
X16280Y16020
X39580Y21520
X37580Y21320
X39980Y24820
X35480Y25720
X34680Y23720
X35380Y23720
X36180Y23820
X37880Y24820
X37780Y26520
X36180Y25220
X27580Y32720
X28180Y32220
X30780Y21120
X28080Y27220
X30600Y24140
X27580Y22820
X18380Y25920
X23780Y32620
X25580Y22820
X22780Y22820
X21540Y35690
X18480Y27420
X18480Y30820
X18480Y26520
X18480Y28420
X25970Y32690
X24010Y34840
X20080Y32620
X21680Y32620
X30670Y27270
X27700Y34810
X30540Y31220
X28080Y29260
X28110Y24230
X22280Y20220
X18420Y24050
X23280Y14720
X26380Y19220
X32380Y21620
X17540Y33490
X26980Y22820
X22400Y35550
X20980Y23020
X19270Y22710
X16700Y22440
X23360Y17420
X24550Y20710
X30250Y27900
M30
