G04 Title: (unknown), silkscreen, solder side *
G04 Creator: pcb 1.99j *
G04 CreationDate: Thu Feb 28 17:34:28 2002 UTC *
G04 For: root *
G04 Format: Gerber/RS-274X *
G04 PCB-Dimensions: 6000 5000 *
G04 PCB-Coordinate-Origin: lower left *
%MOIN*%
%FSLAX23Y23*%
%IPPOS*%
%ADD11C,0.010*%
%ADD12C,0.017*%
%ADD13C,0.020*%
%ADD14C,0.030*%
%ADD15C,0.040*%
%ADD16C,0.037*%
%ADD17C,0.045*%
%ADD18C,0.055*%
%ADD19C,0.025*%
%ADD20C,0.035*%
%ADD21C,0.015*%
%ADD22C,0.022*%
%ADD23C,0.070*%
%ADD24C,0.080*%
%ADD25C,0.090*%
%ADD26C,0.150*%
%ADD27C,0.160*%
%ADD28C,0.170*%
%ADD29C,0.008*%
%ADD30R,0.028X0.028*%
%ADD31R,0.058X0.058*%
%ADD32R,0.050X0.050*%
%ADD33R,0.080X0.080*%
%ADD34C,0.000*%
%ADD35R,0.025X0.025*%
%ADD36R,0.055X0.055*%
%ADD37R,0.035X0.035*%
%ADD38R,0.040X0.040*%
%ADD39R,0.070X0.070*%
%ADD40C,0.016*%
%ADD41C,0.086*%
%ADD42C,0.072*%
%ADD43C,0.092*%
%ADD44R,0.110X0.110*%
%ADD45R,0.140X0.140*%
%ADD46R,0.010X0.010*%
%ADD47R,0.020X0.020*%
%ADD48R,0.060X0.060*%
%ADD49R,0.090X0.090*%
%ADD50C,0.060*%
%ADD51R,0.085X0.085*%
%ADD52R,0.115X0.115*%
%ADD53C,0.085*%
%ADD54C,0.115*%
%ADD55C,0.012*%
%ADD56C,0.110*%
%ADD57C,0.140*%
%ADD58C,0.031*%
%ADD59C,0.014*%
%ADD60C,0.036*%
%ADD61C,0.052*%
%ADD62C,0.013*%
%ADD63C,0.075*%
%ADD64C,0.177*%
%ADD65C,0.050*%
%ADD66C,0.076*%
%LNGROUP_4*%
%LPD*%
G01X0Y0D02*
G54D34*X1906Y2423D03*
G54D11*X1870Y2538D02*Y2388D01*
X1941D01*
Y2538D02*Y2388D01*
X1870Y2538D02*X1941D01*
G04 Text: C26 *
G54D29*X1981Y2433D02*X1996D01*
X1976Y2428D02*X1981Y2433D01*
X1976Y2398D02*Y2428D01*
Y2398D02*X1981Y2393D01*
X1996D01*
X2009Y2398D02*X2014Y2393D01*
X2029D01*
X2034Y2398D01*
Y2408D01*
X2009Y2433D02*X2034Y2408D01*
X2009Y2433D02*X2034D01*
X2062Y2393D02*X2067Y2398D01*
X2052Y2393D02*X2062D01*
X2047Y2398D02*X2052Y2393D01*
X2047Y2398D02*Y2428D01*
X2052Y2433D01*
X2062Y2413D02*X2067Y2418D01*
X2047Y2413D02*X2062D01*
X2052Y2433D02*X2062D01*
X2067Y2428D01*
Y2418D02*Y2428D01*
G54D11*X1943Y3007D02*X1872D01*
X1943Y2857D02*Y3007D01*
X1872Y2857D02*X1943D01*
X1872Y3007D02*Y2857D01*
G54D34*X1908Y2892D03*
G04 Text: C10 *
G54D29*X1983D02*X1998D01*
X1978Y2887D02*X1983Y2892D01*
X1978Y2857D02*Y2887D01*
Y2857D02*X1983Y2852D01*
X1998D01*
X2016Y2892D02*X2026D01*
X2021Y2852D02*Y2892D01*
X2011Y2862D02*X2021Y2852D01*
X2039Y2887D02*X2044Y2892D01*
X2039Y2857D02*Y2887D01*
Y2857D02*X2044Y2852D01*
X2054D01*
X2059Y2857D01*
Y2887D01*
X2054Y2892D02*X2059Y2887D01*
X2044Y2892D02*X2054D01*
X2039Y2882D02*X2059Y2862D01*
G54D11*X1873Y2627D02*X1944D01*
X1873Y2777D02*Y2627D01*
Y2777D02*X1944D01*
Y2627D01*
G54D34*X1908Y2742D03*
G04 Text: C9 *
G54D29*X1983Y2672D02*X1998D01*
X1978Y2667D02*X1983Y2672D01*
X1978Y2637D02*Y2667D01*
Y2637D02*X1983Y2632D01*
X1998D01*
X2011Y2672D02*X2031Y2652D01*
Y2637D02*Y2652D01*
X2026Y2632D02*X2031Y2637D01*
X2016Y2632D02*X2026D01*
X2011Y2637D02*X2016Y2632D01*
X2011Y2637D02*Y2647D01*
X2016Y2652D01*
X2031D01*
G54D11*X2723Y2537D02*X2652D01*
X2723Y2387D02*Y2537D01*
X2652Y2387D02*X2723D01*
X2652Y2537D02*Y2387D01*
G54D34*X2688Y2422D03*
G04 Text: C29 *
G54D29*X2665Y2374D02*X2680D01*
X2660Y2369D02*X2665Y2374D01*
X2660Y2339D02*Y2369D01*
Y2339D02*X2665Y2334D01*
X2680D01*
X2693Y2339D02*X2698Y2334D01*
X2713D01*
X2718Y2339D01*
Y2349D01*
X2693Y2374D02*X2718Y2349D01*
X2693Y2374D02*X2718D01*
X2731D02*X2751Y2354D01*
Y2339D02*Y2354D01*
X2746Y2334D02*X2751Y2339D01*
X2736Y2334D02*X2746D01*
X2731Y2339D02*X2736Y2334D01*
X2731Y2339D02*Y2349D01*
X2736Y2354D01*
X2751D01*
G54D11*X2653Y2687D02*X2724D01*
X2653Y2837D02*Y2687D01*
Y2837D02*X2724D01*
Y2687D01*
G54D34*X2688Y2802D03*
G04 Text: C28 *
G54D29*X2663Y2672D02*X2678D01*
X2658Y2667D02*X2663Y2672D01*
X2658Y2637D02*Y2667D01*
Y2637D02*X2663Y2632D01*
X2678D01*
X2691Y2637D02*X2696Y2632D01*
X2711D01*
X2716Y2637D01*
Y2647D01*
X2691Y2672D02*X2716Y2647D01*
X2691Y2672D02*X2716D01*
X2729Y2667D02*X2734Y2672D01*
X2729Y2657D02*Y2667D01*
Y2657D02*X2734Y2652D01*
X2744D01*
X2749Y2657D01*
Y2667D01*
X2744Y2672D02*X2749Y2667D01*
X2734Y2672D02*X2744D01*
X2729Y2647D02*X2734Y2652D01*
X2729Y2637D02*Y2647D01*
Y2637D02*X2734Y2632D01*
X2744D01*
X2749Y2637D01*
Y2647D01*
X2744Y2652D02*X2749Y2647D01*
G54D11*X2733Y3137D02*X2662D01*
X2733Y2987D02*Y3137D01*
X2662Y2987D02*X2733D01*
X2662Y3137D02*Y2987D01*
G54D34*X2698Y3022D03*
G04 Text: C27 *
G54D29*X2675Y2974D02*X2690D01*
X2670Y2969D02*X2675Y2974D01*
X2670Y2939D02*Y2969D01*
Y2939D02*X2675Y2934D01*
X2690D01*
X2703Y2939D02*X2708Y2934D01*
X2723D01*
X2728Y2939D01*
Y2949D01*
X2703Y2974D02*X2728Y2949D01*
X2703Y2974D02*X2728D01*
X2741D02*X2766Y2949D01*
Y2934D02*Y2949D01*
X2741Y2934D02*X2766D01*
G54D11*X2279Y2395D02*Y2324D01*
X2129D02*X2279D01*
X2129Y2395D02*Y2324D01*
Y2395D02*X2279D01*
G54D34*X2164Y2359D03*
G04 Text: C31 *
G54D29*X2149Y2459D02*X2164D01*
X2144Y2454D02*X2149Y2459D01*
X2144Y2424D02*Y2454D01*
Y2424D02*X2149Y2419D01*
X2164D01*
X2177Y2424D02*X2182Y2419D01*
X2192D01*
X2197Y2424D01*
Y2454D01*
X2192Y2459D02*X2197Y2454D01*
X2182Y2459D02*X2192D01*
X2177Y2454D02*X2182Y2459D01*
Y2439D02*X2197D01*
X2215Y2459D02*X2225D01*
X2220Y2419D02*Y2459D01*
X2210Y2429D02*X2220Y2419D01*
G54D34*X2094Y3209D03*
G54D11*X2130Y3244D02*Y3094D01*
X2059Y3244D02*X2130D01*
X2059D02*Y3094D01*
X2130D01*
G04 Text: C32 *
G54D29*X2049Y3079D02*X2064D01*
X2044Y3074D02*X2049Y3079D01*
X2044Y3044D02*Y3074D01*
Y3044D02*X2049Y3039D01*
X2064D01*
X2077Y3044D02*X2082Y3039D01*
X2092D01*
X2097Y3044D01*
Y3074D01*
X2092Y3079D02*X2097Y3074D01*
X2082Y3079D02*X2092D01*
X2077Y3074D02*X2082Y3079D01*
Y3059D02*X2097D01*
X2110Y3044D02*X2115Y3039D01*
X2130D01*
X2135Y3044D01*
Y3054D01*
X2110Y3079D02*X2135Y3054D01*
X2110Y3079D02*X2135D01*
G54D11*X2429Y3224D02*Y3153D01*
Y3224D02*X2579D01*
Y3153D01*
X2429D02*X2579D01*
G54D34*X2544Y3189D03*
G04 Text: C33 *
G54D29*X2469Y3129D02*X2484D01*
X2464Y3124D02*X2469Y3129D01*
X2464Y3094D02*Y3124D01*
Y3094D02*X2469Y3089D01*
X2484D01*
X2497Y3094D02*X2502Y3089D01*
X2512D01*
X2517Y3094D01*
Y3124D01*
X2512Y3129D02*X2517Y3124D01*
X2502Y3129D02*X2512D01*
X2497Y3124D02*X2502Y3129D01*
Y3109D02*X2517D01*
X2530Y3094D02*X2535Y3089D01*
X2545D01*
X2550Y3094D01*
Y3124D01*
X2545Y3129D02*X2550Y3124D01*
X2535Y3129D02*X2545D01*
X2530Y3124D02*X2535Y3129D01*
Y3109D02*X2550D01*
M02*
